<svg width="38" height="38" viewBox="0 0 38 38" fill="none" xmlns="http://www.w3.org/2000/svg">
<circle cx="18.9997" cy="18.9997" r="18.9997" fill="#E6ECFF"/>
<path d="M17.3696 13.3162L16.8707 13.8305C16.7067 14.0088 16.6247 14.217 16.6247 14.4546C16.6247 14.6972 16.7067 14.9029 16.8707 15.0721L20.1032 18.4059L16.8708 21.7398C16.7068 21.909 16.6248 22.1147 16.6248 22.3572C16.6248 22.5949 16.7068 22.8031 16.8708 22.9813L17.3697 23.489C17.5381 23.6628 17.7399 23.7496 17.9749 23.7496C18.2143 23.7496 18.4138 23.6627 18.5734 23.489L22.9031 19.0234C23.0716 18.8587 23.1558 18.653 23.1558 18.406C23.1558 18.1636 23.0716 17.9555 22.9031 17.7818L18.5734 13.3162C18.4093 13.147 18.2098 13.0623 17.9749 13.0623C17.7443 13.0623 17.5426 13.1469 17.3696 13.3162Z" fill="#9BA4BF"/>
</svg>
