<svg width="38" height="38" viewBox="0 0 38 38" fill="none" xmlns="http://www.w3.org/2000/svg">
<circle cx="18.9997" cy="18.9997" r="18.9997" fill="#E6ECFF"/>
<path d="M21.7495 13.3437L22.2938 13.9152C22.4727 14.1132 22.5621 14.3446 22.5621 14.6086C22.5621 14.8781 22.4727 15.1067 22.2938 15.2947L18.7674 18.999L22.2936 22.7032C22.4726 22.8912 22.562 23.1198 22.562 23.3892C22.562 23.6534 22.4726 23.8847 22.2936 24.0827L21.7494 24.6468C21.5657 24.8399 21.3456 24.9364 21.0892 24.9364C20.828 24.9364 20.6103 24.8398 20.4362 24.6468L15.7129 19.685C15.5292 19.502 15.4372 19.2735 15.4372 18.999C15.4372 18.7297 15.5292 18.4984 15.7129 18.3055L20.4362 13.3437C20.6152 13.1557 20.8329 13.0616 21.0892 13.0616C21.3408 13.0616 21.5608 13.1556 21.7495 13.3437Z" fill="#4294FF"/>
</svg>
