<svg width="31" height="30" viewBox="0 0 31 30" fill="none" xmlns="http://www.w3.org/2000/svg">
<circle cx="15.5827" cy="14.9167" r="7.5" fill="#D9D9D9" stroke="#3C65F5" stroke-width="14.8333"/>
<path d="M16.0811 13.4746C15.5668 13.4746 15.0735 13.6789 14.7099 14.0425C14.3462 14.4062 14.1419 14.8994 14.1419 15.4137C14.1419 15.928 14.3462 16.4213 14.7099 16.7849C15.0735 17.1486 15.5668 17.3529 16.0811 17.3529C16.5954 17.3529 17.0886 17.1486 17.4523 16.7849C17.8159 16.4213 18.0202 15.928 18.0202 15.4137C18.0202 14.8994 17.8159 14.4062 17.4523 14.0425C17.0886 13.6789 16.5954 13.4746 16.0811 13.4746ZM16.0811 12.1818C16.9382 12.1818 17.7603 12.5223 18.3664 13.1284C18.9725 13.7345 19.313 14.5566 19.313 15.4137C19.313 16.2709 18.9725 17.0929 18.3664 17.699C17.7603 18.3052 16.9382 18.6457 16.0811 18.6457C15.2239 18.6457 14.4019 18.3052 13.7957 17.699C13.1896 17.0929 12.8491 16.2709 12.8491 15.4137C12.8491 14.5566 13.1896 13.7345 13.7957 13.1284C14.4019 12.5223 15.2239 12.1818 16.0811 12.1818V12.1818ZM20.2826 12.0202C20.2826 12.2345 20.1975 12.44 20.046 12.5915C19.8944 12.743 19.6889 12.8282 19.4746 12.8282C19.2603 12.8282 19.0548 12.743 18.9033 12.5915C18.7518 12.44 18.6666 12.2345 18.6666 12.0202C18.6666 11.8059 18.7518 11.6004 18.9033 11.4488C19.0548 11.2973 19.2603 11.2122 19.4746 11.2122C19.6889 11.2122 19.8944 11.2973 20.046 11.4488C20.1975 11.6004 20.2826 11.8059 20.2826 12.0202V12.0202ZM16.0811 10.2426C14.4819 10.2426 14.2208 10.2471 13.4768 10.2801C12.97 10.304 12.63 10.3719 12.3146 10.4947C12.034 10.6033 11.8317 10.7332 11.6165 10.9491C11.4142 11.1446 11.2586 11.3832 11.1614 11.6472C11.0386 11.9639 10.9707 12.3033 10.9475 12.8094C10.9138 13.523 10.91 13.7725 10.91 15.4137C10.91 17.0129 10.9145 17.274 10.9475 18.018C10.9714 18.5241 11.0392 18.8648 11.1614 19.1796C11.2713 19.4608 11.4006 19.6631 11.6152 19.8777C11.833 20.0949 12.0353 20.2248 12.3133 20.3321C12.6326 20.4556 12.9726 20.5241 13.4768 20.5473C14.1904 20.581 14.4399 20.5848 16.0811 20.5848C17.6802 20.5848 17.9414 20.5803 18.6854 20.5473C19.1909 20.5234 19.5315 20.4556 19.8469 20.3334C20.1268 20.2241 20.3304 20.0942 20.545 19.8796C20.7629 19.6618 20.8928 19.4595 21.0001 19.1815C21.1229 18.8628 21.1914 18.5222 21.2147 18.018C21.2483 17.3044 21.2522 17.0549 21.2522 15.4137C21.2522 13.8146 21.2477 13.5534 21.2147 12.8094C21.1908 12.3039 21.1229 11.9626 21.0001 11.6472C20.9027 11.3835 20.7474 11.1449 20.5457 10.9491C20.3503 10.7467 20.1116 10.5911 19.8476 10.4941C19.5309 10.3712 19.1909 10.3034 18.6854 10.2801C17.9718 10.2465 17.7223 10.2426 16.0811 10.2426ZM16.0811 8.94983C17.8373 8.94983 18.0564 8.95629 18.7455 8.98861C19.4339 9.02093 19.9025 9.12888 20.3149 9.28918C20.7415 9.45337 21.1009 9.67572 21.4603 10.0345C21.789 10.3576 22.0433 10.7485 22.2056 11.1799C22.3653 11.5916 22.4739 12.0609 22.5062 12.7493C22.5366 13.4384 22.545 13.6575 22.545 15.4137C22.545 17.17 22.5385 17.3891 22.5062 18.0781C22.4739 18.7665 22.3653 19.2352 22.2056 19.6476C22.0438 20.0792 21.7894 20.4702 21.4603 20.793C21.1371 21.1215 20.7463 21.3758 20.3149 21.5383C19.9032 21.6979 19.4339 21.8065 18.7455 21.8388C18.0564 21.8692 17.8373 21.8776 16.0811 21.8776C14.3248 21.8776 14.1057 21.8711 13.4167 21.8388C12.7283 21.8065 12.2596 21.6979 11.8472 21.5383C11.4157 21.3763 11.0247 21.1219 10.7018 20.793C10.3731 20.4699 10.1187 20.079 9.95654 19.6476C9.79624 19.2358 9.68829 18.7665 9.65597 18.0781C9.62559 17.3891 9.61719 17.17 9.61719 15.4137C9.61719 13.6575 9.62365 13.4384 9.65597 12.7493C9.68829 12.0603 9.79624 11.5923 9.95654 11.1799C10.1183 10.7482 10.3727 10.3572 10.7018 10.0345C11.0248 9.70561 11.4157 9.45125 11.8472 9.28918C12.2596 9.12888 12.7276 9.02093 13.4167 8.98861C14.1057 8.95823 14.3248 8.94983 16.0811 8.94983Z" fill="white"/>
</svg>
