<svg width="10" height="6" viewBox="0 0 10 6" fill="none" xmlns="http://www.w3.org/2000/svg">
<path d="M1.56443 0.506122C1.29167 0.194394 0.817849 0.162806 0.506122 0.435567C0.194394 0.708329 0.162806 1.18215 0.435567 1.49388L1.56443 0.506122ZM4.5 5L3.93557 5.49388C4.07226 5.6501 4.26758 5.74268 4.47504 5.74958C4.6825 5.75649 4.88355 5.67711 5.03033 5.53033L4.5 5ZM9.03033 1.53033C9.32322 1.23744 9.32322 0.762563 9.03033 0.46967C8.73744 0.176777 8.26256 0.176777 7.96967 0.46967L9.03033 1.53033ZM0.435567 1.49388L3.93557 5.49388L5.06443 4.50612L1.56443 0.506122L0.435567 1.49388ZM5.03033 5.53033L9.03033 1.53033L7.96967 0.46967L3.96967 4.46967L5.03033 5.53033Z" fill="#4F5E64"/>
</svg>
