<svg width="18" height="18" viewBox="0 0 18 18" fill="none" xmlns="http://www.w3.org/2000/svg">
<path d="M8.99628 12.5073V10.6045" stroke="#A0ABB8" stroke-width="1.15909" stroke-linecap="round" stroke-linejoin="round"/>
<path fill-rule="evenodd" clip-rule="evenodd" d="M13.6423 3.99769C14.9098 3.99769 15.9298 5.02519 15.9298 6.29269V8.87269C14.0848 9.95269 11.6473 10.6052 8.99232 10.6052C6.33732 10.6052 3.90732 9.95269 2.06232 8.87269V6.28519C2.06232 5.01769 3.08982 3.99769 4.35732 3.99769H13.6423Z" stroke="#A0ABB8" stroke-width="1.15909" stroke-linecap="round" stroke-linejoin="round"/>
<path d="M11.6213 3.99427V3.71977C11.6213 2.80477 10.8788 2.06227 9.96378 2.06227H8.02878C7.11378 2.06227 6.37128 2.80477 6.37128 3.71977V3.99427" stroke="#A0ABB8" stroke-width="1.15909" stroke-linecap="round" stroke-linejoin="round"/>
<path d="M2.08087 11.6125L2.22262 13.4942C2.31862 14.7625 3.37537 15.7427 4.64662 15.7427H13.3459C14.6171 15.7427 15.6739 14.7625 15.7699 13.4942L15.9116 11.6125" stroke="#A0ABB8" stroke-width="1.15909" stroke-linecap="round" stroke-linejoin="round"/>
</svg>
