<svg width="31" height="30" viewBox="0 0 31 30" fill="none" xmlns="http://www.w3.org/2000/svg">
<circle cx="15.4167" cy="14.9167" r="14.4194" stroke="#B4C0E0" stroke-width="0.994444"/>
<path d="M12.7614 8.94756C12.7612 9.3285 12.6097 9.69376 12.3401 9.96299C12.0706 10.2322 11.7052 10.3834 11.3243 10.3832C10.9434 10.383 10.5781 10.2315 10.3089 9.96198C10.0396 9.69248 9.88848 9.32706 9.88867 8.94612C9.88886 8.56518 10.0404 8.19992 10.3099 7.93068C10.5794 7.66145 10.9448 7.51031 11.3257 7.5105C11.7067 7.51069 12.0719 7.6622 12.3412 7.9317C12.6104 8.2012 12.7615 8.56662 12.7614 8.94756ZM12.8044 11.4468H9.93176V20.4383H12.8044V11.4468ZM17.3433 11.4468H14.485V20.4383H17.3145V15.7199C17.3145 13.0914 20.7402 12.8472 20.7402 15.7199V20.4383H23.577V14.7432C23.577 10.3121 18.5067 10.4773 17.3145 12.6533L17.3433 11.4468Z" fill="#66789C"/>
</svg>
