<svg width="31" height="30" viewBox="0 0 31 30" fill="none" xmlns="http://www.w3.org/2000/svg">
<circle cx="15.7507" cy="14.9167" r="14.4194" stroke="#B4C0E0" stroke-width="0.994444"/>
<path d="M24.9462 10.4845C24.3507 10.7479 23.7192 10.9209 23.0726 10.9978C23.7541 10.5901 24.2642 9.94863 24.5078 9.19277C23.8682 9.57342 23.167 9.84019 22.4361 9.9845C21.9451 9.45921 21.2944 9.11084 20.585 8.99354C19.8757 8.87624 19.1474 8.99658 18.5135 9.33587C17.8796 9.67515 17.3755 10.2144 17.0797 10.8697C16.7839 11.525 16.7128 12.2597 16.8776 12.9595C15.5805 12.8945 14.3116 12.5574 13.1532 11.9702C11.9948 11.3829 10.9729 10.5586 10.1537 9.5508C9.86379 10.0488 9.71142 10.6149 9.71224 11.1912C9.71224 12.3222 10.2879 13.3215 11.1631 13.9065C10.6452 13.8902 10.1386 13.7503 9.68572 13.4985V13.5391C9.68588 14.2924 9.94654 15.0224 10.4235 15.6054C10.9005 16.1885 11.5644 16.5886 12.3027 16.738C11.8219 16.8683 11.3178 16.8875 10.8285 16.7942C11.0366 17.4425 11.4423 18.0096 11.9888 18.4159C12.5353 18.8222 13.1952 19.0475 13.876 19.0601C13.1993 19.5916 12.4245 19.9845 11.5959 20.2163C10.7673 20.4481 9.90111 20.5143 9.04688 20.4111C10.5381 21.3701 12.2739 21.8793 14.0469 21.8776C20.0476 21.8776 23.3292 16.9065 23.3292 12.5953C23.3292 12.4549 23.3253 12.3129 23.3191 12.174C23.9578 11.7124 24.5091 11.1405 24.947 10.4853L24.9462 10.4845Z" fill="#66789C"/>
</svg>
