<svg width="188" height="36" viewBox="0 0 188 36" fill="none" xmlns="http://www.w3.org/2000/svg">
<path d="M0 10.3508L14.5 2V19.6126L0 27.2042V10.3508Z" fill="#91A9FF"/>
<path d="M28.9238 10.3508L14.4238 2V19.6126L28.9238 27.2042V10.3508Z" fill="#5E81FF"/>
<path d="M14.4249 19.6126L28.9249 27.2042L14.4249 34.7958L0.000847856 27.2042L14.4249 19.6126Z" fill="#3C65F5"/>
<path d="M38.624 27V25H39.312C39.824 25 40.2293 24.856 40.528 24.568C40.8373 24.2693 40.992 23.8747 40.992 23.384V15.08H43.184V23.304C43.184 24.04 43.024 24.6853 42.704 25.24C42.3947 25.7947 41.9467 26.2267 41.36 26.536C40.784 26.8453 40.1013 27 39.312 27H38.624ZM49.5133 27.192C48.6599 27.192 47.8813 26.9947 47.1773 26.6C46.4839 26.2053 45.9293 25.6667 45.5133 24.984C45.1079 24.3013 44.9053 23.5227 44.9053 22.648C44.9053 21.7733 45.1079 20.9947 45.5133 20.312C45.9293 19.6293 46.4839 19.0907 47.1773 18.696C47.8706 18.3013 48.6493 18.104 49.5133 18.104C50.3666 18.104 51.1399 18.3013 51.8333 18.696C52.5266 19.0907 53.0759 19.6293 53.4813 20.312C53.8973 20.984 54.1053 21.7627 54.1053 22.648C54.1053 23.5227 53.8973 24.3013 53.4813 24.984C53.0653 25.6667 52.5106 26.2053 51.8173 26.6C51.1239 26.9947 50.3559 27.192 49.5133 27.192ZM49.5133 25.272C49.9826 25.272 50.3933 25.16 50.7453 24.936C51.1079 24.712 51.3906 24.4027 51.5933 24.008C51.8066 23.6027 51.9133 23.1493 51.9133 22.648C51.9133 22.136 51.8066 21.688 51.5933 21.304C51.3906 20.9093 51.1079 20.6 50.7453 20.376C50.3933 20.1413 49.9826 20.024 49.5133 20.024C49.0333 20.024 48.6119 20.1413 48.2493 20.376C47.8866 20.6 47.5986 20.9093 47.3853 21.304C47.1826 21.688 47.0813 22.136 47.0813 22.648C47.0813 23.1493 47.1826 23.6027 47.3853 24.008C47.5986 24.4027 47.8866 24.712 48.2493 24.936C48.6119 25.16 49.0333 25.272 49.5133 25.272ZM60.4468 27.192C59.8174 27.192 59.2361 27.0693 58.7028 26.824C58.1801 26.568 57.7641 26.2053 57.4548 25.736L57.6628 25.32V27H55.6948V14.888H57.7908V20.024L57.4708 19.592C57.7694 19.1227 58.1748 18.76 58.6868 18.504C59.1988 18.2373 59.7908 18.104 60.4628 18.104C61.2841 18.104 62.0254 18.3067 62.6868 18.712C63.3481 19.1173 63.8708 19.6613 64.2548 20.344C64.6494 21.0267 64.8468 21.7947 64.8468 22.648C64.8468 23.4907 64.6548 24.2587 64.2708 24.952C63.8868 25.6453 63.3641 26.1947 62.7028 26.6C62.0414 26.9947 61.2894 27.192 60.4468 27.192ZM60.2068 25.272C60.6868 25.272 61.1134 25.16 61.4868 24.936C61.8601 24.712 62.1481 24.4027 62.3508 24.008C62.5641 23.6133 62.6708 23.16 62.6708 22.648C62.6708 22.136 62.5641 21.688 62.3508 21.304C62.1481 20.9093 61.8601 20.6 61.4868 20.376C61.1134 20.1413 60.6868 20.024 60.2068 20.024C59.7481 20.024 59.3321 20.136 58.9588 20.36C58.5961 20.584 58.3081 20.8987 58.0948 21.304C57.8921 21.6987 57.7908 22.1467 57.7908 22.648C57.7908 23.16 57.8921 23.6133 58.0948 24.008C58.3081 24.4027 58.5961 24.712 58.9588 24.936C59.3321 25.16 59.7481 25.272 60.2068 25.272ZM66.6208 27V15.08H71.6448C72.4341 15.08 73.1061 15.2187 73.6608 15.496C74.2261 15.7627 74.6581 16.1467 74.9568 16.648C75.2661 17.1387 75.4208 17.736 75.4208 18.44C75.4208 18.984 75.2714 19.496 74.9728 19.976C74.6848 20.4453 74.2208 20.8347 73.5808 21.144V20.136C74.1674 20.36 74.6314 20.6373 74.9728 20.968C75.3141 21.2987 75.5541 21.6667 75.6928 22.072C75.8314 22.4773 75.9008 22.904 75.9008 23.352C75.9008 24.4933 75.5221 25.3893 74.7648 26.04C74.0181 26.68 72.9781 27 71.6448 27H66.6208ZM68.7968 25.08H71.8688C72.4341 25.08 72.8821 24.9253 73.2128 24.616C73.5541 24.296 73.7248 23.8747 73.7248 23.352C73.7248 22.8293 73.5541 22.408 73.2128 22.088C72.8821 21.768 72.4341 21.608 71.8688 21.608H68.7968V25.08ZM68.7968 19.704H71.7568C72.2048 19.704 72.5621 19.576 72.8288 19.32C73.0954 19.0533 73.2288 18.712 73.2288 18.296C73.2288 17.88 73.0954 17.5493 72.8288 17.304C72.5621 17.0587 72.2048 16.936 71.7568 16.936H68.7968V19.704ZM81.7633 27.192C80.9099 27.192 80.1313 26.9947 79.4273 26.6C78.7339 26.2053 78.1793 25.6667 77.7633 24.984C77.3579 24.3013 77.1553 23.5227 77.1553 22.648C77.1553 21.7733 77.3579 20.9947 77.7633 20.312C78.1793 19.6293 78.7339 19.0907 79.4273 18.696C80.1206 18.3013 80.8993 18.104 81.7633 18.104C82.6166 18.104 83.3899 18.3013 84.0833 18.696C84.7766 19.0907 85.3259 19.6293 85.7313 20.312C86.1473 20.984 86.3553 21.7627 86.3553 22.648C86.3553 23.5227 86.1473 24.3013 85.7313 24.984C85.3153 25.6667 84.7606 26.2053 84.0673 26.6C83.3739 26.9947 82.6059 27.192 81.7633 27.192ZM81.7633 25.272C82.2326 25.272 82.6433 25.16 82.9953 24.936C83.3579 24.712 83.6406 24.4027 83.8433 24.008C84.0566 23.6027 84.1633 23.1493 84.1633 22.648C84.1633 22.136 84.0566 21.688 83.8433 21.304C83.6406 20.9093 83.3579 20.6 82.9953 20.376C82.6433 20.1413 82.2326 20.024 81.7633 20.024C81.2833 20.024 80.8619 20.1413 80.4993 20.376C80.1366 20.6 79.8486 20.9093 79.6353 21.304C79.4326 21.688 79.3313 22.136 79.3313 22.648C79.3313 23.1493 79.4326 23.6027 79.6353 24.008C79.8486 24.4027 80.1366 24.712 80.4993 24.936C80.8619 25.16 81.2833 25.272 81.7633 25.272ZM86.8483 27L89.8883 22.632L86.8323 18.296H89.2963L91.6803 21.816H90.5763L92.9603 18.296H95.4083L92.3683 22.632L95.3923 27H92.9443L90.5923 23.496H91.6643L89.3123 27H86.8483ZM105.174 27.192C104.321 27.192 103.531 27.0373 102.806 26.728C102.091 26.4187 101.462 25.9867 100.918 25.432C100.385 24.8773 99.9685 24.2267 99.6699 23.48C99.3712 22.7333 99.2219 21.9173 99.2219 21.032C99.2219 20.1467 99.3659 19.3307 99.6539 18.584C99.9525 17.8267 100.369 17.176 100.902 16.632C101.446 16.0773 102.081 15.6507 102.806 15.352C103.531 15.0427 104.321 14.888 105.174 14.888C106.027 14.888 106.79 15.032 107.462 15.32C108.145 15.608 108.721 15.992 109.19 16.472C109.659 16.9413 109.995 17.4587 110.198 18.024L108.246 18.936C108.022 18.3387 107.643 17.848 107.11 17.464C106.577 17.0693 105.931 16.872 105.174 16.872C104.427 16.872 103.766 17.048 103.19 17.4C102.625 17.752 102.182 18.2373 101.862 18.856C101.553 19.4747 101.398 20.2 101.398 21.032C101.398 21.864 101.553 22.5947 101.862 23.224C102.182 23.8427 102.625 24.328 103.19 24.68C103.766 25.032 104.427 25.208 105.174 25.208C105.931 25.208 106.577 25.016 107.11 24.632C107.643 24.2373 108.022 23.7413 108.246 23.144L110.198 24.056C109.995 24.6213 109.659 25.144 109.19 25.624C108.721 26.0933 108.145 26.472 107.462 26.76C106.79 27.048 106.027 27.192 105.174 27.192ZM115.888 27.192C115.035 27.192 114.256 26.9947 113.552 26.6C112.859 26.2053 112.304 25.6667 111.888 24.984C111.483 24.3013 111.28 23.5227 111.28 22.648C111.28 21.7733 111.483 20.9947 111.888 20.312C112.304 19.6293 112.859 19.0907 113.552 18.696C114.246 18.3013 115.024 18.104 115.888 18.104C116.742 18.104 117.515 18.3013 118.208 18.696C118.902 19.0907 119.451 19.6293 119.856 20.312C120.272 20.984 120.48 21.7627 120.48 22.648C120.48 23.5227 120.272 24.3013 119.856 24.984C119.44 25.6667 118.886 26.2053 118.192 26.6C117.499 26.9947 116.731 27.192 115.888 27.192ZM115.888 25.272C116.358 25.272 116.768 25.16 117.12 24.936C117.483 24.712 117.766 24.4027 117.968 24.008C118.182 23.6027 118.288 23.1493 118.288 22.648C118.288 22.136 118.182 21.688 117.968 21.304C117.766 20.9093 117.483 20.6 117.12 20.376C116.768 20.1413 116.358 20.024 115.888 20.024C115.408 20.024 114.987 20.1413 114.624 20.376C114.262 20.6 113.974 20.9093 113.76 21.304C113.558 21.688 113.456 22.136 113.456 22.648C113.456 23.1493 113.558 23.6027 113.76 24.008C113.974 24.4027 114.262 24.712 114.624 24.936C114.987 25.16 115.408 25.272 115.888 25.272ZM122.07 30.2V18.296H124.038V20.024L123.846 19.592C124.144 19.1227 124.55 18.76 125.062 18.504C125.574 18.2373 126.166 18.104 126.838 18.104C127.659 18.104 128.4 18.3067 129.062 18.712C129.723 19.1173 130.246 19.6613 130.63 20.344C131.024 21.0267 131.222 21.7947 131.222 22.648C131.222 23.4907 131.03 24.2587 130.646 24.952C130.262 25.6453 129.739 26.1947 129.078 26.6C128.416 26.9947 127.664 27.192 126.822 27.192C126.192 27.192 125.611 27.0693 125.078 26.824C124.555 26.568 124.139 26.2053 123.83 25.736L124.166 25.32V30.2H122.07ZM126.582 25.272C127.062 25.272 127.488 25.16 127.862 24.936C128.235 24.712 128.523 24.4027 128.726 24.008C128.939 23.6133 129.046 23.16 129.046 22.648C129.046 22.136 128.939 21.688 128.726 21.304C128.523 20.9093 128.235 20.6 127.862 20.376C127.488 20.1413 127.062 20.024 126.582 20.024C126.123 20.024 125.707 20.136 125.334 20.36C124.971 20.584 124.683 20.8987 124.47 21.304C124.267 21.6987 124.166 22.1467 124.166 22.648C124.166 23.16 124.267 23.6133 124.47 24.008C124.683 24.4027 124.971 24.712 125.334 24.936C125.707 25.16 126.123 25.272 126.582 25.272ZM137.076 27.192C136.222 27.192 135.444 26.9947 134.74 26.6C134.046 26.2053 133.492 25.6667 133.076 24.984C132.67 24.3013 132.468 23.5227 132.468 22.648C132.468 21.7733 132.67 20.9947 133.076 20.312C133.492 19.6293 134.046 19.0907 134.74 18.696C135.433 18.3013 136.212 18.104 137.076 18.104C137.929 18.104 138.702 18.3013 139.396 18.696C140.089 19.0907 140.638 19.6293 141.044 20.312C141.46 20.984 141.668 21.7627 141.668 22.648C141.668 23.5227 141.46 24.3013 141.044 24.984C140.628 25.6667 140.073 26.2053 139.38 26.6C138.686 26.9947 137.918 27.192 137.076 27.192ZM137.076 25.272C137.545 25.272 137.956 25.16 138.308 24.936C138.67 24.712 138.953 24.4027 139.156 24.008C139.369 23.6027 139.476 23.1493 139.476 22.648C139.476 22.136 139.369 21.688 139.156 21.304C138.953 20.9093 138.67 20.6 138.308 20.376C137.956 20.1413 137.545 20.024 137.076 20.024C136.596 20.024 136.174 20.1413 135.812 20.376C135.449 20.6 135.161 20.9093 134.948 21.304C134.745 21.688 134.644 22.136 134.644 22.648C134.644 23.1493 134.745 23.6027 134.948 24.008C135.161 24.4027 135.449 24.712 135.812 24.936C136.174 25.16 136.596 25.272 137.076 25.272ZM143.257 27V18.296H145.225V20.232L145.065 19.944C145.268 19.2933 145.583 18.84 146.009 18.584C146.447 18.328 146.969 18.2 147.577 18.2H148.089V20.056H147.337C146.74 20.056 146.26 20.2427 145.897 20.616C145.535 20.9787 145.353 21.4907 145.353 22.152V27H143.257ZM151.882 27.192C151.274 27.192 150.746 27.0907 150.298 26.888C149.85 26.6853 149.503 26.3973 149.258 26.024C149.012 25.64 148.89 25.1973 148.89 24.696C148.89 24.216 148.996 23.7893 149.21 23.416C149.423 23.032 149.754 22.712 150.202 22.456C150.65 22.2 151.215 22.0187 151.898 21.912L154.746 21.448V23.048L152.298 23.464C151.882 23.5387 151.572 23.672 151.37 23.864C151.167 24.056 151.066 24.3067 151.066 24.616C151.066 24.9147 151.178 25.1547 151.402 25.336C151.636 25.5067 151.924 25.592 152.266 25.592C152.703 25.592 153.087 25.5013 153.418 25.32C153.759 25.128 154.02 24.8667 154.202 24.536C154.394 24.2053 154.49 23.8427 154.49 23.448V21.208C154.49 20.8347 154.34 20.5253 154.042 20.28C153.754 20.024 153.37 19.896 152.89 19.896C152.442 19.896 152.042 20.0187 151.69 20.264C151.348 20.4987 151.098 20.8133 150.938 21.208L149.226 20.376C149.396 19.9173 149.663 19.5227 150.026 19.192C150.399 18.8507 150.836 18.584 151.338 18.392C151.839 18.2 152.383 18.104 152.97 18.104C153.684 18.104 154.314 18.2373 154.858 18.504C155.402 18.76 155.823 19.1227 156.122 19.592C156.431 20.0507 156.586 20.5893 156.586 21.208V27H154.602V25.512L155.05 25.48C154.826 25.8533 154.559 26.168 154.25 26.424C153.94 26.6693 153.588 26.8613 153.194 27C152.799 27.128 152.362 27.192 151.882 27.192ZM162.335 27.096C161.353 27.096 160.591 26.8293 160.047 26.296C159.513 25.752 159.247 24.9893 159.247 24.008V20.168H157.743V18.296H157.903C158.329 18.296 158.66 18.184 158.895 17.96C159.129 17.736 159.247 17.4107 159.247 16.984V16.312H161.343V18.296H163.343V20.168H161.343V23.896C161.343 24.184 161.391 24.4293 161.487 24.632C161.593 24.8347 161.753 24.9893 161.967 25.096C162.191 25.2027 162.473 25.256 162.815 25.256C162.889 25.256 162.975 25.2507 163.071 25.24C163.177 25.2293 163.279 25.2187 163.375 25.208V27C163.225 27.0213 163.055 27.0427 162.863 27.064C162.671 27.0853 162.495 27.096 162.335 27.096ZM164.976 27V18.296H167.072V27H164.976ZM164.976 17.32V15.08H167.072V17.32H164.976ZM173.263 27.192C172.41 27.192 171.631 26.9947 170.927 26.6C170.234 26.2053 169.679 25.6667 169.263 24.984C168.858 24.3013 168.655 23.5227 168.655 22.648C168.655 21.7733 168.858 20.9947 169.263 20.312C169.679 19.6293 170.234 19.0907 170.927 18.696C171.621 18.3013 172.399 18.104 173.263 18.104C174.117 18.104 174.89 18.3013 175.583 18.696C176.277 19.0907 176.826 19.6293 177.231 20.312C177.647 20.984 177.855 21.7627 177.855 22.648C177.855 23.5227 177.647 24.3013 177.231 24.984C176.815 25.6667 176.261 26.2053 175.567 26.6C174.874 26.9947 174.106 27.192 173.263 27.192ZM173.263 25.272C173.733 25.272 174.143 25.16 174.495 24.936C174.858 24.712 175.141 24.4027 175.343 24.008C175.557 23.6027 175.663 23.1493 175.663 22.648C175.663 22.136 175.557 21.688 175.343 21.304C175.141 20.9093 174.858 20.6 174.495 20.376C174.143 20.1413 173.733 20.024 173.263 20.024C172.783 20.024 172.362 20.1413 171.999 20.376C171.637 20.6 171.349 20.9093 171.135 21.304C170.933 21.688 170.831 22.136 170.831 22.648C170.831 23.1493 170.933 23.6027 171.135 24.008C171.349 24.4027 171.637 24.712 171.999 24.936C172.362 25.16 172.783 25.272 173.263 25.272ZM179.445 27V18.296H181.413V20.008L181.253 19.704C181.455 19.1813 181.786 18.7867 182.245 18.52C182.714 18.2427 183.258 18.104 183.877 18.104C184.517 18.104 185.082 18.2427 185.573 18.52C186.074 18.7973 186.463 19.1867 186.741 19.688C187.018 20.1787 187.157 20.7493 187.157 21.4V27H185.061V21.896C185.061 21.512 184.986 21.1813 184.837 20.904C184.687 20.6267 184.479 20.4133 184.213 20.264C183.957 20.104 183.653 20.024 183.301 20.024C182.959 20.024 182.655 20.104 182.389 20.264C182.122 20.4133 181.914 20.6267 181.765 20.904C181.615 21.1813 181.541 21.512 181.541 21.896V27H179.445Z" fill="#05264E"/>
</svg>
