<svg width="232" height="201" viewBox="0 0 232 201" fill="none" xmlns="http://www.w3.org/2000/svg">
<g clip-path="url(#clip0_41_4607)">
<path d="M183.203 16.5985C182.942 16.4245 182.678 16.2595 182.418 16.0914C174.881 11.2654 166.802 7.34485 158.35 4.41067L156.39 31.4808H143.964V0.459069C143.182 0.297045 142.394 0.144022 141.606 0V31.4808H126.84C118.711 31.4808 110.916 28.2478 105.168 22.4932C99.4198 16.7385 96.1907 8.93348 96.1907 0.795153V0.795123C95.3995 0.966149 94.6143 1.14918 93.8292 1.34421V31.4808H81.8026L79.9355 5.66786C71.2489 9.00326 63.0021 13.3895 55.3788 18.7288C55.247 18.8189 55.1151 18.9119 54.9862 19.0019C54.3239 19.467 53.6706 19.941 53.0203 20.4211V123.694H88.4647L87.8383 115.007L84.3919 67.3152H153.797L150.351 115.007L149.724 123.694H184.776V17.6427C184.255 17.2886 183.73 16.9406 183.203 16.5985ZM93.8292 59.439H83.8225L81.9734 33.8451H93.8292V59.439ZM141.606 59.439H124.799V58.9319C124.799 58.6882 124.751 58.4468 124.658 58.2216C124.565 57.9964 124.428 57.7919 124.256 57.6197C124.083 57.4474 123.879 57.3109 123.654 57.2179C123.429 57.1249 123.188 57.0772 122.944 57.0776H115.638C115.394 57.0775 115.154 57.1254 114.929 57.2186C114.704 57.3118 114.5 57.4483 114.328 57.6205C114.156 57.7927 114.019 57.9972 113.926 58.2222C113.833 58.4472 113.785 58.6884 113.786 58.9319V59.439H96.1907V33.8451H141.606V59.439ZM143.964 59.439V33.8451H156.219L154.37 59.439H143.964Z" fill="#F2F2F2"/>
<path d="M221.696 187.693L221.93 182.42C224.372 181.113 227.096 180.422 229.865 180.409C226.054 183.528 226.531 189.541 223.947 193.736C223.131 195.039 222.033 196.14 220.734 196.96C219.435 197.779 217.968 198.296 216.443 198.471L213.254 200.426C212.816 197.983 212.913 195.475 213.537 193.073C214.16 190.671 215.297 188.434 216.868 186.514C217.76 185.446 218.782 184.495 219.912 183.683C220.676 185.699 221.696 187.693 221.696 187.693Z" fill="#F2F2F2"/>
<path d="M50.5875 181.914L42.8913 179.581C41.882 175.476 41.8889 171.186 42.9115 167.083C46.0808 173.897 55.1365 175.457 60.3555 180.86C61.9704 182.558 63.183 184.598 63.9035 186.828C64.624 189.059 64.8339 191.423 64.5176 193.746L66.2022 199.201C62.432 198.929 58.7655 197.841 55.4556 196.013C52.1456 194.186 49.2707 191.661 47.029 188.614C45.7883 186.892 44.7691 185.021 43.9956 183.044C47.2597 182.673 50.5875 181.914 50.5875 181.914Z" fill="#F2F2F2"/>
<path d="M215.707 199.563C215.706 199.723 215.643 199.876 215.531 199.989C215.475 200.045 215.409 200.089 215.337 200.118C215.264 200.148 215.186 200.164 215.108 200.163H212.699C212.62 200.164 212.542 200.148 212.469 200.118C212.396 200.088 212.33 200.044 212.274 199.988C212.218 199.932 212.174 199.866 212.144 199.793C212.114 199.72 212.099 199.642 212.099 199.563V126.61C212.099 125.002 211.56 123.697 210.897 123.694H30.3367C29.6714 123.697 29.1349 125.002 29.1319 126.61V199.116C29.1314 199.265 29.0757 199.409 28.9755 199.519C28.8752 199.63 28.7377 199.699 28.5895 199.713C28.104 199.761 27.6185 199.803 27.136 199.842C27.124 199.842 27.112 199.845 27.1 199.845C26.8363 199.869 26.5726 199.887 26.3088 199.908H26.3058C26.168 199.659 26.0361 199.404 25.9013 199.149C25.858 199.063 25.8355 198.967 25.8353 198.87V122.827C25.8353 122.383 25.8533 121.935 25.8833 121.494C25.926 120.889 26.0011 120.286 26.108 119.688C26.6145 116.901 27.7593 115.013 29.06 115.007H212.171C212.361 115.009 212.548 115.048 212.722 115.124C212.978 115.238 213.209 115.4 213.403 115.601C213.666 115.875 213.89 116.183 214.071 116.517C214.712 117.648 215.171 119.334 215.333 121.296C215.333 121.314 215.336 121.332 215.336 121.35C215.378 121.836 215.399 122.332 215.396 122.827L215.438 129.257L215.465 133.091L215.546 145.123L215.576 149.396L215.707 199.563Z" fill="#E6E6E6"/>
<path d="M231.643 200.908L149.003 201C148.909 201 148.818 200.962 148.752 200.895C148.685 200.828 148.648 200.737 148.648 200.643C148.648 200.548 148.685 200.457 148.752 200.39C148.818 200.323 148.909 200.286 149.003 200.285L231.643 200.193C231.738 200.194 231.828 200.231 231.895 200.298C231.961 200.365 231.999 200.456 231.999 200.551C231.999 200.645 231.961 200.736 231.895 200.803C231.828 200.87 231.738 200.907 231.643 200.908Z" fill="#CACACA"/>
<path d="M129.067 93.6926H114.431C114.224 93.6929 114.025 93.7755 113.879 93.9223C113.733 94.0691 113.651 94.268 113.651 94.4752V117.624H129.849V94.4752C129.849 94.3725 129.829 94.2706 129.79 94.1757C129.75 94.0807 129.693 93.9944 129.62 93.9217C129.548 93.849 129.461 93.7913 129.366 93.752C129.272 93.7127 129.17 93.6925 129.067 93.6926ZM121.798 106.845C121.341 106.843 120.902 106.66 120.579 106.336C120.255 106.012 120.072 105.573 120.07 105.115V102.445C120.07 101.986 120.252 101.546 120.576 101.221C120.9 100.897 121.34 100.715 121.798 100.715C122.257 100.715 122.696 100.897 123.02 101.221C123.345 101.546 123.527 101.986 123.527 102.445V105.115C123.524 105.573 123.342 106.012 123.018 106.336C122.694 106.66 122.256 106.843 121.798 106.845V106.845Z" fill="#184274"/>
<path d="M153.304 57.5667H90.7391C90.2015 57.5676 89.6863 57.7817 89.3062 58.1623C88.9261 58.5428 88.7122 59.0587 88.7113 59.5969V101.866C88.7118 102.404 88.9256 102.92 89.3058 103.301C89.686 103.681 90.2014 103.895 90.7391 103.896H153.304C153.841 103.895 154.357 103.681 154.737 103.301C155.117 102.92 155.331 102.404 155.332 101.866V59.5969C155.331 59.0587 155.117 58.5428 154.737 58.1623C154.357 57.7817 153.841 57.5676 153.304 57.5667V57.5667Z" fill="#4F5E64"/>
<path d="M152.78 59.0327H91.2607C90.9729 59.0333 90.6971 59.1482 90.4938 59.3522C90.2905 59.5561 90.1763 59.8325 90.1763 60.1206V101.342C90.1768 101.63 90.2912 101.906 90.4944 102.109C90.6977 102.313 90.9732 102.427 91.2607 102.428H152.78C153.068 102.427 153.343 102.313 153.547 102.109C153.75 101.906 153.864 101.63 153.865 101.342V60.1206C153.865 59.8325 153.751 59.5561 153.547 59.3522C153.344 59.1482 153.068 59.0333 152.78 59.0327V59.0327Z" fill="white"/>
<path d="M113.601 116.883V119.117C113.601 119.232 113.647 119.343 113.729 119.425C113.811 119.507 113.921 119.553 114.037 119.553H129.463C129.579 119.553 129.689 119.507 129.771 119.425C129.853 119.343 129.899 119.232 129.899 119.117V116.883H113.601Z" fill="#4F5E64"/>
<path d="M140.799 120.33H104.198C104.097 120.33 103.998 120.308 103.908 120.265C103.818 120.222 103.738 120.159 103.675 120.081C103.612 120.003 103.567 119.912 103.543 119.815C103.52 119.717 103.518 119.616 103.539 119.518L104.107 116.817C104.139 116.666 104.222 116.53 104.342 116.433C104.462 116.336 104.611 116.282 104.765 116.282H140.231C140.385 116.282 140.534 116.336 140.654 116.433C140.774 116.53 140.857 116.666 140.889 116.817L141.457 119.518C141.478 119.616 141.476 119.717 141.453 119.815C141.429 119.912 141.384 120.003 141.321 120.081C141.258 120.159 141.179 120.222 141.088 120.265C140.998 120.308 140.899 120.33 140.799 120.33V120.33Z" fill="#184274"/>
<path d="M106.006 116.768H105.172C105.091 116.768 105.025 116.834 105.025 116.915V117.299C105.025 117.38 105.091 117.445 105.172 117.445H106.006C106.087 117.445 106.153 117.38 106.153 117.299V116.915C106.153 116.834 106.087 116.768 106.006 116.768Z" fill="#4F5E64"/>
<path d="M108.261 116.768H107.426C107.345 116.768 107.28 116.834 107.28 116.915V117.299C107.28 117.38 107.345 117.445 107.426 117.445H108.261C108.342 117.445 108.407 117.38 108.407 117.299V116.915C108.407 116.834 108.342 116.768 108.261 116.768Z" fill="#4F5E64"/>
<path d="M110.515 116.768H109.681C109.6 116.768 109.534 116.834 109.534 116.915V117.299C109.534 117.38 109.6 117.445 109.681 117.445H110.515C110.596 117.445 110.662 117.38 110.662 117.299V116.915C110.662 116.834 110.596 116.768 110.515 116.768Z" fill="#4F5E64"/>
<path d="M112.77 116.768H111.935C111.854 116.768 111.789 116.834 111.789 116.915V117.299C111.789 117.38 111.854 117.445 111.935 117.445H112.77C112.851 117.445 112.916 117.38 112.916 117.299V116.915C112.916 116.834 112.851 116.768 112.77 116.768Z" fill="#4F5E64"/>
<path d="M115.024 116.768H114.19C114.109 116.768 114.043 116.834 114.043 116.915V117.299C114.043 117.38 114.109 117.445 114.19 117.445H115.024C115.105 117.445 115.171 117.38 115.171 117.299V116.915C115.171 116.834 115.105 116.768 115.024 116.768Z" fill="#4F5E64"/>
<path d="M117.279 116.768H116.444C116.364 116.768 116.298 116.834 116.298 116.915V117.299C116.298 117.38 116.364 117.445 116.444 117.445H117.279C117.36 117.445 117.425 117.38 117.425 117.299V116.915C117.425 116.834 117.36 116.768 117.279 116.768Z" fill="#4F5E64"/>
<path d="M119.534 116.768H118.699C118.618 116.768 118.553 116.834 118.553 116.915V117.299C118.553 117.38 118.618 117.445 118.699 117.445H119.534C119.614 117.445 119.68 117.38 119.68 117.299V116.915C119.68 116.834 119.614 116.768 119.534 116.768Z" fill="#4F5E64"/>
<path d="M121.788 116.768H120.953C120.873 116.768 120.807 116.834 120.807 116.915V117.299C120.807 117.38 120.873 117.445 120.953 117.445H121.788C121.869 117.445 121.934 117.38 121.934 117.299V116.915C121.934 116.834 121.869 116.768 121.788 116.768Z" fill="#4F5E64"/>
<path d="M124.043 116.768H123.208C123.127 116.768 123.062 116.834 123.062 116.915V117.299C123.062 117.38 123.127 117.445 123.208 117.445H124.043C124.123 117.445 124.189 117.38 124.189 117.299V116.915C124.189 116.834 124.123 116.768 124.043 116.768Z" fill="#4F5E64"/>
<path d="M126.297 116.768H125.462C125.382 116.768 125.316 116.834 125.316 116.915V117.299C125.316 117.38 125.382 117.445 125.462 117.445H126.297C126.378 117.445 126.443 117.38 126.443 117.299V116.915C126.443 116.834 126.378 116.768 126.297 116.768Z" fill="#4F5E64"/>
<path d="M128.552 116.768H127.717C127.636 116.768 127.571 116.834 127.571 116.915V117.299C127.571 117.38 127.636 117.445 127.717 117.445H128.552C128.633 117.445 128.698 117.38 128.698 117.299V116.915C128.698 116.834 128.633 116.768 128.552 116.768Z" fill="#4F5E64"/>
<path d="M130.806 116.768H129.972C129.891 116.768 129.825 116.834 129.825 116.915V117.299C129.825 117.38 129.891 117.445 129.972 117.445H130.806C130.887 117.445 130.953 117.38 130.953 117.299V116.915C130.953 116.834 130.887 116.768 130.806 116.768Z" fill="#4F5E64"/>
<path d="M133.061 116.768H132.226C132.145 116.768 132.08 116.834 132.08 116.915V117.299C132.08 117.38 132.145 117.445 132.226 117.445H133.061C133.142 117.445 133.207 117.38 133.207 117.299V116.915C133.207 116.834 133.142 116.768 133.061 116.768Z" fill="#4F5E64"/>
<path d="M135.315 116.768H134.481C134.4 116.768 134.334 116.834 134.334 116.915V117.299C134.334 117.38 134.4 117.445 134.481 117.445H135.315C135.396 117.445 135.462 117.38 135.462 117.299V116.915C135.462 116.834 135.396 116.768 135.315 116.768Z" fill="#4F5E64"/>
<path d="M137.57 116.768H136.735C136.654 116.768 136.589 116.834 136.589 116.915V117.299C136.589 117.38 136.654 117.445 136.735 117.445H137.57C137.651 117.445 137.716 117.38 137.716 117.299V116.915C137.716 116.834 137.651 116.768 137.57 116.768Z" fill="#4F5E64"/>
<path d="M139.824 116.768H138.99C138.909 116.768 138.844 116.834 138.844 116.915V117.299C138.844 117.38 138.909 117.445 138.99 117.445H139.824C139.905 117.445 139.971 117.38 139.971 117.299V116.915C139.971 116.834 139.905 116.768 139.824 116.768Z" fill="#4F5E64"/>
<path d="M105.98 117.897H105.145C105.064 117.897 104.999 117.962 104.999 118.043V118.427C104.999 118.508 105.064 118.574 105.145 118.574H105.98C106.06 118.574 106.126 118.508 106.126 118.427V118.043C106.126 117.962 106.06 117.897 105.98 117.897Z" fill="#4F5E64"/>
<path d="M108.234 117.897H107.399C107.319 117.897 107.253 117.962 107.253 118.043V118.427C107.253 118.508 107.319 118.574 107.399 118.574H108.234C108.315 118.574 108.38 118.508 108.38 118.427V118.043C108.38 117.962 108.315 117.897 108.234 117.897Z" fill="#4F5E64"/>
<path d="M110.489 117.897H109.654C109.573 117.897 109.508 117.962 109.508 118.043V118.427C109.508 118.508 109.573 118.574 109.654 118.574H110.489C110.57 118.574 110.635 118.508 110.635 118.427V118.043C110.635 117.962 110.57 117.897 110.489 117.897Z" fill="#4F5E64"/>
<path d="M112.743 117.897H111.909C111.828 117.897 111.762 117.962 111.762 118.043V118.427C111.762 118.508 111.828 118.574 111.909 118.574H112.743C112.824 118.574 112.89 118.508 112.89 118.427V118.043C112.89 117.962 112.824 117.897 112.743 117.897Z" fill="#4F5E64"/>
<path d="M114.998 117.897H114.163C114.082 117.897 114.017 117.962 114.017 118.043V118.427C114.017 118.508 114.082 118.574 114.163 118.574H114.998C115.079 118.574 115.144 118.508 115.144 118.427V118.043C115.144 117.962 115.079 117.897 114.998 117.897Z" fill="#4F5E64"/>
<path d="M117.252 117.897H116.418C116.337 117.897 116.271 117.962 116.271 118.043V118.427C116.271 118.508 116.337 118.574 116.418 118.574H117.252C117.333 118.574 117.399 118.508 117.399 118.427V118.043C117.399 117.962 117.333 117.897 117.252 117.897Z" fill="#4F5E64"/>
<path d="M119.507 117.897H118.672C118.592 117.897 118.526 117.962 118.526 118.043V118.427C118.526 118.508 118.592 118.574 118.672 118.574H119.507C119.588 118.574 119.653 118.508 119.653 118.427V118.043C119.653 117.962 119.588 117.897 119.507 117.897Z" fill="#4F5E64"/>
<path d="M121.761 117.897H120.927C120.846 117.897 120.781 117.962 120.781 118.043V118.427C120.781 118.508 120.846 118.574 120.927 118.574H121.761C121.842 118.574 121.908 118.508 121.908 118.427V118.043C121.908 117.962 121.842 117.897 121.761 117.897Z" fill="#4F5E64"/>
<path d="M124.016 117.897H123.181C123.101 117.897 123.035 117.962 123.035 118.043V118.427C123.035 118.508 123.101 118.574 123.181 118.574H124.016C124.097 118.574 124.162 118.508 124.162 118.427V118.043C124.162 117.962 124.097 117.897 124.016 117.897Z" fill="#4F5E64"/>
<path d="M126.271 117.897H125.436C125.355 117.897 125.29 117.962 125.29 118.043V118.427C125.29 118.508 125.355 118.574 125.436 118.574H126.271C126.351 118.574 126.417 118.508 126.417 118.427V118.043C126.417 117.962 126.351 117.897 126.271 117.897Z" fill="#4F5E64"/>
<path d="M128.525 117.897H127.69C127.61 117.897 127.544 117.962 127.544 118.043V118.427C127.544 118.508 127.61 118.574 127.69 118.574H128.525C128.606 118.574 128.671 118.508 128.671 118.427V118.043C128.671 117.962 128.606 117.897 128.525 117.897Z" fill="#4F5E64"/>
<path d="M130.78 117.897H129.945C129.864 117.897 129.799 117.962 129.799 118.043V118.427C129.799 118.508 129.864 118.574 129.945 118.574H130.78C130.86 118.574 130.926 118.508 130.926 118.427V118.043C130.926 117.962 130.86 117.897 130.78 117.897Z" fill="#4F5E64"/>
<path d="M133.034 117.897H132.2C132.119 117.897 132.053 117.962 132.053 118.043V118.427C132.053 118.508 132.119 118.574 132.2 118.574H133.034C133.115 118.574 133.18 118.508 133.18 118.427V118.043C133.18 117.962 133.115 117.897 133.034 117.897Z" fill="#4F5E64"/>
<path d="M135.289 117.897H134.454C134.373 117.897 134.308 117.962 134.308 118.043V118.427C134.308 118.508 134.373 118.574 134.454 118.574H135.289C135.37 118.574 135.435 118.508 135.435 118.427V118.043C135.435 117.962 135.37 117.897 135.289 117.897Z" fill="#4F5E64"/>
<path d="M137.543 117.897H136.709C136.628 117.897 136.562 117.962 136.562 118.043V118.427C136.562 118.508 136.628 118.574 136.709 118.574H137.543C137.624 118.574 137.69 118.508 137.69 118.427V118.043C137.69 117.962 137.624 117.897 137.543 117.897Z" fill="#4F5E64"/>
<path d="M139.798 117.897H138.963C138.882 117.897 138.817 117.962 138.817 118.043V118.427C138.817 118.508 138.882 118.574 138.963 118.574H139.798C139.879 118.574 139.944 118.508 139.944 118.427V118.043C139.944 117.962 139.879 117.897 139.798 117.897Z" fill="#4F5E64"/>
<path d="M124.692 119.251H115.967C115.886 119.251 115.821 119.317 115.821 119.397V119.782C115.821 119.863 115.886 119.928 115.967 119.928H124.692C124.773 119.928 124.839 119.863 124.839 119.782V119.397C124.839 119.317 124.773 119.251 124.692 119.251Z" fill="#4F5E64"/>
<path d="M149.689 64.7124H92.1252C92.0653 64.7112 92.0083 64.6865 91.9664 64.6436C91.9245 64.6008 91.901 64.5432 91.901 64.4832C91.901 64.4233 91.9245 64.3657 91.9664 64.3228C92.0083 64.28 92.0653 64.2553 92.1252 64.2541H149.689C149.749 64.2553 149.806 64.28 149.848 64.3228C149.89 64.3657 149.913 64.4233 149.913 64.4832C149.913 64.5432 149.89 64.6008 149.848 64.6436C149.806 64.6865 149.749 64.7112 149.689 64.7124V64.7124Z" fill="#CACACA"/>
<path d="M96.0437 63.0839C96.7846 63.0839 97.3853 62.4691 97.3853 61.7108C97.3853 60.9525 96.7846 60.3377 96.0437 60.3377C95.3028 60.3377 94.7021 60.9525 94.7021 61.7108C94.7021 62.4691 95.3028 63.0839 96.0437 63.0839Z" fill="#4F5E64"/>
<path d="M100.678 63.0839C101.419 63.0839 102.02 62.4691 102.02 61.7108C102.02 60.9525 101.419 60.3377 100.678 60.3377C99.9372 60.3377 99.3365 60.9525 99.3365 61.7108C99.3365 62.4691 99.9372 63.0839 100.678 63.0839Z" fill="#4F5E64"/>
<path d="M105.312 63.0839C106.053 63.0839 106.654 62.4691 106.654 61.7108C106.654 60.9525 106.053 60.3377 105.312 60.3377C104.572 60.3377 103.971 60.9525 103.971 61.7108C103.971 62.4691 104.572 63.0839 105.312 63.0839Z" fill="#4F5E64"/>
<path d="M146.899 60.6781H143.607C143.541 60.6794 143.479 60.7062 143.434 60.7529C143.388 60.7995 143.362 60.8623 143.362 60.9276C143.362 60.993 143.388 61.0557 143.434 61.1024C143.479 61.149 143.541 61.1759 143.607 61.1772H146.899C146.964 61.1759 147.026 61.149 147.072 61.1024C147.117 61.0557 147.143 60.993 147.143 60.9276C147.143 60.8623 147.117 60.7995 147.072 60.7529C147.026 60.7062 146.964 60.6794 146.899 60.6781V60.6781Z" fill="#4F5E64"/>
<path d="M146.899 61.6148H143.607C143.541 61.6161 143.479 61.643 143.434 61.6897C143.388 61.7363 143.362 61.7991 143.362 61.8644C143.362 61.9297 143.388 61.9925 143.434 62.0391C143.479 62.0858 143.541 62.1127 143.607 62.114H146.899C146.964 62.1127 147.026 62.0858 147.072 62.0391C147.117 61.9925 147.143 61.9297 147.143 61.8644C147.143 61.7991 147.117 61.7363 147.072 61.6897C147.026 61.643 146.964 61.6161 146.899 61.6148V61.6148Z" fill="#4F5E64"/>
<path d="M146.899 62.5504H143.607C143.541 62.5517 143.479 62.5786 143.434 62.6252C143.388 62.6719 143.362 62.7346 143.362 62.8C143.362 62.8653 143.388 62.928 143.434 62.9747C143.479 63.0214 143.541 63.0482 143.607 63.0495H146.899C146.964 63.0482 147.026 63.0214 147.072 62.9747C147.117 62.928 147.143 62.8653 147.143 62.8C147.143 62.7346 147.117 62.6719 147.072 62.6252C147.026 62.5786 146.964 62.5517 146.899 62.5504V62.5504Z" fill="#4F5E64"/>
<path d="M125.505 78.1017H118.312C117.772 78.1017 117.334 78.5402 117.334 79.0811V79.0811C117.334 79.622 117.772 80.0605 118.312 80.0605H125.505C126.046 80.0605 126.484 79.622 126.484 79.0811V79.0811C126.484 78.5402 126.046 78.1017 125.505 78.1017Z" fill="#3C65F5"/>
<path d="M130.152 82.0193H113.666C113.126 82.0193 112.688 82.4578 112.688 82.9987V82.9987C112.688 83.5396 113.126 83.9781 113.666 83.9781H130.152C130.692 83.9781 131.13 83.5396 131.13 82.9987C131.13 82.4578 130.692 82.0193 130.152 82.0193Z" fill="#E6E6E6"/>
<path d="M130.152 85.9369H113.666C113.126 85.9369 112.688 86.3754 112.688 86.9163C112.688 87.4572 113.126 87.8957 113.666 87.8957H130.152C130.692 87.8957 131.13 87.4572 131.13 86.9163C131.13 86.3754 130.692 85.9369 130.152 85.9369Z" fill="#E6E6E6"/>
<path d="M92.6873 123.277H74.7059C74.07 123.277 73.4602 123.53 73.0106 123.98C72.5609 124.43 72.3083 125.04 72.3083 125.677C72.3083 126.314 72.5609 126.924 73.0106 127.374C73.4602 127.824 74.07 128.077 74.7059 128.077H81.2991V146.68H86.0941V128.077H92.6873C93.3232 128.077 93.933 127.824 94.3826 127.374C94.8322 126.924 95.0849 126.314 95.0849 125.677C95.0849 125.04 94.8322 124.43 94.3826 123.98C93.933 123.53 93.3232 123.277 92.6873 123.277Z" fill="#4F5E64"/>
<path d="M104.555 156.983H56.4602C51.7976 156.966 47.2968 155.27 43.7798 152.205C40.2629 149.14 37.9647 144.911 37.305 140.29L35.6025 134.02C32.0788 121.028 26.7115 108.609 19.6646 97.1434C16.4437 91.9065 14.7859 86.8372 18.5513 81.9566C18.5834 81.915 18.6149 81.874 18.6459 81.8336C21.6659 77.8982 36.6976 77.0462 41.5978 76.8805C41.7914 76.8739 41.9858 76.8707 42.1808 76.8707H72.0956C72.2908 76.8707 72.4851 76.874 72.6785 76.8805C75.3201 76.9576 77.8916 77.7493 80.1202 79.1714C82.3487 80.5935 84.1512 82.5931 85.3363 84.958C86.6009 87.3725 87.189 90.0847 87.0383 92.8069C86.8876 95.529 86.0037 98.1595 84.4804 100.419C73.9722 116.223 70.7549 126.132 74.0487 132.55C77.2348 138.757 87.0014 141.93 104.785 142.537C109.564 142.7 111.757 146.425 111.772 149.818C111.787 153.123 109.678 156.772 105.013 156.973C104.862 156.98 104.709 156.983 104.555 156.983Z" fill="#4F5E64"/>
<path d="M64.6304 199.739H82.6119C83.2477 199.739 83.8576 199.486 84.3072 199.036C84.7568 198.586 85.0094 197.976 85.0094 197.339C85.0094 196.702 84.7568 196.092 84.3072 195.642C83.8576 195.191 83.2477 194.939 82.6119 194.939H76.0187V154.432H71.2236V194.939H64.6304C63.9946 194.939 63.3848 195.191 62.9351 195.642C62.4855 196.092 62.2329 196.702 62.2329 197.339C62.2329 197.976 62.4855 198.586 62.9351 199.036C63.3848 199.486 63.9946 199.739 64.6304 199.739Z" fill="#4F5E64"/>
<path d="M63.1945 78.3742L63.5714 80.6675C63.7497 81.7794 64.3954 89.6346 63.9171 90.5717C63.8749 88.822 60.6205 86.071 58.5118 86.6991L55.2025 87.4353L53.1486 87.8928L51.4769 88.2598L46.6192 89.3223C46.6107 89.2659 46.6045 89.2059 46.5961 89.1494C46.5846 89.0783 46.5731 89.0071 46.5587 88.9366C46.4682 88.4805 46.3033 88.0424 46.0704 87.64C46.0457 88.179 45.8868 88.7032 45.6081 89.165C45.6005 89.177 45.5939 89.1896 45.5883 89.2028C45.502 89.3426 45.4068 89.4766 45.3033 89.6042C45.2985 89.6075 45.2941 89.6115 45.2904 89.616C45.2904 89.616 44.2923 73.6866 44.3968 73.5396C44.4734 73.4351 44.5505 73.3335 44.6312 73.2343C44.7112 73.1321 44.789 73.0335 44.8726 72.9337C44.8833 72.9242 44.8924 72.9131 44.8995 72.9006C45.1336 72.6232 45.3815 72.3577 45.6424 72.1053C45.719 72.0314 45.7986 71.9569 45.8782 71.8824C47.0935 70.7566 48.5455 69.9181 50.1274 69.4285C50.3058 69.3736 50.4913 69.3233 50.6797 69.2725C50.8658 69.2252 51.0555 69.1802 51.2463 69.1411L51.3109 69.1279C51.402 69.1092 51.4965 69.0929 51.5881 69.0772C51.7032 69.0567 51.8189 69.0391 51.9323 69.0251C53.4041 68.8128 54.9034 68.8972 56.3421 69.2732C56.345 69.2726 56.3456 69.2755 56.3486 69.2749C57.5496 69.5892 58.691 70.0981 59.7277 70.7816C61.5209 71.967 62.2189 73.9005 62.7146 76.0714C62.8884 76.8168 63.0347 77.5923 63.1945 78.3742Z" fill="#184274"/>
<path d="M80.9054 183.409L84.003 185.094L92.2031 173.743L87.6311 171.256L80.9054 183.409Z" fill="#FFB6B6"/>
<path d="M82.3964 179.364L88.0198 181.127L87.1248 183.486L90.9808 189.089C91.1713 189.366 91.2685 189.696 91.2581 190.032C91.2477 190.368 91.1304 190.692 90.9232 190.957C90.716 191.221 90.4298 191.412 90.1064 191.502C89.783 191.592 89.4393 191.576 89.1255 191.457L82.5791 188.967L82.336 186.205L81.0101 188.37L78.5419 187.431L82.3964 179.364Z" fill="#184274"/>
<path d="M98.4513 132.638C97.9569 132.759 97.4421 132.769 96.9431 132.669C96.4442 132.569 95.9733 132.36 95.5636 132.058C95.1539 131.756 94.8153 131.368 94.5717 130.92C94.3282 130.473 94.1855 129.978 94.1538 129.469L67.7327 119.953L72.5815 115.728L97.659 125.725C98.5157 125.728 99.3414 126.046 99.9797 126.618C100.618 127.19 101.024 127.977 101.122 128.829C101.22 129.681 101.002 130.54 100.51 131.242C100.017 131.944 99.285 132.441 98.4513 132.638V132.638Z" fill="#FFB6B6"/>
<path d="M60.3517 96.3774C60.3517 96.3774 55.9018 96.4756 55.5061 101.562C55.1105 106.648 64.8202 119.229 66.3246 121.304C67.8289 123.379 84.5388 125.932 84.5388 125.932L90.2191 121.803C84.2505 117.931 78.8033 114.962 75.1476 115.096L60.3517 96.3774Z" fill="#3C65F5"/>
<path d="M54.8942 118.82L55.9785 123.485C55.9785 123.485 55.9892 127.786 56.75 128.579C57.5055 129.368 74.1187 127.783 74.1187 127.783C74.1187 127.783 72.3573 120.852 72.3807 115.608L54.8942 118.82Z" fill="#FFB6B6"/>
<path d="M89.9901 178.485L83.9963 175.185C83.8823 167.376 88.5735 156.809 94.1377 145.74C81.6937 147.883 69.9538 148.569 59.7994 145.977C58.1324 145.537 56.7055 144.457 55.8271 142.971C54.9488 141.486 54.6896 139.714 55.1054 138.039C55.1449 137.874 55.1906 137.712 55.2425 137.551C56.4578 133.838 53.7328 131.511 56.2392 127.428C62.8313 125.174 69.0935 124.538 74.82 126.528L78.408 134.471L96.1924 132.167C97.0516 132.064 97.9227 132.132 98.7554 132.368C99.5881 132.604 100.366 133.002 101.044 133.54C101.722 134.079 102.287 134.746 102.707 135.504C103.126 136.261 103.392 137.095 103.488 137.956C103.512 138.149 103.527 138.343 103.535 138.538C99.9388 155.416 95.9066 170.603 89.9901 178.485Z" fill="#184274"/>
<path d="M55.7178 86.587C59.74 85.763 62.3335 81.8305 61.5105 77.8034C60.6875 73.7764 56.7596 71.1798 52.7373 72.0039C48.715 72.8279 46.1215 76.7604 46.9446 80.7874C47.7676 84.8144 51.6955 87.411 55.7178 86.587Z" fill="#FFB6B6"/>
<path d="M52.4799 89.2887L59.3312 88.8837C59.6201 88.8666 59.9071 88.9402 60.1523 89.0942C60.3975 89.2482 60.5886 89.4749 60.6989 89.7428L62.6351 94.442L70.6818 101.101C70.6818 101.101 73.8677 105.16 73.8751 110.402C73.8826 115.644 75.0055 127.777 75.0055 127.777C75.0055 127.777 70.3558 121.225 67.4859 122.968C66.9976 123.264 66.8259 123.87 66.3145 124.177C66.0594 124.33 65.47 124.181 65.2123 124.334C61.2577 126.685 57.1334 128.981 56.748 128.578C55.9914 127.788 55.0735 123.748 55.0735 123.748L48.8021 100.679C48.4621 99.4647 48.3946 98.1906 48.6044 96.9476C48.8142 95.7046 49.2962 94.5235 50.0157 93.4889C50.4538 92.8713 50.9129 92.4119 51.3395 92.3359C52.2973 92.1317 51.7878 89.9824 52.4799 89.2887Z" fill="#3C65F5"/>
<path d="M110.761 193.181L113.653 191.168L107.101 178.793L102.833 181.764L110.761 193.181Z" fill="#FFB6B6"/>
<path d="M111.198 184.878L106.665 188.934C99.4584 180.894 94.0102 169.618 89.3931 156.813C77.2958 153.266 68.1729 147.545 60.2087 140.753C57.5068 138.464 55.4815 135.524 57.7858 132.735C57.8935 132.605 58.006 132.479 58.1232 132.357C60.8439 129.558 67.7435 130.091 71.7845 127.527L80.8116 137.187L80.2438 139.777L97.1994 145.527C98.0153 145.813 98.7664 146.259 99.4096 146.837C100.053 147.415 100.575 148.115 100.947 148.897C101.318 149.678 101.532 150.526 101.574 151.39C101.617 152.255 101.489 153.119 101.196 153.934C101.132 154.118 101.061 154.299 100.982 154.477L111.198 184.878Z" fill="#184274"/>
<path d="M109.074 192.365L113.704 188.715L115.142 190.787L121.939 190.766C122.274 190.765 122.602 190.872 122.873 191.07C123.144 191.268 123.344 191.548 123.445 191.869C123.546 192.189 123.542 192.534 123.434 192.852C123.325 193.17 123.118 193.445 122.842 193.636L117.092 197.638L114.678 196.279L115.714 198.597L113.546 200.106L109.074 192.365Z" fill="#184274"/>
<path d="M62.597 147.428C62.1286 147.229 61.7095 146.93 61.3692 146.551C61.0289 146.172 60.7756 145.723 60.6273 145.236C60.479 144.749 60.4393 144.235 60.5108 143.73C60.5824 143.226 60.7635 142.743 61.0415 142.317L45.5312 118.882L51.9405 118.395L66.0867 141.41C66.7717 141.925 67.2443 142.674 67.4147 143.515C67.5852 144.355 67.4418 145.229 67.0117 145.971C66.5815 146.713 65.8945 147.271 65.0809 147.539C64.2672 147.808 63.3835 147.768 62.597 147.428Z" fill="#FFB6B6"/>
<path d="M53.6791 95.5616C53.6791 95.5616 50.0519 92.9789 46.6997 96.8213C43.3475 100.664 43.6274 116.56 43.5959 119.124C43.586 119.927 44.7438 121.659 46.339 123.659C47.0551 124.558 47.8594 125.51 48.6858 126.457C49.164 127.005 48.7519 128.145 49.2321 128.677C49.7096 129.207 51.0794 129.129 51.5337 129.62C53.6897 131.953 55.4412 133.729 55.4412 133.729L62.4601 133.816C62.5392 128.592 58.9661 123.929 54.3757 119.422L53.6791 95.5616Z" fill="#3C65F5"/>
<path d="M63.5187 75.6801C63.2436 75.816 62.9768 75.9473 62.7146 76.0714C61.6627 76.5891 60.5756 77.0319 59.4614 77.3964C59.276 76.8915 58.9931 76.428 58.629 76.0325C58.7222 76.5787 58.6747 77.1398 58.491 77.6625C56.8045 78.0807 55.0342 78.0123 53.385 77.4651C54.4635 79.4646 55.2604 83.6778 55.2024 87.4353C55.1772 89.422 54.9086 91.2809 54.322 92.6169L53.5684 90.3212C53.4985 89.5012 53.358 88.6887 53.1485 87.8928C52.6432 85.6596 52.1713 87.1528 51.4768 88.2598L46.6191 89.3223C46.6106 89.2659 46.6045 89.2059 46.596 89.1494C46.5845 89.0783 46.573 89.0071 46.5586 88.9366C46.4682 88.4805 46.3032 88.0424 46.0703 87.6401C46.0457 88.179 45.8868 88.7032 45.6081 89.165C45.6004 89.177 45.5938 89.1897 45.5883 89.2028C45.502 89.3426 45.4068 89.4766 45.3032 89.6042C45.2984 89.6075 45.2941 89.6115 45.2903 89.616C42.1541 90.0362 39.9555 73.8438 44.3974 73.5425C44.5265 73.5337 44.551 73.3365 44.6311 73.2343C44.7112 73.1322 44.7889 73.0335 44.8725 72.9337C44.8832 72.9242 44.8923 72.9131 44.8994 72.9007C45.1368 72.6254 45.3825 72.3607 45.6423 72.1053C45.719 72.0314 45.7986 71.9569 45.8782 71.8824C47.0972 70.7621 48.5484 69.9252 50.1279 69.4315C50.3063 69.3765 50.4912 69.3234 50.6797 69.2725C50.8658 69.2252 51.0554 69.1802 51.2463 69.1411L51.3109 69.1279C51.4019 69.1092 51.4964 69.0929 51.5881 69.0772C51.7031 69.0567 51.8189 69.0391 51.9322 69.0251C52.3579 69.2399 52.7222 69.5594 52.9908 69.9536L56.0942 69.3179C56.1764 69.301 56.2592 69.2871 56.3426 69.2762L56.3485 69.275C60.223 68.6252 62.7142 71.744 63.5187 75.6801Z" fill="#184274"/>
<path d="M46.6043 72.8173C45.9398 73.2975 45.2407 73.7922 44.4299 73.9112C43.619 74.0302 42.6698 73.6377 42.4454 72.8486C42.171 71.8837 43.0412 71.0052 43.8234 70.3781L46.3036 68.3897C46.7578 67.9864 47.2705 67.6545 47.8243 67.4054C48.1024 67.2828 48.4045 67.2245 48.7082 67.2347C49.0119 67.2448 49.3094 67.3232 49.5787 67.4641C49.8453 67.6443 50.0614 67.8899 50.2063 68.1773C50.3513 68.4648 50.4203 68.7847 50.4068 69.1064C50.3714 69.7513 50.1589 70.3738 49.7926 70.9054C49.3322 71.6239 48.7313 72.2417 48.0262 72.7216C47.321 73.2015 46.5262 73.5336 45.6895 73.6979" fill="#184274"/>
<path d="M65.4155 124.477H47.434C46.7982 124.477 46.1883 124.73 45.7387 125.18C45.2891 125.63 45.0365 126.241 45.0365 126.877C45.0365 127.514 45.2891 128.124 45.7387 128.575C46.1883 129.025 46.7982 129.278 47.434 129.278H54.0272V147.88H58.8223V129.278H65.4155C66.0513 129.278 66.6612 129.025 67.1108 128.575C67.5604 128.124 67.813 127.514 67.813 126.877C67.813 126.241 67.5604 125.63 67.1108 125.18C66.6612 124.73 66.0513 124.477 65.4155 124.477Z" fill="#4F5E64"/>
<path d="M131.846 200.608L0.356782 200.7C0.262322 200.7 0.171826 200.662 0.105129 200.595C0.0384326 200.528 0.000976562 200.437 0.000976562 200.343C0.000976562 200.248 0.0384326 200.157 0.105129 200.09C0.171826 200.023 0.262322 199.986 0.356782 199.985L131.846 199.893C131.941 199.893 132.031 199.931 132.098 199.998C132.164 200.065 132.202 200.156 132.202 200.25C132.202 200.345 132.164 200.436 132.098 200.503C132.031 200.57 131.941 200.607 131.846 200.608Z" fill="#CACACA"/>
<path d="M170.111 160.757L173.038 163.951L186.735 154.167L182.415 149.453L170.111 160.757Z" fill="#A0616A"/>
<path d="M176.169 165.277V165.274L175.873 162.085L175.738 162.022L174.949 161.646L171.23 159.885L171.152 159.801L170.406 158.985L166.273 162.784L171.872 168.893L175.711 173.081L175.84 172.961C176.366 172.479 176.792 171.897 177.093 171.249C177.394 170.602 177.565 169.901 177.596 169.188C177.626 168.474 177.516 167.761 177.271 167.09C177.027 166.419 176.652 165.803 176.169 165.277H176.169Z" fill="#184274"/>
<path d="M154.946 192.617L159.088 193.877L165.913 178.479L159.799 176.62L154.946 192.617Z" fill="#A0616A"/>
<path d="M165.671 196.065C165.337 195.433 164.881 194.875 164.33 194.421C163.778 193.968 163.142 193.629 162.458 193.424L160.579 190.829L160.432 190.841L155.467 191.297L155.356 191.264L154.301 190.943L152.67 196.317L166.028 200.379L166.079 200.208C166.287 199.525 166.358 198.807 166.288 198.096C166.218 197.385 166.009 196.694 165.671 196.065V196.065Z" fill="#184274"/>
<path d="M189.104 111.997C189.104 111.997 215.552 137.563 198.832 145.477H193.664C193.664 145.477 192.111 139.953 188.556 135.295C188.068 134.655 186.239 134.785 185.731 134.162C182.629 130.355 179.267 127.086 176.944 127.215L177.5 144.88L178.399 151.181C178.871 154.438 165.547 182.879 165.547 182.879L157.173 179.583C157.173 179.583 165.898 156.159 166 152.781L159.008 115.649L189.104 111.997Z" fill="#184274"/>
<path d="M191.31 113.258C191.175 113.451 190.999 113.611 190.794 113.726C190.457 113.917 190.092 114.053 189.712 114.128C183.757 115.481 164.304 118.287 159.255 116.949C158.634 116.787 158.23 116.559 158.098 116.259C157.675 115.31 157.729 111.305 157.978 106.468C158.023 105.562 159.021 104.581 159.081 103.633C159.123 102.922 158.227 102.252 158.275 101.529C158.604 96.6386 159.03 91.6549 159.315 88.5044C159.494 86.4791 159.617 85.2129 159.617 85.2129L156.545 65.8209L156.689 65.5839L156.851 65.5029L166.756 60.5942L167.295 59.214C167.452 58.8166 167.723 58.4752 168.075 58.234C168.427 57.9928 168.844 57.8628 169.27 57.8608L175.795 57.8338C176.133 57.8319 176.467 57.911 176.769 58.0644C177.071 58.2178 177.332 58.4412 177.53 58.7159L179.298 61.1672L190.986 68.6684L190.941 68.8064L185.457 85.5159L185.43 86.8181V86.8211L185.226 97.2927L185.792 98.7119L185.154 101.04C185.154 101.04 185.448 103.762 187.021 105.784C188.447 107.62 190.264 109.535 191.085 111.089V111.092C191.54 111.95 191.693 112.694 191.31 113.258Z" fill="#3C65F5"/>
<path d="M200.102 143.958L198.688 145.747C198.688 145.747 185.687 154.853 185.24 155.705L183.186 157.651L178.214 152.33L180.799 149.086C182.868 146.489 185.542 144.44 188.585 143.118V143.118L192.548 139.598L200.102 143.958Z" fill="#184274"/>
<path d="M191.841 118.398L189.473 95.4536L188.848 86.0103L195.475 84.8106C195.475 84.8106 195.213 91.5628 196.081 95.3725C196.937 99.1318 196.194 117.894 196.141 118.396C196.628 118.832 196.971 119.405 197.125 120.04C197.279 120.676 197.237 121.343 197.004 121.953C196.772 122.564 196.359 123.09 195.822 123.46C195.284 123.831 194.647 124.03 193.994 124.03C193.341 124.031 192.703 123.833 192.165 123.462C191.627 123.092 191.214 122.567 190.981 121.956C190.748 121.346 190.705 120.679 190.858 120.043C191.012 119.408 191.354 118.834 191.841 118.398V118.398Z" fill="#A0616A"/>
<path d="M198.305 100.208L189.787 101.973L189.042 99.0007L188.174 98.0785L186.439 88.9801L183.95 83.6504L184.597 65.4245L190.919 68.7812L190.927 68.7872C191.893 69.838 192.56 71.3419 193.668 72.851C197.159 77.6064 197.546 89.1615 197.441 95.4907C197.439 95.5946 197.543 95.7043 197.669 95.8197C198.263 96.366 198.651 97.101 198.767 97.9006C198.883 98.7001 198.72 99.5152 198.305 100.208V100.208Z" fill="#3C65F5"/>
<path d="M153.269 119.298L155.637 96.3537L156.262 86.9104L149.635 85.7107C149.635 85.7107 149.897 92.4629 149.029 96.2726C148.172 100.032 148.915 118.794 148.968 119.296C148.482 119.732 148.139 120.305 147.985 120.94C147.83 121.576 147.873 122.243 148.105 122.853C148.338 123.464 148.751 123.99 149.288 124.361C149.826 124.731 150.463 124.93 151.116 124.93C151.769 124.931 152.407 124.733 152.945 124.362C153.482 123.992 153.895 123.467 154.129 122.856C154.362 122.246 154.405 121.579 154.251 120.943C154.098 120.308 153.755 119.734 153.269 119.298V119.298Z" fill="#A0616A"/>
<path d="M161.161 84.5498L159.315 88.5044L158.67 89.8816L156.935 98.979L156.069 99.9001L155.323 102.874L154.972 102.802L148.649 101.49L146.805 101.109C146.39 100.416 146.226 99.601 146.342 98.8012C146.458 98.0013 146.846 97.266 147.441 96.7196C147.567 96.6056 147.672 96.4946 147.669 96.3896C147.564 90.0616 147.95 78.5069 151.442 73.7511C152.55 72.2419 153.216 70.7387 154.184 69.6885C154.187 69.6855 154.187 69.6825 154.19 69.6825L156.545 65.8209L156.689 65.5839L156.851 65.5029L161.161 84.5498Z" fill="#3C65F5"/>
<path d="M172.344 55.9742C177.138 55.9742 181.025 52.0831 181.025 47.2832C181.025 42.4832 177.138 38.5921 172.344 38.5921C167.55 38.5921 163.663 42.4832 163.663 47.2832C163.663 52.0831 167.55 55.9742 172.344 55.9742Z" fill="#A0616A"/>
<path d="M182.103 43.4706C182.073 41.9883 181.905 40.0921 180.868 38.5798C179.993 37.3076 178.228 36.2995 176.583 36.8036C176.601 36.4742 176.528 36.1461 176.371 35.8558C176.215 35.5656 175.981 35.3245 175.696 35.1593C175.072 34.7782 174.323 34.7092 173.661 34.6462C171.991 34.4902 170.262 34.3282 168.572 34.6492C166.675 35.0093 165.123 35.9874 164.316 37.3346L164.298 37.3766L164.134 38.1748C164.112 38.2818 164.067 38.3828 164.002 38.4709C163.937 38.5589 163.854 38.6319 163.759 38.6848C163.663 38.7385 163.557 38.7704 163.448 38.7782C163.339 38.786 163.229 38.7695 163.127 38.7299C163.015 38.6879 162.894 38.6758 162.776 38.6949C162.658 38.714 162.547 38.7636 162.454 38.8387C162.361 38.9139 162.29 39.012 162.246 39.1234C162.203 39.2348 162.189 39.3557 162.207 39.474L162.252 39.792L161.775 39.702C161.655 39.6788 161.532 39.688 161.417 39.7287C161.302 39.7693 161.2 39.8399 161.122 39.9332C161.043 40.0265 160.991 40.139 160.97 40.2593C160.95 40.3795 160.962 40.5031 161.005 40.6171L161.137 40.9802C161.038 40.9815 160.941 41.0026 160.851 41.0423C160.761 41.082 160.68 41.1395 160.612 41.2112C160.516 41.3158 160.455 41.4483 160.439 41.5896C160.423 41.7309 160.452 41.8737 160.522 41.9974C161.056 42.9101 161.813 43.672 162.722 44.2117C163.131 44.4582 163.571 44.647 164.032 44.7728C164.128 44.7998 164.226 44.8238 164.328 44.8448C168.008 45.6387 171.801 45.7526 175.522 45.1808C175.303 45.9157 175.218 46.6842 175.273 47.4492C175.393 48.4063 175.953 49.1954 176.703 49.4595C176.872 49.517 177.047 49.5592 177.224 49.5855C177.394 49.6131 177.561 49.6542 177.725 49.7085C177.966 49.7969 178.179 49.9475 178.343 50.145C178.508 50.3425 178.617 50.5799 178.66 50.8332C178.703 51.0866 178.679 51.3468 178.589 51.5877C178.5 51.8285 178.348 52.0415 178.15 52.2049C178.15 52.2049 178.935 52.856 179.034 52.823C179.42 52.6523 179.743 52.3648 179.957 52.0009C181.453 49.8465 182.175 46.9781 182.103 43.4706Z" fill="#184274"/>
</g>
<defs>
<clipPath id="clip0_41_4607">
<rect width="232" height="201" fill="white"/>
</clipPath>
</defs>
</svg>
