<svg width="651" height="238" viewBox="0 0 651 238" fill="none" xmlns="http://www.w3.org/2000/svg">
<g opacity="0.2">
<path d="M155.549 237.018H243.85V124.35C243.85 109.687 231.932 97.7583 217.283 97.7583H182.115C167.467 97.7583 155.549 109.687 155.549 124.35V237.018Z" fill="#E6E6E6"/>
<path d="M185.722 123.11H213.289C215.502 123.11 217.303 121.307 217.303 119.092V111.711C217.303 109.496 215.502 107.693 213.289 107.693H185.722C183.509 107.693 181.709 109.496 181.709 111.711V119.092C181.709 121.307 183.509 123.11 185.722 123.11V123.11Z" fill="white"/>
<path d="M198.844 155.141V99.9854H199.186V155.141H198.844Z" fill="#E6E6E6"/>
<path d="M165.899 216.121H172.922C174.949 216.121 176.598 214.47 176.598 212.441V191.023C176.598 188.995 174.949 187.344 172.922 187.344H165.899C163.872 187.344 162.223 188.995 162.223 191.023V212.441C162.223 214.47 163.872 216.121 165.899 216.121V216.121Z" fill="white"/>
<path d="M211.762 231.194H231.105C233.132 231.194 234.781 229.543 234.781 227.515V189.653C234.781 187.624 233.132 185.973 231.105 185.973H211.762C209.735 185.973 208.086 187.624 208.086 189.653V227.515C208.086 229.543 209.735 231.194 211.762 231.194V231.194Z" fill="white"/>
<path d="M207.611 188.885H235.235C236.275 188.885 237.154 188.246 237.474 187.256C237.795 186.266 237.458 185.232 236.616 184.621L222.656 174.494C221.821 173.889 220.703 173.895 219.874 174.509L206.21 184.635C205.379 185.251 205.052 186.284 205.376 187.267C205.7 188.25 206.577 188.885 207.611 188.885V188.885Z" fill="#CCCCCC"/>
<path d="M163.021 189.228H175.78C176.819 189.228 177.698 188.588 178.019 187.598C178.34 186.608 178.003 185.574 177.161 184.963L170.713 180.286C169.878 179.681 168.76 179.687 167.931 180.301L161.62 184.978C160.789 185.594 160.461 186.627 160.785 187.61C161.109 188.593 161.987 189.228 163.021 189.228V189.228Z" fill="#CCCCCC"/>
<path d="M168.714 169.187H176.611C178.397 169.187 179.85 167.733 179.85 165.945V143.652C179.85 141.864 178.397 140.41 176.611 140.41H168.714C166.928 140.41 165.475 141.864 165.475 143.652V165.945C165.475 167.733 166.928 169.187 168.714 169.187Z" fill="white"/>
<path d="M195.753 169.187H203.65C205.436 169.187 206.889 167.733 206.889 165.945V143.652C206.889 141.864 205.436 140.41 203.65 140.41H195.753C193.967 140.41 192.514 141.864 192.514 143.652V165.945C192.514 167.733 193.967 169.187 195.753 169.187Z" fill="white"/>
<path d="M223.134 169.187H231.031C232.817 169.187 234.27 167.733 234.27 165.945V143.652C234.27 141.864 232.817 140.41 231.031 140.41H223.134C221.348 140.41 219.895 141.864 219.895 143.652V165.945C219.895 167.733 221.348 169.187 223.134 169.187Z" fill="white"/>
<path d="M166.33 142.979H233.071C234.266 142.979 234.998 142.132 235.193 141.293C235.388 140.453 235.104 139.369 234.032 138.841L200.304 122.251C199.696 121.952 198.971 121.955 198.365 122.259L165.353 138.849C164.417 139.32 163.969 140.282 164.21 141.302C164.452 142.321 165.284 142.979 166.33 142.979V142.979Z" fill="#CCCCCC"/>
<path d="M155.72 236.847H240.414V228.243C240.414 221.464 230.389 215.949 218.066 215.949H155.72V236.847V236.847Z" fill="#3F3D56"/>
<path d="M188.576 203.788H193.025V220.232H188.576V203.788Z" fill="#3F3D56"/>
<path d="M155.719 203.788H160.168V220.232H155.719V203.788Z" fill="#3F3D56"/>
<path d="M158.799 205.158H189.26V205.501H158.799V205.158Z" fill="#3F3D56"/>
<path d="M162.222 154.798H236.148V155.141H162.222V154.798Z" fill="#E6E6E6"/>
<path d="M158.799 210.639H189.26V210.982H158.799V210.639Z" fill="#3F3D56"/>
<path d="M158.799 213.38H189.26V213.723H158.799V213.38Z" fill="#3F3D56"/>
<path d="M182.415 109.155H216.984C217.522 109.155 217.977 108.824 218.143 108.312C218.309 107.8 218.135 107.264 217.699 106.948L200.229 94.2761C199.797 93.9633 199.218 93.9653 198.789 94.2838L181.69 106.956C181.26 107.275 181.09 107.809 181.258 108.318C181.426 108.826 181.88 109.155 182.415 109.155V109.155Z" fill="#CCCCCC"/>
<path d="M227.252 208.927H233.412V209.612H227.252V208.927Z" fill="#E6E6E6"/>
<path d="M255.772 237.018H344.072V124.35C344.072 109.687 332.155 97.7583 317.506 97.7583H282.338C267.689 97.7583 255.772 109.687 255.772 124.35V237.018Z" fill="#E6E6E6"/>
<path d="M285.945 123.11H313.512C315.725 123.11 317.525 121.307 317.525 119.092V111.711C317.525 109.496 315.725 107.693 313.512 107.693H285.945C283.732 107.693 281.931 109.496 281.931 111.711V119.092C281.931 121.307 283.732 123.11 285.945 123.11V123.11Z" fill="white"/>
<path d="M299.066 155.141V99.9854H299.409V155.141H299.066Z" fill="#E6E6E6"/>
<path d="M266.122 216.121H273.144C275.171 216.121 276.82 214.47 276.82 212.441V191.023C276.82 188.995 275.171 187.344 273.144 187.344H266.122C264.095 187.344 262.446 188.995 262.446 191.023V212.441C262.446 214.47 264.095 216.121 266.122 216.121V216.121Z" fill="white"/>
<path d="M311.984 231.194H331.328C333.355 231.194 335.004 229.543 335.004 227.515V189.653C335.004 187.624 333.355 185.973 331.328 185.973H311.984C309.957 185.973 308.308 187.624 308.308 189.653V227.515C308.308 229.543 309.957 231.194 311.984 231.194V231.194Z" fill="white"/>
<path d="M307.834 188.885H335.458C336.497 188.885 337.376 188.246 337.697 187.256C338.017 186.266 337.681 185.232 336.839 184.621L322.879 174.494C322.044 173.889 320.926 173.895 320.097 174.509L306.433 184.635C305.602 185.251 305.274 186.284 305.598 187.267C305.922 188.25 306.8 188.885 307.834 188.885V188.885Z" fill="#CCCCCC"/>
<path d="M263.244 189.228H276.002C277.042 189.228 277.921 188.588 278.242 187.598C278.562 186.608 278.226 185.574 277.384 184.963L270.936 180.286C270.101 179.681 268.983 179.687 268.154 180.301L261.843 184.978C261.012 185.594 260.684 186.627 261.008 187.61C261.332 188.593 262.209 189.228 263.244 189.228V189.228Z" fill="#CCCCCC"/>
<path d="M268.936 169.187H276.834C278.62 169.187 280.072 167.733 280.072 165.945V143.652C280.072 141.864 278.62 140.41 276.834 140.41H268.936C267.15 140.41 265.698 141.864 265.698 143.652V165.945C265.698 167.733 267.15 169.187 268.936 169.187V169.187Z" fill="white"/>
<path d="M295.975 169.187H303.873C305.659 169.187 307.111 167.733 307.111 165.945V143.652C307.111 141.864 305.659 140.41 303.873 140.41H295.975C294.19 140.41 292.737 141.864 292.737 143.652V165.945C292.737 167.733 294.19 169.187 295.975 169.187Z" fill="white"/>
<path d="M323.356 169.187H331.254C333.039 169.187 334.492 167.733 334.492 165.945V143.652C334.492 141.864 333.039 140.41 331.254 140.41H323.356C321.57 140.41 320.118 141.864 320.118 143.652V165.945C320.118 167.733 321.57 169.187 323.356 169.187Z" fill="white"/>
<path d="M266.553 142.979H333.293C334.489 142.979 335.22 142.132 335.415 141.293C335.61 140.453 335.327 139.369 334.254 138.841L300.526 122.251C299.918 121.952 299.194 121.955 298.588 122.259L265.575 138.849C264.64 139.32 264.191 140.282 264.433 141.302C264.674 142.321 265.506 142.979 266.553 142.979V142.979Z" fill="#CCCCCC"/>
<path d="M255.943 236.847H302.318V228.243C302.318 221.464 296.829 215.949 290.082 215.949H255.943V236.847V236.847Z" fill="#3F3D56"/>
<path d="M288.799 203.788H293.248V220.232H288.799V203.788Z" fill="#3F3D56"/>
<path d="M255.941 203.788H260.391V220.232H255.941V203.788Z" fill="#3F3D56"/>
<path d="M259.022 205.158H289.482V205.501H259.022V205.158Z" fill="#3F3D56"/>
<path d="M262.445 154.798H336.371V155.141H262.445V154.798Z" fill="#E6E6E6"/>
<path d="M259.022 210.639H289.482V210.982H259.022V210.639Z" fill="#3F3D56"/>
<path d="M259.022 213.38H289.482V213.723H259.022V213.38Z" fill="#3F3D56"/>
<path d="M282.638 109.155H317.207C317.745 109.155 318.2 108.824 318.366 108.312C318.532 107.8 318.357 107.264 317.922 106.948L300.452 94.2761C300.02 93.9633 299.441 93.9653 299.012 94.2838L281.913 106.956C281.483 107.275 281.313 107.809 281.481 108.318C281.648 108.826 282.103 109.155 282.638 109.155V109.155Z" fill="#CCCCCC"/>
<path d="M327.474 208.927H333.635V209.612H327.474V208.927Z" fill="#E6E6E6"/>
<path d="M58.5607 237.018H146.861V124.35C146.861 109.687 134.944 97.7583 120.295 97.7583H85.1269C70.4784 97.7583 58.5607 109.687 58.5607 124.35V237.018Z" fill="#E6E6E6"/>
<path d="M88.7342 123.11H116.301C118.514 123.11 120.314 121.307 120.314 119.092V111.711C120.314 109.496 118.514 107.693 116.301 107.693H88.7342C86.5209 107.693 84.7204 109.496 84.7204 111.711V119.092C84.7204 121.307 86.5209 123.11 88.7342 123.11Z" fill="white"/>
<path d="M101.855 155.141V99.9854H102.198V155.141H101.855Z" fill="#E6E6E6"/>
<path d="M68.9107 216.121H75.9335C77.9605 216.121 79.6094 214.47 79.6094 212.441V191.023C79.6094 188.995 77.9605 187.344 75.9335 187.344H68.9107C66.8838 187.344 65.2349 188.995 65.2349 191.023V212.441C65.2349 214.47 66.8838 216.121 68.9107 216.121V216.121Z" fill="white"/>
<path d="M114.773 231.194H134.117C136.144 231.194 137.793 229.543 137.793 227.515V189.653C137.793 187.624 136.144 185.973 134.117 185.973H114.773C112.746 185.973 111.097 187.624 111.097 189.653V227.515C111.097 229.543 112.746 231.194 114.773 231.194Z" fill="white"/>
<path d="M110.623 188.885H138.247C139.286 188.885 140.165 188.246 140.486 187.256C140.806 186.266 140.47 185.232 139.628 184.621L125.668 174.494C124.833 173.889 123.715 173.895 122.886 174.509L109.222 184.635C108.391 185.251 108.063 186.284 108.387 187.267C108.711 188.25 109.589 188.885 110.623 188.885V188.885Z" fill="#CCCCCC"/>
<path d="M66.0326 189.228H78.7915C79.8311 189.228 80.7101 188.588 81.0308 187.598C81.3515 186.608 81.0146 185.574 80.1728 184.963L73.7249 180.286C72.8897 179.681 71.7717 179.687 70.9429 180.301L64.6319 184.978C63.8008 185.594 63.4731 186.627 63.797 187.61C64.121 188.593 64.9985 189.228 66.0326 189.228V189.228Z" fill="#CCCCCC"/>
<path d="M71.7253 169.187H79.6228C81.4086 169.187 82.8613 167.733 82.8613 165.945V143.652C82.8613 141.864 81.4086 140.41 79.6228 140.41H71.7253C69.9395 140.41 68.4868 141.864 68.4868 143.652V165.945C68.4868 167.733 69.9395 169.187 71.7253 169.187Z" fill="white"/>
<path d="M98.7644 169.187H106.662C108.448 169.187 109.9 167.733 109.9 165.945V143.652C109.9 141.864 108.448 140.41 106.662 140.41H98.7644C96.9786 140.41 95.5259 141.864 95.5259 143.652V165.945C95.5259 167.733 96.9786 169.187 98.7644 169.187Z" fill="white"/>
<path d="M126.143 169.187H134.041C135.827 169.187 137.279 167.733 137.279 165.945V143.652C137.279 141.864 135.827 140.41 134.041 140.41H126.143C124.357 140.41 122.905 141.864 122.905 143.652V165.945C122.905 167.733 124.357 169.187 126.143 169.187Z" fill="white"/>
<path d="M69.342 142.979H136.082C137.278 142.979 138.009 142.132 138.205 141.293C138.4 140.453 138.116 139.369 137.043 138.841L103.315 122.251C102.708 121.952 101.983 121.955 101.377 122.259L68.3644 138.849C67.4291 139.32 66.9805 140.282 67.2218 141.302C67.4633 142.321 68.2954 142.979 69.342 142.979V142.979Z" fill="#CCCCCC"/>
<path d="M58.7325 236.847H105.107V228.243C105.107 221.464 99.6181 215.949 92.8707 215.949H58.7325V236.847V236.847Z" fill="#3F3D56"/>
<path d="M91.5879 203.788H96.0371V220.232H91.5879V203.788Z" fill="#3F3D56"/>
<path d="M58.7304 203.788H63.1797V220.232H58.7304V203.788Z" fill="#3F3D56"/>
<path d="M61.8112 205.158H92.2715V205.501H61.8112V205.158Z" fill="#3F3D56"/>
<path d="M65.2341 154.798H139.16V155.141H65.2341V154.798Z" fill="#E6E6E6"/>
<path d="M61.8112 210.639H92.2715V210.982H61.8112V210.639Z" fill="#3F3D56"/>
<path d="M61.8112 213.38H92.2715V213.723H61.8112V213.38Z" fill="#3F3D56"/>
<path d="M85.4267 109.155H119.996C120.534 109.155 120.989 108.824 121.155 108.312C121.321 107.8 121.147 107.264 120.711 106.948L103.241 94.2761C102.809 93.9633 102.23 93.9653 101.801 94.2838L84.7019 106.956C84.2717 107.275 84.1021 107.809 84.2697 108.318C84.4373 108.826 84.8916 109.155 85.4267 109.155V109.155Z" fill="#CCCCCC"/>
<path d="M130.263 208.927H136.424V209.612H130.263V208.927Z" fill="#E6E6E6"/>
<path d="M329.294 235.817C329.265 236.055 329.257 236.278 329.273 236.496H341.272C341.381 236.278 341.474 236.051 341.555 235.817C343.022 231.598 340.609 224.575 343.668 214.163C345.939 206.437 350.179 200.393 352.155 197.578C354.584 194.115 357.336 190.92 360.524 185.815C361.215 184.71 361.926 183.513 362.662 182.206C362.908 181.77 365.749 176.701 365.491 176.543C365.37 176.47 364.618 177.494 364.363 177.838C362.116 180.88 360.811 182.21 358.94 184.399C357.804 185.726 356.463 187.364 354.58 189.892C349.75 196.368 347.338 199.605 346.497 202.028C346.275 202.675 345.091 206.178 342.86 210.522C341.72 212.739 341.151 213.847 340.839 213.758C339.958 213.504 341.147 204.325 344.881 195.151C345.519 193.589 345.996 192.59 346.901 190.701C348.372 187.619 356.564 170.488 362.585 160.233C363.341 158.943 364.064 157.766 364.731 156.734C364.86 156.54 364.986 156.35 365.107 156.168C365.948 154.914 366.691 153.923 367.309 153.284C367.637 152.944 368.469 151.981 370.138 150.048C370.801 149.279 371.286 148.709 371.613 148.292C371.662 148.231 371.706 148.171 371.743 148.118C372.139 147.6 372.252 147.349 372.159 147.216C372.025 147.026 371.512 147.135 370.951 147.333C370.89 147.353 370.825 147.378 370.765 147.402C370.154 147.629 369.536 147.924 369.33 148.025C367.439 148.935 365.592 150.565 363.882 152.503C363.248 153.219 362.638 153.975 362.048 154.752C360.148 157.26 358.491 159.99 357.239 162.236C355.703 165.002 354.782 167.037 354.782 167.037C350.494 176.515 345.737 187.356 345.487 187.263C345.212 187.162 350.486 173.667 352.021 166.337C352.535 163.882 352.628 162.118 351.953 161.778C351.929 161.766 351.904 161.754 351.876 161.746C351.771 161.71 351.674 161.714 351.621 161.718C351.621 161.718 350.995 161.637 350.336 161.778C349.516 161.956 348.582 164.242 347.673 167.45C345.309 175.718 343.062 190.094 343.062 190.094C340.815 204.475 337.404 216.113 336.596 215.983C336.148 215.91 336.79 212.298 336.192 206.275C335.772 202.052 335.295 202.181 333.767 194.544C331.343 182.429 330.13 176.373 330.13 176.341C330.142 176.086 330.175 175.572 330.098 175.038C330.017 174.46 329.811 173.853 329.322 173.509C328.578 172.983 327.382 173.21 326.897 173.509C326.509 173.752 326.311 174.197 326.267 174.836C326 178.857 331.771 190.515 333.767 206.275C334.761 214.127 335.307 218.41 333.767 224.074C332.244 229.688 329.589 233.264 329.294 235.817V235.817Z" fill="#3F3D56"/>
<path d="M312.954 134.474C316.27 133.87 320.387 136.091 320.633 138.519C320.835 140.517 318.381 142.342 318.612 142.564C318.828 142.772 320.349 140.579 322.249 140.541C325.121 140.484 328.568 145.353 327.503 148.227C326.648 150.535 322.985 151.289 323.057 151.463C323.126 151.627 325.917 149.837 328.715 150.25C332.722 150.841 336.559 155.923 335.585 159.149C334.498 162.754 327.456 163.87 327.503 164.003C327.552 164.144 334.59 160.537 337.202 162.79C338.954 164.3 338.702 167.822 337.606 170.071C335.317 174.765 328.178 176.428 324.674 174.116C321.95 172.318 323.787 169.677 321.037 164.003C317.66 157.036 311.787 154.619 311.742 149.441C311.738 148.97 311.725 147.454 312.55 147.014C313.868 146.311 316.412 148.84 316.591 148.632C316.785 148.407 313.38 145.944 311.338 141.755C310.696 140.437 309.234 137.439 310.53 135.687C311.189 134.795 312.291 134.595 312.954 134.474Z" fill="#3C65F5"/>
<path d="M331.544 126.788C334.86 126.184 338.977 128.406 339.223 130.833C339.424 132.832 336.971 134.656 337.202 134.878C337.418 135.086 338.938 132.894 340.839 132.856C343.711 132.799 347.158 137.667 346.093 140.542C345.238 142.849 341.575 143.604 341.647 143.778C341.716 143.942 344.507 142.151 347.305 142.564C351.312 143.156 355.149 148.237 354.175 151.464C353.087 155.068 346.046 156.185 346.093 156.318C346.142 156.458 353.18 152.852 355.792 155.104C357.543 156.615 357.292 160.137 356.196 162.385C353.907 167.079 346.768 168.743 343.264 166.431C340.539 164.633 342.377 161.991 339.627 156.318C336.25 149.351 330.376 146.934 330.332 141.755C330.328 141.284 330.315 139.768 331.14 139.328C332.458 138.625 335.002 141.154 335.181 140.946C335.375 140.721 331.97 138.259 329.928 134.069C329.285 132.752 327.824 129.754 329.12 128.002C329.779 127.11 330.881 126.909 331.544 126.788Z" fill="#3C65F5"/>
<path d="M354.054 117.806C350.912 119.024 348.559 123.071 349.616 125.269C350.486 127.079 353.531 127.353 353.449 127.663C353.373 127.953 350.933 126.878 349.292 127.839C346.813 129.291 346.413 135.245 348.821 137.14C350.754 138.661 354.272 137.39 354.301 137.576C354.328 137.752 351.013 137.683 348.842 139.498C345.734 142.097 345.112 148.436 347.626 150.679C350.434 153.185 357.021 150.456 357.051 150.594C357.082 150.74 349.199 151.343 348.146 154.629C347.44 156.833 349.492 159.705 351.6 161.05C356 163.857 362.957 161.544 364.739 157.74C366.125 154.783 363.18 153.491 362.565 147.215C361.811 139.508 365.559 134.377 362.896 129.937C362.654 129.533 361.874 128.233 360.94 128.29C359.45 128.379 358.599 131.865 358.338 131.782C358.055 131.691 359.675 127.811 359.231 123.171C359.092 121.712 358.774 118.391 356.755 117.574C355.727 117.158 354.683 117.563 354.054 117.806L354.054 117.806Z" fill="#3C65F5"/>
<path d="M389.742 120.007C391.723 122.735 391.509 127.412 389.431 128.686C387.719 129.735 385.013 128.313 384.913 128.618C384.82 128.903 387.453 129.324 388.311 131.021C389.608 133.587 386.72 138.807 383.671 139.093C381.223 139.323 378.955 136.346 378.83 136.487C378.712 136.62 381.534 138.36 382.376 141.064C383.581 144.934 380.67 150.598 377.344 151.119C373.627 151.702 369.569 145.835 369.469 145.935C369.364 146.04 375.663 150.824 374.768 154.156C374.168 156.391 370.889 157.692 368.389 157.678C363.171 157.65 358.577 151.932 359.139 147.769C359.576 144.532 362.75 145.044 366.665 140.103C371.472 134.035 371.101 127.69 375.743 125.404C376.165 125.196 377.524 124.527 378.278 125.08C379.483 125.964 378.309 129.356 378.574 129.427C378.861 129.504 379.601 125.365 382.486 121.706C383.394 120.555 385.459 117.937 387.598 118.346C388.687 118.554 389.346 119.461 389.742 120.007L389.742 120.007Z" fill="#3C65F5"/>
<path d="M386.912 149.94C388.893 152.669 388.679 157.346 386.6 158.62C384.889 159.669 382.183 158.247 382.083 158.552C381.989 158.837 384.623 159.257 385.481 160.955C386.778 163.521 383.89 168.741 380.841 169.027C378.393 169.256 376.125 166.28 376 166.421C375.881 166.554 378.704 168.294 379.546 170.997C380.751 174.868 377.84 180.532 374.514 181.053C370.797 181.636 366.738 175.769 366.639 175.869C366.534 175.974 372.833 180.757 371.938 184.09C371.338 186.325 368.058 187.626 365.558 187.612C360.341 187.584 355.747 181.866 356.309 177.703C356.746 174.466 359.92 174.977 363.835 170.037C368.642 163.969 368.271 157.624 372.913 155.338C373.335 155.13 374.694 154.461 375.448 155.014C376.653 155.898 375.479 159.289 375.744 159.361C376.031 159.438 376.771 155.299 379.656 151.64C380.564 150.489 382.629 147.871 384.768 148.28C385.857 148.488 386.516 149.394 386.912 149.94H386.912Z" fill="#3C65F5"/>
<path d="M221.243 235.786C221.209 236.077 221.199 236.348 221.219 236.614H235.834C235.967 236.348 236.08 236.072 236.179 235.786C237.966 230.646 235.027 222.092 238.753 209.409C241.52 199.997 246.684 192.636 249.091 189.206C252.05 184.988 255.402 181.095 259.286 174.877C260.128 173.532 260.994 172.073 261.89 170.481C262.191 169.949 265.651 163.775 265.336 163.583C265.189 163.494 264.273 164.741 263.963 165.16C261.226 168.865 259.636 170.486 257.356 173.152C255.973 174.768 254.339 176.764 252.045 179.844C246.162 187.733 243.223 191.675 242.199 194.626C241.929 195.415 240.486 199.682 237.769 204.974C236.381 207.674 235.687 209.024 235.308 208.916C234.234 208.606 235.682 197.425 240.23 186.249C241.008 184.347 241.589 183.13 242.692 180.829C244.484 177.074 254.462 156.206 261.797 143.715C262.717 142.143 263.599 140.709 264.411 139.453C264.568 139.216 264.721 138.985 264.869 138.763C265.893 137.235 266.798 136.028 267.552 135.25C267.95 134.836 268.964 133.663 270.997 131.308C271.805 130.371 272.396 129.677 272.794 129.169C272.853 129.095 272.907 129.021 272.952 128.957C273.434 128.326 273.572 128.021 273.459 127.858C273.296 127.627 272.671 127.76 271.987 128.001C271.913 128.026 271.834 128.055 271.76 128.085C271.017 128.361 270.264 128.721 270.013 128.844C267.709 129.953 265.459 131.938 263.377 134.299C262.604 135.171 261.861 136.092 261.142 137.038C258.828 140.093 256.81 143.419 255.284 146.154C253.413 149.525 252.291 152.003 252.291 152.003C247.068 163.548 241.274 176.754 240.969 176.641C240.634 176.518 247.058 160.079 248.929 151.151C249.554 148.16 249.667 146.011 248.845 145.597C248.816 145.583 248.786 145.568 248.752 145.558C248.624 145.514 248.505 145.519 248.441 145.524C248.441 145.524 247.678 145.425 246.876 145.597C245.877 145.814 244.739 148.598 243.632 152.506C240.752 162.578 238.015 180.09 238.015 180.09C235.278 197.607 231.123 211.784 230.139 211.626C229.592 211.538 230.375 207.137 229.646 199.8C229.134 194.656 228.554 194.814 226.693 185.51C223.739 170.752 222.262 163.376 222.262 163.337C222.277 163.026 222.316 162.4 222.223 161.75C222.124 161.045 221.873 160.306 221.278 159.887C220.372 159.247 218.915 159.523 218.324 159.887C217.851 160.183 217.61 160.725 217.556 161.503C217.231 166.401 224.261 180.603 226.693 199.8C227.904 209.364 228.568 214.583 226.693 221.481C224.837 228.321 221.603 232.677 221.243 235.786V235.786Z" fill="#3F3D56"/>
<path d="M201.343 112.337C205.382 111.601 210.398 114.307 210.696 117.264C210.942 119.698 207.953 121.921 208.235 122.192C208.498 122.445 210.35 119.774 212.665 119.728C216.164 119.658 220.362 125.589 219.065 129.09C218.024 131.901 213.562 132.82 213.65 133.032C213.733 133.232 217.133 131.051 220.542 131.554C225.423 132.274 230.096 138.465 228.91 142.395C227.585 146.786 219.008 148.146 219.065 148.308C219.125 148.479 227.698 144.086 230.88 146.829C233.014 148.67 232.707 152.959 231.372 155.699C228.584 161.417 219.887 163.443 215.619 160.626C212.3 158.436 214.538 155.219 211.189 148.308C207.075 139.821 199.92 136.876 199.866 130.569C199.861 129.995 199.845 128.148 200.851 127.612C202.456 126.756 205.555 129.836 205.774 129.583C206.01 129.309 201.862 126.309 199.374 121.206C198.591 119.601 196.811 115.949 198.389 113.815C199.193 112.728 200.535 112.484 201.343 112.337V112.337Z" fill="#3C65F5"/>
<path d="M223.986 102.974C228.024 102.239 233.04 104.945 233.339 107.902C233.585 110.336 230.596 112.559 230.877 112.829C231.141 113.083 232.993 110.412 235.308 110.366C238.806 110.296 243.005 116.227 241.708 119.728C240.666 122.539 236.204 123.458 236.293 123.67C236.376 123.87 239.776 121.689 243.184 122.192C248.065 122.912 252.739 129.102 251.553 133.032C250.228 137.424 241.651 138.783 241.708 138.945C241.768 139.117 250.34 134.723 253.522 137.467C255.656 139.307 255.35 143.597 254.014 146.337C251.227 152.054 242.53 154.081 238.262 151.264C234.943 149.074 237.181 145.856 233.831 138.945C229.717 130.458 222.563 127.514 222.509 121.206C222.504 120.633 222.488 118.786 223.493 118.25C225.099 117.394 228.198 120.474 228.416 120.221C228.652 119.947 224.504 116.947 222.017 111.844C221.234 110.239 219.454 106.587 221.032 104.453C221.835 103.366 223.178 103.122 223.986 102.974V102.974Z" fill="#3C65F5"/>
<path d="M251.407 92.0333C247.579 93.5168 244.713 98.4462 246.001 101.124C247.061 103.329 250.769 103.662 250.67 104.04C250.578 104.394 247.605 103.084 245.607 104.255C242.587 106.024 242.1 113.276 245.033 115.584C247.387 117.437 251.672 115.889 251.707 116.116C251.74 116.33 247.703 116.246 245.058 118.457C241.272 121.623 240.515 129.345 243.576 132.077C246.997 135.129 255.022 131.806 255.058 131.974C255.096 132.151 245.493 132.885 244.21 136.888C243.35 139.573 245.849 143.071 248.417 144.71C253.778 148.129 262.252 145.311 264.423 140.679C266.11 137.076 262.523 135.502 261.775 127.857C260.856 118.469 265.422 112.218 262.177 106.81C261.882 106.319 260.932 104.735 259.795 104.803C257.98 104.913 256.944 109.159 256.625 109.057C256.281 108.947 258.254 104.221 257.713 98.5684C257.543 96.7905 257.157 92.7456 254.697 91.7502C253.445 91.2434 252.173 91.7364 251.407 92.0333V92.0333Z" fill="#3C65F5"/>
<path d="M294.878 94.7136C297.292 98.0371 297.031 103.735 294.499 105.287C292.414 106.564 289.117 104.832 288.995 105.204C288.882 105.551 292.089 106.063 293.135 108.131C294.714 111.256 291.197 117.615 287.482 117.963C284.5 118.243 281.738 114.617 281.585 114.789C281.441 114.951 284.879 117.071 285.905 120.364C287.373 125.078 283.828 131.978 279.776 132.613C275.248 133.323 270.304 126.176 270.183 126.298C270.055 126.426 277.728 132.253 276.637 136.313C275.906 139.035 271.912 140.62 268.867 140.603C262.511 140.568 256.915 133.603 257.599 128.532C258.131 124.589 261.999 125.212 266.767 119.194C272.623 111.803 272.171 104.073 277.825 101.288C278.34 101.035 279.995 100.22 280.914 100.894C282.381 101.971 280.952 106.102 281.274 106.189C281.624 106.283 282.525 101.241 286.04 96.7841C287.145 95.3823 289.661 92.1929 292.266 92.6907C293.593 92.9441 294.395 94.0486 294.878 94.7136L294.878 94.7136Z" fill="#3C65F5"/>
<path d="M291.433 131.177C293.846 134.5 293.586 140.198 291.053 141.75C288.969 143.027 285.672 141.295 285.55 141.667C285.436 142.014 288.644 142.526 289.689 144.594C291.269 147.72 287.751 154.078 284.037 154.427C281.055 154.706 278.292 151.081 278.14 151.252C277.996 151.414 281.434 153.534 282.46 156.827C283.928 161.542 280.382 168.442 276.33 169.077C271.803 169.786 266.859 162.639 266.738 162.761C266.61 162.89 274.282 168.716 273.192 172.776C272.461 175.499 268.467 177.083 265.421 177.066C259.065 177.032 253.47 170.066 254.154 164.995C254.686 161.052 258.553 161.675 263.322 155.657C269.178 148.266 268.725 140.536 274.38 137.752C274.894 137.499 276.55 136.683 277.468 137.358C278.935 138.435 277.506 142.565 277.829 142.652C278.178 142.747 279.08 137.704 282.594 133.248C283.7 131.846 286.215 128.656 288.821 129.154C290.148 129.407 290.95 130.512 291.433 131.177H291.433Z" fill="#3C65F5"/>
<path d="M122.819 235.263C122.875 235.738 122.891 236.18 122.859 236.614H99.0221C98.8053 236.18 98.6207 235.73 98.4601 235.263C95.5457 226.882 100.339 212.931 94.2612 192.245C89.7492 176.896 81.3273 164.89 77.4014 159.297C72.5763 152.418 67.1089 146.069 60.7744 135.927C59.4016 133.733 57.9885 131.354 56.5273 128.759C56.0376 127.891 50.3936 117.821 50.9074 117.508C51.1483 117.363 52.6415 119.397 53.1473 120.08C57.6112 126.123 60.2044 128.767 63.9216 133.114C66.1776 135.75 68.843 139.005 72.5843 144.028C82.1783 156.894 86.9713 163.323 88.6413 168.137C89.0828 169.422 91.4352 176.382 95.8669 185.013C98.1309 189.417 99.2629 191.618 99.8811 191.442C101.631 190.935 99.271 172.701 91.8527 154.475C90.5841 151.373 89.6368 149.388 87.8384 145.635C84.916 139.511 68.6423 105.478 56.6799 85.1058C55.1786 82.5422 53.7415 80.2036 52.4168 78.1544C52.1598 77.7687 51.911 77.3909 51.6701 77.0293C50.0002 74.5381 48.523 72.5692 47.2946 71.2995C46.6443 70.6244 44.9904 68.7118 41.6747 64.8705C40.358 63.3436 39.3945 62.2105 38.7442 61.3827C38.6479 61.2622 38.5596 61.1416 38.4874 61.0371C37.7005 60.0085 37.4758 59.5102 37.6604 59.2451C37.9254 58.8673 38.945 59.0843 40.0609 59.4781C40.1814 59.5183 40.3098 59.5665 40.4302 59.6147C41.6426 60.0647 42.8709 60.6514 43.2803 60.8523C47.0377 62.6605 50.7067 65.8991 54.1027 69.7485C55.3632 71.1709 56.5755 72.6736 57.7477 74.2167C61.521 79.1991 64.8127 84.6236 67.3015 89.0837C70.3524 94.5805 72.1829 98.6228 72.1829 98.6228C80.7011 117.452 90.1506 138.989 90.6484 138.804C91.1943 138.603 80.7172 111.794 77.6663 97.2325C76.6467 92.3545 76.4621 88.8507 77.8028 88.1756C77.851 88.1515 77.8992 88.1274 77.9554 88.1113C78.1641 88.039 78.3568 88.047 78.4612 88.0551C78.4612 88.0551 79.7055 87.8943 81.0142 88.1756C82.644 88.5292 84.4986 93.0697 86.305 99.4424C91.0016 115.869 95.4654 144.43 95.4654 144.43C99.9293 172.998 106.705 196.119 108.311 195.862C109.202 195.717 107.926 188.541 109.114 176.575C109.949 168.185 110.896 168.442 113.931 153.269C118.748 129.201 121.157 117.17 121.157 117.106C121.132 116.6 121.068 115.579 121.221 114.518C121.381 113.369 121.791 112.164 122.762 111.481C124.24 110.436 126.616 110.886 127.579 111.481C128.35 111.963 128.744 112.847 128.832 114.117C129.362 122.105 117.897 145.265 113.931 176.575C111.956 192.173 110.872 200.683 113.931 211.934C116.958 223.089 122.232 230.193 122.819 235.263V235.263Z" fill="#3F3D56"/>
<path d="M155.277 33.9308C148.691 32.7313 140.51 37.1443 140.023 41.9671C139.622 45.9371 144.497 49.5617 144.037 50.0034C143.608 50.4161 140.588 46.0603 136.812 45.9852C131.107 45.8718 124.259 55.5438 126.375 61.2541C128.073 65.8381 135.35 67.3374 135.206 67.6832C135.07 68.0092 129.526 64.4517 123.966 65.2723C116.006 66.4471 108.384 76.5427 110.318 82.9521C112.479 90.1138 126.468 92.3314 126.375 92.5956C126.277 92.8749 112.295 85.71 107.106 90.1847C103.626 93.186 104.125 100.182 106.304 104.65C110.85 113.975 125.034 117.28 131.995 112.686C137.407 109.115 133.757 103.867 139.22 92.5956C145.929 78.7544 157.597 73.9525 157.686 63.665C157.694 62.7295 157.72 59.7174 156.08 58.8433C153.462 57.4473 148.408 62.471 148.052 62.0578C147.666 61.6108 154.431 56.7188 158.489 48.3961C159.765 45.7783 162.668 39.8227 160.094 36.3417C158.784 34.5695 156.595 34.1708 155.277 33.9308V33.9308Z" fill="#3C65F5"/>
<path d="M118.348 18.6623C111.761 17.4628 103.581 21.8758 103.093 26.6985C102.692 30.6685 107.567 34.2932 107.108 34.7348C106.678 35.1476 103.658 30.7917 99.8821 30.7167C94.1768 30.6033 87.3293 40.2752 89.4451 45.9856C91.1434 50.5695 98.4205 52.0688 98.2764 52.4146C98.1405 52.7407 92.596 49.1832 87.0365 50.0037C79.0765 51.1785 71.4542 61.2741 73.3881 67.6835C75.549 74.8452 89.538 77.0629 89.4451 77.327C89.3469 77.6063 75.3656 70.4414 70.1767 74.9162C66.6964 77.9174 67.1955 84.9137 69.3739 89.3814C73.9205 98.7064 88.1043 102.011 95.065 97.4177C100.477 93.8462 96.8275 88.5981 102.291 77.327C109 63.4858 120.668 58.684 120.756 48.3965C120.764 47.4609 120.79 44.4488 119.15 43.5747C116.532 42.1787 111.478 47.2024 111.122 46.7892C110.737 46.3422 117.502 41.4502 121.559 33.1276C122.835 30.5098 125.739 24.5541 123.165 21.0732C121.854 19.3009 119.665 18.9023 118.348 18.6623V18.6623Z" fill="#3C65F5"/>
<path d="M73.6242 0.818315C79.8671 3.2378 84.5417 11.2771 82.4415 15.6449C80.7126 19.2403 74.6643 19.7837 74.8257 20.4004C74.9766 20.9769 79.8249 18.8407 83.0842 20.7502C88.009 23.6355 88.8035 35.4631 84.0202 39.2273C80.1805 42.249 73.1922 39.7242 73.1347 40.0944C73.0805 40.4436 79.6649 40.3075 83.9783 43.9131C90.1541 49.0755 91.3883 61.6694 86.3955 66.1248C80.8166 71.1032 67.7293 65.6829 67.6707 65.9568C67.6088 66.2463 83.2703 67.4433 85.3613 73.9716C86.7639 78.3503 82.6885 84.0562 78.5001 86.7279C69.7581 92.3043 55.9377 87.7092 52.3974 80.1537C49.6446 74.2788 55.4951 71.7107 56.7154 59.2428C58.214 43.9318 50.7679 33.738 56.059 24.9181C56.5402 24.1161 58.0894 21.5337 59.9438 21.6452C62.9052 21.8232 64.5946 28.7491 65.1139 28.5829C65.6757 28.403 62.4581 20.6951 63.3395 11.4765C63.6167 8.57692 64.2473 1.98012 68.2583 0.356695C70.3004 -0.469852 72.3751 0.334233 73.6242 0.81833V0.818315Z" fill="#3C65F5"/>
<path d="M2.73055 5.18952C-1.20562 10.6098 -0.780819 19.902 3.3493 22.433C6.74907 24.5165 12.1261 21.6917 12.3244 22.2976C12.5098 22.8638 7.27867 23.6991 5.57364 27.0721C2.99729 32.1687 8.73426 42.5393 14.7923 43.1075C19.6552 43.5636 24.1609 37.6504 24.4096 37.9303C24.6442 38.1943 19.0372 41.6523 17.3648 47.0225C14.9703 54.7114 20.7526 65.9645 27.3609 66.9999C34.745 68.1568 42.8081 56.5014 43.0056 56.6997C43.2144 56.9094 30.7012 66.4124 32.479 73.0331C33.6714 77.4737 40.1859 80.0577 45.1524 80.0305C55.5184 79.9738 64.6445 68.6141 63.5284 60.3438C62.6605 53.9134 56.3533 54.9293 48.5765 45.1138C39.0263 33.06 39.7639 20.4536 30.5416 15.9123C29.7029 15.4994 27.0027 14.1697 25.5047 15.2695C23.1124 17.0258 25.443 23.7627 24.9166 23.9048C24.3471 24.0584 22.8772 15.8352 17.1448 8.56638C15.3417 6.28008 11.2396 1.07849 6.98985 1.89036C4.82617 2.30367 3.51805 4.10503 2.7305 5.18953L2.73055 5.18952Z" fill="#3C65F5"/>
<path d="M8.34774 64.658C4.41156 70.0783 4.83637 79.3705 8.96648 81.9015C12.3663 83.985 17.7432 81.1602 17.9416 81.7661C18.1269 82.3323 12.8959 83.1676 11.1908 86.5406C8.61448 91.6372 14.3515 102.008 20.4095 102.576C25.2724 103.032 29.7781 97.1189 30.0268 97.3988C30.2614 97.6628 24.6544 101.121 22.982 106.491C20.5875 114.18 26.3697 125.433 32.9781 126.468C40.3622 127.625 48.4253 115.97 48.6228 116.168C48.8316 116.378 36.3184 125.881 38.0962 132.502C39.2886 136.942 45.8031 139.526 50.7696 139.499C61.1356 139.442 70.2617 128.083 69.1455 119.812C68.2777 113.382 61.9705 114.398 54.1937 104.582C44.6435 92.5285 45.3811 79.9221 36.1587 75.3808C35.3201 74.9679 32.6198 73.6382 31.1219 74.738C28.7296 76.4944 31.0602 83.2312 30.5338 83.3733C29.9643 83.5269 28.4944 75.3037 22.762 68.0349C20.9589 65.7486 16.8568 60.547 12.607 61.3589C10.4434 61.7722 9.13524 63.5735 8.34769 64.658H8.34774Z" fill="#3C65F5"/>
<path d="M48.678 236.966C48.678 237.156 48.8276 237.306 49.0175 237.306H361.484V236.626H49.0175C48.8276 236.626 48.678 236.78 48.678 236.966V236.966Z" fill="#E6E6E6"/>
</g>
</svg>
