<svg width="129" height="143" viewBox="0 0 129 143" fill="none" xmlns="http://www.w3.org/2000/svg">
<g opacity="0.3" clip-path="url(#clip0_231_9663)">
<path d="M95.7184 70.8797C95.7184 50.6512 78.6035 39.5233 59.0535 34.2527C33.9886 27.4954 15.6314 41.1692 22.3886 70.8797C23.9201 77.6133 27.583 85.4778 32.117 92.2051H68.0965C80.1149 84.3887 95.7184 86.5808 95.7184 70.8797Z" fill="#3C65F5"/>
<path d="M77.1704 16.9366V73.9255C77.1704 78.9653 73.0662 83.0653 68.0213 83.0653H10.9734C5.92842 83.0653 1.82422 78.9653 1.82422 73.9255V16.9366C1.82422 11.8968 5.92842 7.79688 10.9734 7.79688H68.0213C73.0662 7.79688 77.1704 11.8968 77.1704 16.9366ZM68.0213 81.99C72.4798 81.99 76.0941 78.3794 76.0941 73.9255V45.194C76.0941 25.134 59.8154 8.87214 39.7346 8.87214H10.9734C6.51491 8.87214 2.90059 12.4827 2.90059 16.9366V73.9255C2.90059 78.3794 6.51491 81.99 10.9734 81.99H68.0213Z" fill="#05264E"/>
<path d="M32.7436 127.146H14.3265C13.8622 127.146 13.4844 126.769 13.4844 126.305C13.4844 125.841 13.8622 125.464 14.3265 125.464H32.7436C33.2079 125.464 33.5855 125.841 33.5855 126.305C33.5855 126.769 33.2079 127.146 32.7436 127.146V127.146Z" fill="#05264E"/>
<path d="M117.775 1.68231H99.3577C98.8934 1.68231 98.5156 1.3049 98.5156 0.841065C98.5156 0.377234 98.8934 0 99.3577 0H117.775C118.239 0 118.617 0.377234 118.617 0.841065C118.617 1.3049 118.239 1.6823 117.775 1.6823V1.68231Z" fill="#05264E"/>
<path d="M117.775 19.6196H99.3577C98.8934 19.6196 98.5156 19.2422 98.5156 18.7783C98.5156 18.3145 98.8934 17.9373 99.3577 17.9373H117.775C118.239 17.9373 118.617 18.3145 118.617 18.7783C118.617 19.2422 118.239 19.6196 117.775 19.6196V19.6196Z" fill="#05264E"/>
<path d="M127.658 10.6569H89.4749C89.0106 10.6569 88.6328 10.2795 88.6328 9.81567C88.6328 9.35184 89.0106 8.97461 89.4749 8.97461H127.658C128.122 8.97461 128.5 9.35184 128.5 9.81567C128.5 10.2795 128.122 10.6569 127.658 10.6569V10.6569Z" fill="#05264E"/>
<path d="M89.5434 142.205H9.90847C5.15571 142.205 1.28906 138.342 1.28906 133.594V104.579C1.28906 99.8312 5.15571 95.9685 9.90847 95.9685H89.5434C94.2961 95.9685 98.1628 99.8312 98.1628 104.579V133.594C98.1628 138.342 94.2961 142.205 89.5434 142.205ZM9.90847 97.0438C5.74934 97.0438 2.36544 100.424 2.36544 104.579V133.594C2.36544 137.749 5.74935 141.13 9.90847 141.13H89.5434C93.7025 141.13 97.0864 137.749 97.0864 133.594V104.579C97.0864 100.424 93.7025 97.0438 89.5434 97.0438H9.90847Z" fill="#05264E"/>
<path d="M120.119 92.205H110.508C94.2048 92.205 80.9414 78.9553 80.9414 62.6694V53.0681C80.9414 49.7463 83.6465 47.0439 86.9716 47.0439H120.119C123.444 47.0439 126.149 49.7463 126.149 53.0681V86.1808C126.149 89.5026 123.444 92.205 120.119 92.205ZM86.9716 48.1192C84.2357 48.1192 82.0178 50.3348 82.0178 53.0679V62.6694C82.0178 78.3876 94.7731 91.1297 110.508 91.1297H120.119C122.855 91.1297 125.073 88.9141 125.073 86.181V65.0906C125.073 55.7175 117.467 48.1192 108.084 48.1192H86.9716Z" fill="#05264E"/>
<path d="M58.5151 109.12C60.5617 105.222 63.1564 102.41 66.0156 100.27H32.3164C40.9898 112.646 52.4921 120.589 58.5151 109.12Z" fill="#3C65F5"/>
</g>
<defs>
<clipPath id="clip0_231_9663">
<rect width="128" height="143" fill="white" transform="translate(0.5)"/>
</clipPath>
</defs>
</svg>
