<svg width="107" height="107" viewBox="0 0 107 107" fill="none" xmlns="http://www.w3.org/2000/svg">
<g clip-path="url(#clip0_231_9989)">
<g opacity="0.6">
<path d="M41.3789 35.4988V39.765H41.1438C37.5862 39.765 34.6914 42.6598 34.6914 46.2175V66.6482C34.6914 70.2066 37.5862 73.1006 41.1438 73.1006H65.8563C69.4139 73.1006 72.3087 70.2066 72.3087 66.6482V46.2175C72.3087 42.6598 69.4139 39.765 65.8563 39.765H65.6212V35.4988C65.6212 28.8154 60.1835 23.3777 53.5001 23.3777C46.8166 23.3777 41.3789 28.8146 41.3789 35.4988ZM68.129 46.2175V66.6482C68.129 67.9013 67.1094 68.9209 65.8563 68.9209H41.1438C39.8907 68.9209 38.8711 67.9013 38.8711 66.6482V46.2175C38.8711 44.9644 39.8907 43.9447 41.1438 43.9447H65.8563C67.1094 43.9447 68.129 44.9644 68.129 46.2175ZM61.4415 35.4988V39.765H45.5586V35.4988C45.5586 31.1199 49.1212 27.5574 53.5001 27.5574C57.8789 27.5574 61.4415 31.1199 61.4415 35.4988Z" fill="#05264E"/>
<path d="M53.5 48.0618C50.0428 48.0618 47.2305 50.8749 47.2305 54.3313C47.2305 57.0563 48.9775 59.3788 51.4102 60.2417V61.8785C51.4102 63.0328 52.3457 63.9683 53.5 63.9683C54.6535 63.9683 55.5899 63.0328 55.5899 61.8785V60.2417C58.0218 59.3788 59.7696 57.0563 59.7696 54.3313C59.7696 50.8749 56.9573 48.0618 53.5 48.0618ZM53.5 56.4212C52.3473 56.4212 51.4102 55.484 51.4102 54.3313C51.4102 53.1795 52.3473 52.2415 53.5 52.2415C54.6519 52.2415 55.5899 53.1795 55.5899 54.3313C55.5899 55.484 54.6519 56.4212 53.5 56.4212Z" fill="#05264E"/>
</g>
<g opacity="0.5">
<path d="M98.5307 16.5433L84.7058 11.4215C83.6234 11.0207 82.4217 11.5734 82.0201 12.655C81.6192 13.7375 82.1719 14.94 83.2544 15.3408L95.7151 19.9573V45.0093C95.7151 71.5847 78.7775 94.6963 53.5001 102.721C28.2227 94.6963 11.2852 71.5847 11.2852 45.0093V19.9573L53.5001 4.31848L65.6131 8.80594C66.6956 9.20759 67.8981 8.65492 68.2989 7.57244C68.6997 6.48996 68.1479 5.28748 67.0654 4.88666L54.2259 0.129799C53.7581 -0.0432664 53.2422 -0.0432664 52.7744 0.129799L8.46959 16.5433C7.64916 16.847 7.10547 17.629 7.10547 18.5033V45.0093C7.10547 58.9689 11.4933 72.2811 19.7948 83.5042C28.0962 94.7282 39.5398 102.821 52.8879 106.908C53.0879 106.969 53.2936 107 53.5001 107C53.7067 107 53.9124 106.969 54.1124 106.908C67.4605 102.821 78.9041 94.7282 87.2055 83.5042C95.5069 72.2811 99.8948 58.9689 99.8948 45.0093V18.5033C99.8948 17.629 99.3503 16.847 98.5307 16.5433Z" fill="#3C65F5"/>
<path d="M52.7425 10.6361L18.469 23.9662C17.6657 24.2781 17.1367 25.052 17.1367 25.914V45.0092C17.1367 56.3262 20.518 67.16 26.9149 76.3382C33.2898 85.4854 42.2321 92.3835 52.7744 96.2865C53.0087 96.373 53.2544 96.4163 53.5001 96.4163C53.7458 96.4163 53.9915 96.373 54.2258 96.2865C64.7682 92.3835 73.7104 85.4854 80.0853 76.3382C86.4822 67.16 89.8635 56.3262 89.8635 45.0092V25.914C89.8635 25.052 89.3345 24.2789 88.5312 23.9662L54.2577 10.6369C53.7703 10.4467 53.2299 10.4467 52.7425 10.6361ZM85.6838 45.0092C85.6838 66.1175 73.0778 84.5139 53.5001 92.0921C33.9216 84.5139 21.3164 66.1175 21.3164 45.0092V27.3435L53.5001 14.8264L85.6838 27.3435V45.0092Z" fill="#3C65F5"/>
<path d="M75.1602 12.2044C75.7104 12.2044 76.2492 11.9807 76.6378 11.5921C77.0263 11.2011 77.25 10.6647 77.25 10.1145C77.25 9.56511 77.0263 9.0255 76.6378 8.63529C76.2492 8.2467 75.7104 8.02466 75.1602 8.02466C74.6108 8.02466 74.072 8.2467 73.6826 8.63529C73.2948 9.0255 73.0703 9.56266 73.0703 10.1145C73.0703 10.6647 73.294 11.2035 73.6826 11.5921C74.072 11.9807 74.6108 12.2044 75.1602 12.2044Z" fill="#3C65F5"/>
</g>
</g>
<defs>
<clipPath id="clip0_231_9989">
<rect width="107" height="107" fill="white"/>
</clipPath>
</defs>
</svg>
