<svg width="228" height="149" viewBox="0 0 228 149" fill="none" xmlns="http://www.w3.org/2000/svg">
<g clip-path="url(#clip0_1932_5839)">
<path d="M51.4209 68.9503H35.2848C34.7313 68.9503 34.2809 68.5024 34.2809 67.9519C34.2809 67.4015 34.7313 66.9536 35.2848 66.9536H51.4209C51.9745 66.9536 52.4249 67.4015 52.4249 67.9519C52.4249 68.5024 51.9745 68.9503 51.4209 68.9503Z" fill="#E6E7E8"/>
<path d="M64.0136 72.3292H35.2848C34.7313 72.3292 34.2809 71.8813 34.2809 71.3308C34.2809 70.7804 34.7313 70.3325 35.2848 70.3325H64.0136C64.5672 70.3325 65.0175 70.7804 65.0175 71.3308C65.0175 71.8813 64.5672 72.3292 64.0136 72.3292Z" fill="#E6E7E8"/>
<path d="M64.0136 75.6777H35.2848C34.7313 75.6777 34.2809 75.2299 34.2809 74.6794C34.2809 74.129 34.7313 73.6811 35.2848 73.6811H64.0136C64.5672 73.6811 65.0175 74.129 65.0175 74.6794C65.0175 75.2299 64.5672 75.6777 64.0136 75.6777Z" fill="#E6E7E8"/>
<path d="M67.0567 93.0548V92.5765C61.5039 92.5765 56.655 88.066 55.3658 81.7832L57.4579 82.3184C56.446 81.3651 55.4237 79.7691 54.7895 78.4647C54.415 79.865 53.7154 81.6247 52.9034 82.7515L54.883 81.819C56.1993 88.3555 61.2567 93.0548 67.0567 93.0548Z" fill="#3F3D56"/>
<path d="M64.9563 74.7482C64.9563 75.2757 64.5247 75.7049 63.9942 75.7049H51.4865C50.956 75.7049 50.5244 75.2757 50.5244 74.7482C50.5244 74.2206 50.956 73.7914 51.4865 73.7914H63.9942C64.5247 73.7914 64.9563 74.2206 64.9563 74.7482Z" fill="#6ABAA2"/>
<path d="M8.63604 128.042C8.44563 127.383 8.11958 126.821 7.73138 126.419L6.32098 120.026L3.2467 120.775L5.00841 127.18C4.89256 127.722 4.91574 128.369 5.10615 129.028C5.54113 130.534 6.68394 131.534 7.65869 131.262C8.63345 130.99 9.07102 129.548 8.63604 128.042H8.63604Z" fill="#FFB6B6"/>
<path d="M8.21072 86.1037C8.21072 86.1037 4.89019 85.9897 2.96593 88.1424C0.761322 90.8204 -0.745628 101.313 0.385645 102.02L3.45067 123.663L7.82133 123.065L6.69961 97.0976L8.21072 86.1037V86.1037Z" fill="#6ABAA2"/>
<path d="M30.6271 122.585L29.8316 148.999H18.4063L17.9445 138.817L15.9144 148.999H3.66891L5.19629 131.496L6.77418 127.815L7.84214 125.32L30.6271 122.585Z" fill="#2F2E41"/>
<path d="M21.5525 81.7891L13.6149 81.3107L10.9691 84.6593C8.68395 85.1458 6.61997 85.7739 5.1963 86.8119C5.53691 96.8398 4.78868 109.879 7.84216 112.404L5.13074 131.434C5.13074 131.434 6.22418 130.503 8.05072 130.832C8.68174 130.945 9.44348 132.359 10.2189 132.445C16.1768 133.103 25.8384 132.426 30.6271 122.585L28.7684 108.338L29.2495 87.5295C27.7456 86.3474 25.8759 85.5791 23.7173 85.1376L21.5525 81.7891V81.7891H21.5525Z" fill="#6ABAA2"/>
<path d="M36.8335 75.9677C36.9197 76.7969 36.8103 77.5767 36.5585 78.202L37.8807 86.05L34.1068 86.5664L33.1719 78.5498C32.7968 77.9889 32.5295 77.2477 32.4434 76.4185C32.2466 74.5241 33.0699 72.8875 34.2822 72.763C35.4945 72.6385 36.6368 74.0733 36.8335 75.9677V75.9677H36.8335H36.8335Z" fill="#FFB6B6"/>
<path d="M24.2866 88.129C23.8915 88.7087 24.0016 89.3604 23.9073 90.1433C23.5067 93.4671 29.912 103.289 34.344 104.42C34.9256 104.568 35.2569 105.192 35.8439 105.317H35.8439C37.5829 105.689 39.2019 104.316 39.1081 102.55L37.9042 79.8978L32.8464 81.6132L33.1702 93.3739C33.1379 90.9375 30.8881 88.4567 29.1839 87.4248C29.1839 87.4248 25.732 86.0084 24.2866 88.129L24.2866 88.129Z" fill="#6ABAA2"/>
<path d="M18.4074 80.6918C22.2688 80.6918 25.3991 77.579 25.3991 73.7393C25.3991 69.8995 22.2688 66.7868 18.4074 66.7868C14.546 66.7868 11.4157 69.8995 11.4157 73.7393C11.4157 77.579 14.546 80.6918 18.4074 80.6918Z" fill="#FFB6B6"/>
<path d="M24.9199 68.6341C24.8598 68.6484 25.8403 67.6981 25.882 67.6773C26.8442 67.199 25.8556 71.875 25.1604 71.7434C23.4502 71.4205 22.7118 70.7795 22.048 72.3796C21.8627 72.8245 21.7473 73.3268 21.3865 73.6449C20.891 74.0778 20.0684 74.042 19.6643 74.5586C19.3396 74.9748 19.4334 75.5871 19.6739 76.0559C19.9144 76.5271 20.2801 76.9265 20.4989 77.4073C20.7443 77.9478 19.698 79.6675 19.2987 80.6338V80.6362L19.2963 80.6419C19.1902 80.8953 18.9381 80.1652 18.6719 80.0923C18.3534 80.0051 17.8841 80.753 17.3768 80.6171C17.3744 80.6171 17.372 80.6147 17.3696 80.6147C16.8861 80.4807 16.3473 80.3372 15.8134 80.1937H15.811C14.3076 79.7871 13.9276 80.3707 13.8554 80.354L12.9222 79.3829C12.6019 79.151 12.6381 78.4024 12.4122 78.2013C12.2275 78.0369 11.7671 78.4169 11.6314 78.2588C10.966 77.4839 10.8129 76.7086 10.4206 75.1781C10.0622 73.7789 9.319 69.5908 10.8464 69.4018C12.2872 69.2224 11.2336 67.2277 12.684 67.3018C12.5975 66.9382 12.7586 66.5484 13.0208 66.2805C13.2806 66.0102 13.6269 65.8428 13.9757 65.6993C15.6955 65.0009 15.4093 64.4005 17.2229 64.8071C17.4033 64.556 19.7166 63.9013 20.0437 63.985C20.0677 63.9898 19.5392 65.0105 20.8309 64.8071C20.7827 65.1013 21.4869 64.4634 21.5525 65.5247C22.9301 64.7025 23.6715 66.6704 23.7172 66.9598C23.7774 67.3209 23.229 67.1368 23.5946 67.1918C23.8111 67.2253 24.1815 67.663 24.1454 67.8806C24.3017 67.6701 24.4581 67.4621 24.6168 67.2516C24.6457 67.254 24.6721 67.2588 24.701 67.2635C25.4322 67.4023 24.5939 69.7792 24.6241 69.0383C24.6794 67.6773 25.6487 68.4738 24.9199 68.6341H24.9199Z" fill="#2F2E41"/>
<path d="M114.101 67.2087C113.843 69.32 113.561 71.4284 113.254 73.5334C113.13 74.3884 112.999 75.2542 112.653 76.0467C112.417 76.5876 112.086 77.0815 111.757 77.5721C111.368 78.1519 110.973 78.7391 110.445 79.1974C109.918 79.6557 109.232 79.9775 108.533 79.9237C110.387 78.6829 111.633 76.5843 111.83 74.371C111.922 73.3306 111.795 72.2848 111.771 71.2407C111.747 70.1965 111.834 69.116 112.319 68.1893C112.803 67.2626 113.76 66.5208 114.81 66.5471L114.101 67.2087H114.101Z" fill="#2F2E41"/>
<path d="M95.3151 112.24C93.8069 113.457 91.9531 113.669 91.1747 112.715C90.3962 111.76 90.9878 110 92.4961 108.784C93.1563 108.251 93.8827 107.911 94.5562 107.777L101.012 102.703L103.342 105.766L96.7308 110.444C96.4599 111.071 95.9753 111.708 95.3151 112.24H95.3151L95.3151 112.24L95.3151 112.24Z" fill="#A0616A"/>
<path d="M96.5346 105.351L106.154 96.2746L107.116 95.557C107.116 95.557 112.638 90.2073 114.068 90.0848C114.674 90.0331 115.279 90.1832 115.79 90.5128C116.614 91.0443 117.041 91.9191 117.041 92.8009C117.041 93.5377 116.742 94.278 116.132 94.8233L107.325 102.685L103.578 106.029L98.9189 110.19L98.4451 109.23L96.8434 105.979L96.5345 105.351V105.351L96.5346 105.351H96.5346Z" fill="#6ABAA2"/>
<path d="M117.104 99.2084L107.472 102.142C109.085 102.594 109.76 112.364 108.259 112.668C108.259 112.668 124.222 113.797 123.351 112.668C122.289 111.292 123.713 102.146 124.392 102.142L117.104 99.2084Z" fill="#A0616A"/>
<path d="M129.92 149L129.078 138.897C129.078 135.283 128.843 132.018 128.465 129.107C126.952 117.423 123.159 111.434 123.159 111.434H108.967C108.948 111.456 108.929 111.472 108.91 111.494L108.907 111.496C105.559 114.996 103.818 123.795 103.043 129.107C102.675 131.635 102.526 133.374 102.526 133.374L101.138 145.64L102.141 149H110.399L110.269 148.28L115.582 129.107L115.647 128.873L115.705 129.107L120.631 149H129.92V149Z" fill="#2F2E41"/>
<path d="M109.258 93.3803L112.257 87.3608L114.784 82.9875L116.827 80.9168H122.419L122.94 82.9875L126.063 84.7131L127.168 93.341L123.232 112.061C118.547 108.264 108.89 107.213 108.89 107.213L107.325 102.685L106.291 97.2304L106.166 96.5782L109.258 93.3803V93.3803V93.3803Z" fill="#6ABAA2"/>
<path d="M108.898 104.269C106.957 104.215 105.412 103.174 105.447 101.946C105.482 100.718 107.084 99.7663 109.025 99.821C109.875 99.845 110.649 100.058 111.248 100.393L119.47 100.727L119.23 104.561L111.15 103.824C110.533 104.124 109.748 104.293 108.898 104.269L108.898 104.269V104.269Z" fill="#A0616A"/>
<path d="M119.414 91.1843L127.17 98.8415L113.66 100.217L110.52 104.609L129.351 105.23C131.05 105.831 132.86 104.664 133 102.876V102.876C133.047 102.272 129.178 86.9528 126.836 85.5306C124.091 83.8637 119.414 91.1843 119.414 91.1843L120.946 88.6482L119.414 91.1843Z" fill="#6ABAA2"/>
<path d="M124.802 73.4034C124.858 69.9254 122.068 67.0604 118.571 67.0043C115.073 66.9482 112.192 69.7223 112.135 73.2003C112.079 76.6784 114.869 79.5433 118.366 79.5994C121.864 79.6555 124.745 76.8814 124.802 73.4034Z" fill="#A0616A"/>
<path d="M132.372 92.926C132.213 93.524 130.977 93.8325 130.688 94.6003C129.77 95.1217 130.268 90.8619 129.897 90.582C129.611 90.3691 129.534 90.8834 129.469 90.4409C129.224 88.781 127.619 89.1517 126.431 88.8838C126.296 88.6231 126.193 88.3696 126.126 88.1232C126.005 87.6783 125.457 87.5229 125.132 87.8505C124.985 87.7214 124.88 87.2645 124.776 86.8077C124.702 86.4752 124.627 86.1428 124.54 85.9323L123.713 84.0763L123.98 85.4587C123.439 85.265 122.893 85.4659 122.578 84.801C122.174 83.9471 122.012 82.9473 122.306 82.0504C122.573 81.2372 123.023 79.6083 123.53 78.2593C122.955 78.6731 122.265 78.9745 121.464 79.1252C121.748 78.5894 122.037 78.0441 122.157 77.4485C122.275 76.853 122.202 76.1904 121.822 75.7168C121.51 75.327 121.048 75.425 120.658 75.1117C120.355 74.8677 120.093 74.2435 119.91 73.9014C120.69 76.4774 121.279 79.2137 120.288 81.6725C119.602 83.3755 118.159 84.7603 116.427 85.3894C117.349 84.734 118.248 84.0356 118.938 83.1458C119.677 82.1915 120.158 80.986 120.011 79.7901C119.78 77.9125 116.278 71.9736 115.848 70.8064C116.083 71.9473 115.992 72.8371 115.371 73.3274C115.21 71.6723 113.397 71.8229 112.408 71.1604C112.408 71.1604 111.643 66.8623 113.438 66.836C114.303 66.8241 115.21 64.8006 115.997 64.4394C117.252 63.863 118.022 64.2552 119.415 64.2983C120.805 64.3389 122.14 64.9345 122.989 66.0276C123.434 66.5992 123.598 66.1448 124.266 66.5011C124.901 66.8384 125.329 66.5251 126.049 66.5466C127.489 66.5849 128.887 67.3503 129.695 68.5342C130.503 69.7205 131.001 69.6105 130.681 71.445C130.676 71.4666 130.676 71.5096 130.681 71.5742C130.857 74.4635 130.407 77.36 129.255 80.0197C128.899 80.8377 130.64 81.682 130.638 82.7033C130.635 83.8897 128.714 84.9708 128.892 85.4779C129.402 87.9199 132.266 87.377 131.59 91.4646C131.535 91.797 132.478 92.5266 132.372 92.926Z" fill="#2F2E41"/>
<path d="M114.825 85.447C114.878 85.4303 114.931 85.4111 114.984 85.3896C114.916 85.4374 114.851 85.4829 114.784 85.5307L114.825 85.447H114.825Z" fill="#2F2E41"/>
<path d="M123.747 65.2958C123.058 65.3976 122.358 64.2609 122.749 62.6845C123.601 63.9808 124.037 65.44 124.106 67.0429L123.646 67.1845L123.747 65.2958Z" fill="#6ABAA2"/>
<path d="M127.267 63.8244C126.797 65.4811 124.409 66.5899 123.987 66.0133L123.939 67.0013L123.644 66.6237C124.5 65.3574 125.667 64.3859 127.267 63.8244H127.267Z" fill="#6ABAA2"/>
<path d="M74.8345 108.5C74.8345 107.95 75.2849 107.502 75.8385 107.502H91.9746C92.5281 107.502 92.9785 107.95 92.9785 108.5C92.9785 109.051 92.5281 109.498 91.9746 109.498H75.8385C75.2849 109.498 74.8345 109.051 74.8345 108.5Z" fill="#E6E7E8"/>
<path d="M74.8345 115.197C74.8345 114.647 75.2849 114.199 75.8385 114.199H91.9746C92.5281 114.199 92.9785 114.647 92.9785 115.197C92.9785 115.748 92.5281 116.196 91.9746 116.196H75.8385C75.2849 116.196 74.8345 115.748 74.8345 115.197Z" fill="#E6E7E8"/>
<path d="M63.2458 112.877C62.6923 112.877 62.2419 112.43 62.2419 111.879C62.2419 111.329 62.6923 110.881 63.2458 110.881H91.9746C92.5281 110.881 92.9785 111.329 92.9785 111.879C92.9785 112.43 92.5281 112.877 91.9746 112.877H63.2458Z" fill="#E6E7E8"/>
<path d="M61.1101 103.323L59.1305 102.39C59.9424 103.517 60.642 105.277 61.0166 106.677C61.6508 105.372 62.6731 103.776 63.685 102.823L61.5928 103.358C62.882 97.0755 67.731 92.5651 73.2837 92.5651V92.0867C67.4837 92.0867 62.4264 96.7861 61.1101 103.323Z" fill="#3F3D56"/>
<path d="M70.2212 112.896H57.7135C57.183 112.896 56.7514 112.466 56.7514 111.939C56.7514 111.411 57.183 110.982 57.7135 110.982H70.2212C70.7517 110.982 71.1833 111.411 71.1833 111.939C71.1833 112.466 70.7517 112.896 70.2212 112.896Z" fill="#6ABAA2"/>
<path d="M73.8743 93.3291C74.2074 91.2876 72.8132 89.364 70.7601 89.0326C68.707 88.7013 66.7725 90.0878 66.4393 92.1294C66.1061 94.171 67.5004 96.0946 69.5535 96.4259C71.6066 96.7572 73.5411 95.3707 73.8743 93.3291Z" fill="#3F3D56"/>
<path d="M49.7116 65.6197C50.9945 65.6197 52.0345 64.5856 52.0345 63.3099C52.0345 62.0342 50.9945 61 49.7116 61C48.4287 61 47.3887 62.0342 47.3887 63.3099C47.3887 64.5856 48.4287 65.6197 49.7116 65.6197Z" fill="#E6E7E8"/>
<path d="M76.8917 105.563C78.1746 105.563 79.2146 104.529 79.2146 103.253C79.2146 101.978 78.1746 100.943 76.8917 100.943C75.6088 100.943 74.5688 101.978 74.5688 103.253C74.5688 104.529 75.6088 105.563 76.8917 105.563Z" fill="#E6E7E8"/>
</g>
<path d="M199.591 4.25119C199.827 3.32234 198.932 2.29504 197.591 1.95666C196.251 1.61829 194.972 2.09697 194.736 3.02582C194.5 3.95467 195.395 4.98195 196.736 5.32033C198.076 5.6587 199.355 5.18004 199.591 4.25119Z" fill="#3F3D56"/>
<path d="M219.036 17.8844C219.272 16.9556 218.377 15.9283 217.036 15.5899C215.696 15.2515 214.417 15.7302 214.181 16.659C213.944 17.5879 214.84 18.6152 216.18 18.9536C217.521 19.2919 218.799 18.8133 219.036 17.8844Z" fill="#FF6584"/>
<path d="M222.852 22.9854C222.949 22.1203 222.538 21.3644 221.934 21.2972C221.33 21.2299 220.761 21.8768 220.664 22.7419C220.567 23.6071 220.978 24.3629 221.582 24.4302C222.187 24.4974 222.755 23.8506 222.852 22.9854Z" fill="#E6E6E6"/>
<path d="M224.201 33.2016C224.298 32.3364 223.887 31.5805 223.282 31.5133C222.678 31.446 222.11 32.0929 222.012 32.958C221.915 33.8232 222.327 34.5791 222.931 34.6463C223.535 34.7136 224.104 34.0667 224.201 33.2016Z" fill="#3F3D56"/>
<path d="M207.46 13.731C207.557 12.8659 207.146 12.11 206.542 12.0428C205.937 11.9755 205.369 12.6224 205.272 13.4875C205.175 14.3527 205.586 15.1085 206.19 15.1758C206.795 15.243 207.363 14.5962 207.46 13.731Z" fill="#E6E6E6"/>
<path d="M215.7 10.6483C215.797 9.78313 215.386 9.02727 214.781 8.96002C214.177 8.89277 213.608 9.5396 213.511 10.4048C213.414 11.2699 213.825 12.0258 214.43 12.093C215.034 12.1603 215.603 11.5134 215.7 10.6483Z" fill="#FF6584"/>
<path d="M205.549 2.31973C205.646 1.45458 205.235 0.698717 204.631 0.631468C204.026 0.564219 203.458 1.21105 203.361 2.0762C203.264 2.94136 203.675 3.69722 204.279 3.76447C204.883 3.83171 205.452 3.18489 205.549 2.31973Z" fill="#3F3D56"/>
<path d="M184.155 115.002C179.89 115.002 175.764 113.485 172.523 110.724C171.441 109.802 170.289 108.199 169.098 105.961C168.338 104.519 167.912 102.925 167.852 101.298C167.792 99.67 168.099 98.0498 168.751 96.556C168.123 97.1925 167.428 97.7601 166.678 98.2492L166.299 98.5003L166.277 98.0478C166.263 97.7535 166.256 97.4601 166.256 97.1759C166.256 95.5011 167.528 93.8017 166.941 92.2536C164.469 85.7289 156.627 79.2447 167.992 69.1469C169.043 68.2128 167.639 66.3451 167.639 64.9319C167.639 51.0813 187.295 27.1193 192.865 39.813C199.736 55.4676 211.572 53.7932 216.816 57.0266L216.892 57.2553L216.668 57.3457C215.52 57.826 214.311 58.1462 213.076 58.2971C214.393 58.5647 215.737 58.6768 217.081 58.6313L217.289 58.624L217.34 58.8257C217.84 60.8229 218.092 62.8736 218.092 64.9319L218.091 65.1543C218.086 66.7177 218.413 68.2646 219.049 69.694C219.684 71.1234 220.616 72.4033 221.781 73.4502C223.623 75.1224 225.095 77.1583 226.102 79.4283C227.11 81.6982 227.632 84.1524 227.634 86.6343C227.634 89.5706 225.631 93.4249 223.949 96.1413C223.523 96.8332 222.946 97.4201 222.259 97.8579C221.573 98.2957 220.796 98.573 219.987 98.6691C219.22 98.7654 218.442 98.6927 217.707 98.4561C216.972 98.2196 216.298 97.825 215.733 97.3003C216.528 98.8936 217.565 100.356 218.807 101.635L219.036 101.871L218.751 102.036C216.015 103.625 212.903 104.462 209.735 104.461L209.55 104.46C207.227 104.436 204.922 104.874 202.772 105.749C200.621 106.623 198.667 107.916 197.024 109.552C195.352 111.268 193.352 112.634 191.142 113.57C188.932 114.506 186.557 114.993 184.155 115.002Z" fill="#E6E6E6"/>
<path d="M177.997 143.233C177.92 143.233 177.845 143.205 177.786 143.154C177.728 143.104 177.69 143.034 177.679 142.957C176.837 135.482 176.787 127.939 177.529 120.452C178.64 108.643 182.208 91.6326 192.896 77.6625C192.922 77.629 192.954 77.6009 192.99 77.5797C193.027 77.5586 193.067 77.5448 193.109 77.5391C193.151 77.5335 193.193 77.5361 193.234 77.5469C193.275 77.5577 193.313 77.5763 193.347 77.6018C193.381 77.6274 193.409 77.6592 193.43 77.6956C193.451 77.732 193.465 77.7722 193.471 77.8139C193.477 77.8557 193.474 77.8981 193.463 77.9388C193.452 77.9795 193.434 78.0177 193.408 78.0512C182.812 91.9006 179.273 108.786 178.17 120.512C177.432 127.948 177.481 135.441 178.316 142.867C178.323 142.912 178.319 142.959 178.306 143.003C178.293 143.047 178.271 143.088 178.24 143.122C178.21 143.157 178.173 143.185 178.131 143.204C178.089 143.223 178.043 143.233 177.997 143.233Z" fill="#3F3D56"/>
<path d="M186.719 97.3679C186.651 97.368 186.585 97.3466 186.53 97.3068C186.475 97.267 186.434 97.2109 186.413 97.1465C186.392 97.0821 186.392 97.0128 186.413 96.9484C186.434 96.8839 186.475 96.8278 186.53 96.788C189.575 94.7349 192.865 93.0669 196.324 91.8224C201.728 89.8521 209.945 88.0659 218.405 90.7473C218.445 90.7601 218.482 90.7806 218.515 90.8077C218.547 90.8349 218.574 90.8681 218.593 90.9055C218.612 90.9429 218.624 90.9837 218.628 91.0257C218.631 91.0676 218.627 91.1098 218.614 91.15C218.601 91.1901 218.58 91.2273 218.553 91.2594C218.526 91.2916 218.493 91.3181 218.455 91.3375C218.417 91.3568 218.377 91.3686 218.334 91.3722C218.292 91.3757 218.25 91.371 218.21 91.3582C209.923 88.7319 201.855 90.4886 196.546 92.4245C193.142 93.6477 189.905 95.2877 186.908 97.3067C186.853 97.3465 186.787 97.3679 186.719 97.3679Z" fill="#3F3D56"/>
<path d="M171.987 60.8236C171.982 60.7561 171.998 60.6887 172.034 60.6312C172.07 60.5736 172.123 60.5289 172.186 60.5033C172.249 60.4778 172.319 60.4728 172.385 60.489C172.451 60.5052 172.51 60.5418 172.554 60.5936C174.829 63.471 176.737 66.619 178.232 69.9652C180.594 75.1911 182.975 83.225 180.899 91.8213C180.889 91.8623 180.871 91.901 180.846 91.9352C180.822 91.9693 180.79 91.9983 180.754 92.0203C180.718 92.0424 180.678 92.0572 180.636 92.0638C180.594 92.0704 180.552 92.0687 180.51 92.0589C180.469 92.049 180.43 92.0311 180.396 92.0063C180.362 91.9815 180.333 91.9502 180.311 91.9142C180.289 91.8782 180.274 91.8382 180.268 91.7965C180.261 91.7548 180.263 91.7123 180.273 91.6713C182.306 83.2512 179.966 75.3631 177.645 70.2285C176.175 66.936 174.299 63.8384 172.062 61.0069C172.018 60.9553 171.991 60.8911 171.987 60.8236Z" fill="#3F3D56"/>
<defs>
<clipPath id="clip0_1932_5839">
<rect width="133" height="88" fill="white" transform="translate(0 61)"/>
</clipPath>
</defs>
</svg>
