<svg width="42" height="42" viewBox="0 0 42 42" fill="none" xmlns="http://www.w3.org/2000/svg">
<path d="M36.75 13.125L24.9375 1.3125H11.8125C10.072 1.3125 8.40282 2.0039 7.17211 3.23461C5.9414 4.46532 5.25 6.13452 5.25 7.875V34.125C5.25 35.8655 5.9414 37.5347 7.17211 38.7654C8.40282 39.9961 10.072 40.6875 11.8125 40.6875H30.1875C31.928 40.6875 33.5972 39.9961 34.8279 38.7654C36.0586 37.5347 36.75 35.8655 36.75 34.125V13.125Z" fill="#E6ECFF"/>
<path d="M30.1875 19.6875H11.8125C11.4644 19.6875 11.1306 19.5492 10.8844 19.3031C10.6383 19.0569 10.5 18.7231 10.5 18.375C10.5 18.0269 10.6383 17.6931 10.8844 17.4469C11.1306 17.2008 11.4644 17.0625 11.8125 17.0625H30.1875C30.5356 17.0625 30.8694 17.2008 31.1156 17.4469C31.3617 17.6931 31.5 18.0269 31.5 18.375C31.5 18.7231 31.3617 19.0569 31.1156 19.3031C30.8694 19.5492 30.5356 19.6875 30.1875 19.6875Z" fill="#4294FF"/>
<path d="M19.6875 14.4375H11.8125C11.4644 14.4375 11.1306 14.2992 10.8844 14.0531C10.6383 13.8069 10.5 13.4731 10.5 13.125C10.5 12.7769 10.6383 12.4431 10.8844 12.1969C11.1306 11.9508 11.4644 11.8125 11.8125 11.8125H19.6875C20.0356 11.8125 20.3694 11.9508 20.6156 12.1969C20.8617 12.4431 21 12.7769 21 13.125C21 13.4731 20.8617 13.8069 20.6156 14.0531C20.3694 14.2992 20.0356 14.4375 19.6875 14.4375Z" fill="#4294FF"/>
<path d="M19.6875 9.1875H11.8125C11.4644 9.1875 11.1306 9.04922 10.8844 8.80308C10.6383 8.55694 10.5 8.2231 10.5 7.875C10.5 7.5269 10.6383 7.19306 10.8844 6.94692C11.1306 6.70078 11.4644 6.5625 11.8125 6.5625H19.6875C20.0356 6.5625 20.3694 6.70078 20.6156 6.94692C20.8617 7.19306 21 7.5269 21 7.875C21 8.2231 20.8617 8.55694 20.6156 8.80308C20.3694 9.04922 20.0356 9.1875 19.6875 9.1875Z" fill="#4294FF"/>
<path d="M30.1875 35.4375H11.8125C11.4644 35.4375 11.1306 35.2992 10.8844 35.0531C10.6383 34.8069 10.5 34.4731 10.5 34.125C10.5 33.7769 10.6383 33.4431 10.8844 33.1969C11.1306 32.9508 11.4644 32.8125 11.8125 32.8125H30.1875C30.5356 32.8125 30.8694 32.9508 31.1156 33.1969C31.3617 33.4431 31.5 33.7769 31.5 34.125C31.5 34.4731 31.3617 34.8069 31.1156 35.0531C30.8694 35.2992 30.5356 35.4375 30.1875 35.4375Z" fill="#4294FF"/>
<path d="M30.1875 30.1875H11.8125C11.4644 30.1875 11.1306 30.0492 10.8844 29.8031C10.6383 29.5569 10.5 29.2231 10.5 28.875C10.5 28.5269 10.6383 28.1931 10.8844 27.9469C11.1306 27.7008 11.4644 27.5625 11.8125 27.5625H30.1875C30.5356 27.5625 30.8694 27.7008 31.1156 27.9469C31.3617 28.1931 31.5 28.5269 31.5 28.875C31.5 29.2231 31.3617 29.5569 31.1156 29.8031C30.8694 30.0492 30.5356 30.1875 30.1875 30.1875Z" fill="#4294FF"/>
<path d="M30.1875 24.9375H11.8125C11.4644 24.9375 11.1306 24.7992 10.8844 24.5531C10.6383 24.3069 10.5 23.9731 10.5 23.625C10.5 23.2769 10.6383 22.9431 10.8844 22.6969C11.1306 22.4508 11.4644 22.3125 11.8125 22.3125H30.1875C30.5356 22.3125 30.8694 22.4508 31.1156 22.6969C31.3617 22.9431 31.5 23.2769 31.5 23.625C31.5 23.9731 31.3617 24.3069 31.1156 24.5531C30.8694 24.7992 30.5356 24.9375 30.1875 24.9375Z" fill="#4294FF"/>
<path d="M24.9375 1.3125V10.5C24.9375 11.1962 25.2141 11.8639 25.7063 12.3562C26.1986 12.8484 26.8663 13.125 27.5625 13.125H36.75L24.9375 1.3125Z" fill="#E6ECFF"/>
</svg>
