<svg width="42" height="42" viewBox="0 0 42 42" fill="none" xmlns="http://www.w3.org/2000/svg">
<path d="M28.875 15.75H13.125C12.7769 15.75 12.4431 15.6117 12.1969 15.3656C11.9508 15.1194 11.8125 14.7856 11.8125 14.4375V9.1875C11.8125 6.75082 12.7805 4.41395 14.5035 2.69096C16.2264 0.967966 18.5633 0 21 0C23.4367 0 25.7736 0.967966 27.4965 2.69096C29.2195 4.41395 30.1875 6.75082 30.1875 9.1875V14.4375C30.1875 14.7856 30.0492 15.1194 29.8031 15.3656C29.5569 15.6117 29.2231 15.75 28.875 15.75ZM14.4375 13.125H27.5625V9.1875C27.5625 7.44702 26.8711 5.77782 25.6404 4.54711C24.4097 3.3164 22.7405 2.625 21 2.625C19.2595 2.625 17.5903 3.3164 16.3596 4.54711C15.1289 5.77782 14.4375 7.44702 14.4375 9.1875V13.125Z" fill="#4294FF"/>
<path d="M30.1875 13.125H11.8125C8.913 13.125 6.5625 15.4755 6.5625 18.375V36.75C6.5625 39.6495 8.913 42 11.8125 42H30.1875C33.087 42 35.4375 39.6495 35.4375 36.75V18.375C35.4375 15.4755 33.087 13.125 30.1875 13.125Z" fill="#E6ECFF"/>
<path d="M27.3638 23.3046C27.0775 22.1538 26.4814 21.1034 25.6401 20.2675C24.7988 19.4317 23.7446 18.8423 22.5919 18.5635C21.6176 18.3247 20.6017 18.3108 19.6211 18.5227C18.6406 18.7347 17.7212 19.167 16.9324 19.7869C16.1438 20.4094 15.5088 21.2047 15.0763 22.1115C14.6438 23.0183 14.4254 24.0124 14.438 25.017C14.4506 26.0216 14.6937 27.0099 15.1488 27.9056C15.6038 28.8013 16.2586 29.5805 17.0625 30.183V32.8125C17.0625 33.8568 17.4773 34.8583 18.2158 35.5967C18.9542 36.3352 19.9557 36.75 21 36.75C22.0443 36.75 23.0458 36.3352 23.7842 35.5967C24.5227 34.8583 24.9375 33.8568 24.9375 32.8125V30.1844C25.9762 29.4054 26.7609 28.3364 27.1927 27.112C27.6245 25.8876 27.684 24.5628 27.3638 23.3046V23.3046Z" fill="#4294FF"/>
</svg>
