<svg width="105" height="21" viewBox="0 0 105 21" fill="none" xmlns="http://www.w3.org/2000/svg">
<g clip-path="url(#clip0_21_2590)">
<path fill-rule="evenodd" clip-rule="evenodd" d="M101.716 0.545959C102.135 0.548961 102.546 0.657456 102.911 0.861416C103.294 1.0663 103.61 1.37771 103.819 1.75798C104.031 2.12666 104.143 2.5446 104.143 2.97C104.143 3.39539 104.031 3.81333 103.819 4.18201C103.612 4.56356 103.299 4.87689 102.917 5.08411C102.55 5.29485 102.134 5.40554 101.711 5.4051C101.286 5.40496 100.868 5.29435 100.498 5.08411C100.118 4.87758 99.8061 4.56394 99.6019 4.18201C99.3895 3.81531 99.2769 3.39932 99.2754 2.97553C99.2775 2.54833 99.39 2.12892 99.6019 1.75798C99.8167 1.37788 100.135 1.06688 100.521 0.861416C100.886 0.656783 101.297 0.548241 101.716 0.545959ZM100.648 4.32037V1.70817H101.544C101.77 1.69877 101.995 1.72113 102.214 1.77458C102.348 1.82178 102.462 1.91113 102.541 2.02916C102.62 2.14087 102.662 2.27424 102.662 2.41103C102.665 2.59856 102.593 2.77946 102.463 2.91465C102.315 3.06003 102.117 3.14487 101.91 3.15263C101.994 3.18352 102.071 3.23052 102.137 3.29099C102.284 3.44891 102.412 3.62351 102.519 3.81121L102.84 4.32037H102.325L102.092 3.9053C101.985 3.67771 101.834 3.47292 101.65 3.30206C101.55 3.23495 101.432 3.20194 101.312 3.20797H101.063V4.31484L100.648 4.32037Z" fill="#3C65F5"/>
<path fill-rule="evenodd" clip-rule="evenodd" d="M54.8402 0.38546H54.9232V5.97513H49.3059V0.38546H54.8402ZM30.2899 12.2013L43.3454 13.0093C43.6062 13.0122 43.8554 13.1178 44.0387 13.3033C44.2221 13.4888 44.325 13.7391 44.325 13.9999C44.325 14.1293 44.2995 14.2574 44.25 14.3769C44.2005 14.4964 44.1279 14.605 44.0364 14.6965C43.945 14.788 43.8364 14.8605 43.7169 14.91C43.5973 14.9595 43.4692 14.985 43.3399 14.985H24.739V7.71291C25.2924 9.95985 27.2792 11.7972 30.2733 12.2013H30.2899ZM24.7556 20.6024H43.7715C45.0977 20.5992 46.3817 20.1363 47.405 19.2927C48.4282 18.4491 49.1273 17.2769 49.3834 15.9757C49.6085 17.2632 50.2777 18.4311 51.2746 19.2764C52.2716 20.1217 53.5332 20.5908 54.8402 20.6024H67.0157C68.3169 20.5973 69.5755 20.1385 70.5746 19.3051C71.5738 18.4716 72.2509 17.3157 72.4892 16.0365V20.6024H91.9756C93.4905 20.598 94.942 19.9943 96.0132 18.9231C97.0844 17.8519 97.6881 16.4003 97.6925 14.8854V14.0719C97.6881 12.557 97.0844 11.1054 96.0132 10.0342C94.942 8.963 93.4905 8.35928 91.9756 8.3549L90.9074 8.30509C84.8197 8.03944 78.7983 7.75165 72.7438 7.42513C73.2142 9.79936 75.2176 11.7751 78.3611 12.2013L91.5605 13.0093C91.8223 13.0107 92.0728 13.1157 92.2574 13.3014C92.442 13.487 92.5456 13.7381 92.5456 13.9999C92.5456 14.2612 92.4418 14.5117 92.2571 14.6965C92.0723 14.8812 91.8218 14.985 91.5605 14.985H72.5501V7.41406L66.9051 7.12627V13.5959C66.9051 14.0362 66.7301 14.4585 66.4188 14.7699C66.1074 15.0813 65.6851 15.2562 65.2448 15.2562H56.5835C56.1432 15.2562 55.7209 15.0813 55.4095 14.7699C55.0981 14.4585 54.9232 14.0362 54.9232 13.5959V6.50643L49.3059 6.21311V12.6329C48.9729 11.4239 48.2497 10.3587 47.2489 9.60308C46.248 8.84744 45.0256 8.44366 43.7715 8.45451L18.9003 6.82742V20.6024H24.739H24.7556ZM48.3982 5.97513V0.357788H30.2899C29.0163 0.366009 27.7816 0.797216 26.7798 1.58362C25.778 2.37003 25.066 3.46705 24.7556 4.70224V0.38546H13.9304L10.2446 5.97513H48.3982ZM16.515 6.68906L7.58809 20.6024H0.60376L10.0121 6.31273L16.5039 6.68906H16.515ZM97.687 5.97513V0.357788H78.3556C76.8572 0.361786 75.4198 0.951618 74.3505 2.00126C73.2812 3.0509 72.6649 4.4771 72.6331 5.97513H97.687ZM66.9272 5.97513V0.38546H72.5501V5.97513H66.9272Z" fill="#3C65F5"/>
</g>
<defs>
<clipPath id="clip0_21_2590">
<rect width="103.542" height="20.2446" fill="white" transform="translate(0.60376 0.357788)"/>
</clipPath>
</defs>
</svg>
