<svg width="25" height="24" viewBox="0 0 25 24" fill="none" xmlns="http://www.w3.org/2000/svg">
<path d="M3.5 5C3.5 4.46957 3.71071 3.96086 4.08579 3.58579C4.46086 3.21071 4.96957 3 5.5 3H8.78C8.98979 3.00016 9.19422 3.0663 9.36436 3.18905C9.53449 3.3118 9.6617 3.48496 9.728 3.684L11.226 8.177C11.3019 8.40534 11.2929 8.65339 11.2007 8.87564C11.1085 9.0979 10.9393 9.27945 10.724 9.387L8.467 10.517C9.57332 12.9655 11.5345 14.9267 13.983 16.033L15.113 13.776C15.2205 13.5607 15.4021 13.3915 15.6244 13.2993C15.8466 13.2071 16.0947 13.1981 16.323 13.274L20.816 14.772C21.0152 14.8383 21.1885 14.9657 21.3112 15.136C21.434 15.3064 21.5001 15.511 21.5 15.721V19C21.5 19.5304 21.2893 20.0391 20.9142 20.4142C20.5391 20.7893 20.0304 21 19.5 21H18.5C10.216 21 3.5 14.284 3.5 6V5Z" stroke="white" stroke-width="2" stroke-linecap="round" stroke-linejoin="round"/>
</svg>
