<svg width="16" height="16" viewBox="0 0 16 16" fill="none" xmlns="http://www.w3.org/2000/svg">
<path d="M14.395 6.02888L8.62122 0.255089C8.45654 0.0904065 8.23683 0 7.99787 0C7.76359 0 7.54402 0.0904065 7.37933 0.255089L1.60541 6.02888C1.26434 6.37008 1.26434 6.9254 1.60541 7.26634L2.12964 7.79083C2.29432 7.95538 2.51403 8.04592 2.74844 8.04592C2.98272 8.04592 3.20997 7.95538 3.37452 7.79083L6.75039 4.42224V15.1242C6.75039 15.6065 7.12815 16 7.61049 16H8.35195C8.83429 16 9.25029 15.6065 9.25029 15.1242V4.38426L12.6453 7.79083C12.8098 7.95538 13.0237 8.04592 13.2581 8.04592C13.4925 8.04592 13.709 7.95538 13.8738 7.79083L14.3964 7.26634C14.7376 6.92527 14.7363 6.37008 14.395 6.02888Z" fill="white"/>
</svg>
