<svg width="16" height="16" viewBox="0 0 16 16" fill="none" xmlns="http://www.w3.org/2000/svg">
<path opacity="0.8" d="M3.15546 13.8109C4.09778 13.8109 4.86169 13.047 4.86169 12.1047C4.86169 11.1623 4.09778 10.3984 3.15546 10.3984C2.21313 10.3984 1.44922 11.1623 1.44922 12.1047C1.44922 13.047 2.21313 13.8109 3.15546 13.8109Z" fill="white"/>
<path d="M14.1332 12.2977C14.9511 12.2977 15.6141 11.6347 15.6141 10.8168C15.6141 9.99895 14.9511 9.33594 14.1332 9.33594C13.3154 9.33594 12.6523 9.99895 12.6523 10.8168C12.6523 11.6347 13.3154 12.2977 14.1332 12.2977Z" fill="white"/>
<path d="M12.78 4.829C13.4556 4.829 14.0033 4.2813 14.0033 3.60566C14.0033 2.93003 13.4556 2.38232 12.78 2.38232C12.1043 2.38232 11.5566 2.93003 11.5566 3.60566C11.5566 4.2813 12.1043 4.829 12.78 4.829Z" fill="white"/>
<path opacity="0.7" d="M1.8107 9.64593C2.81073 9.64593 3.62141 8.85501 3.62141 7.87936C3.62141 6.90371 2.81073 6.11279 1.8107 6.11279C0.81068 6.11279 0 6.90371 0 7.87936C0 8.85501 0.81068 9.64593 1.8107 9.64593Z" fill="white"/>
<path opacity="0.9" d="M7.01329 16C7.9224 16 8.65939 15.2819 8.65939 14.396C8.65939 13.5101 7.9224 12.792 7.01329 12.792C6.10417 12.792 5.36719 13.5101 5.36719 14.396C5.36719 15.2819 6.10417 16 7.01329 16Z" fill="white"/>
<path d="M11.2435 15.2972C12.1071 15.2972 12.8073 14.6155 12.8073 13.7746C12.8073 12.9337 12.1071 12.252 11.2435 12.252C10.3798 12.252 9.67969 12.9337 9.67969 13.7746C9.67969 14.6155 10.3798 15.2972 11.2435 15.2972Z" fill="white"/>
<path opacity="0.6" d="M3.76994 5.54324C4.81541 5.54324 5.66293 4.71595 5.66293 3.69545C5.66293 2.67494 4.81541 1.84766 3.76994 1.84766C2.72447 1.84766 1.87695 2.67494 1.87695 3.69545C1.87695 4.71595 2.72447 5.54324 3.76994 5.54324Z" fill="white"/>
<path d="M14.6004 8.34217C15.3731 8.34217 15.9995 7.72735 15.9995 6.96893C15.9995 6.21052 15.3731 5.5957 14.6004 5.5957C13.8276 5.5957 13.2012 6.21052 13.2012 6.96893C13.2012 7.72735 13.8276 8.34217 14.6004 8.34217Z" fill="white"/>
<path opacity="0.5" d="M8.46668 3.99195C9.56903 3.99195 10.4627 3.09832 10.4627 1.99598C10.4627 0.893629 9.56903 0 8.46668 0C7.36433 0 6.4707 0.893629 6.4707 1.99598C6.4707 3.09832 7.36433 3.99195 8.46668 3.99195Z" fill="white"/>
</svg>
