<?xml version="1.0" encoding="UTF-8"?>
<!-- Generator: visioncortex VTracer 0.6.2 -->
<svg version="1.1" xmlns="http://www.w3.org/2000/svg" width="1280" height="174">
<path d="M0 0 C422.4 0 844.8 0 1280 0 C1280 57.42 1280 114.84 1280 174 C857.6 174 435.2 174 0 174 C0 116.58 0 59.16 0 0 Z " fill="#2E65F8" transform="translate(0,0)"/>
<path d="M0 0 C422.4 0 844.8 0 1280 0 C1280 57.42 1280 114.84 1280 174 C857.6 174 435.2 174 0 174 C0 116.58 0 59.16 0 0 Z M1018.76171875 6.046875 C1014.47153813 7.52750311 1010.59107567 6.6325606 1006.15625 6.09375 C1002.82874686 5.99491327 1000.94300427 6.50717175 998 8 C996.73527935 9.05429686 996.73527935 9.05429686 996.75 11.4375 C996.87375 12.7059375 996.87375 12.7059375 997 14 C1001.94703537 17.29802358 1008.07864864 18.48364808 1014 17.6875 C1016.90445471 17.14615591 1016.90445471 17.14615591 1019 16 C1020.99960012 15.960008 1023.00047242 15.95653201 1025 16 C1026 19 1026 19 1024.875 22.25 C1023.77423242 26.96757533 1024.7095483 28.81400206 1027 33 C1027.556875 33.70125 1028.11375 34.4025 1028.6875 35.125 C1030.36983774 37.52833962 1030.23910317 39.13076197 1030 42 C1027.56148391 39.56148391 1026.5462845 37.092569 1025 34 C1020.39622765 25.6506153 1020.39622765 25.6506153 1012.9375 20.125 C1011.0118018 19.89376444 1011.0118018 19.89376444 1009.2630594 20.48416818 C1006.41206296 21.13401179 1003.77914678 21.12659358 1000.85354954 21.12830919 C998.94557651 21.13306158 998.94557651 21.13306158 996.99905857 21.13790998 C995.58179041 21.13638643 994.16452234 21.13477262 992.74725437 21.13307858 C991.23991744 21.13491871 989.732581 21.13719716 988.22524533 21.13987562 C984.05867869 21.14600243 979.89213149 21.14588088 975.72556134 21.14480268 C971.20190707 21.14473024 966.67825965 21.15044161 962.15460867 21.15544754 C954.21819081 21.1634359 946.28177753 21.16773762 938.34535599 21.16966438 C926.54383256 21.17255919 914.74231825 21.18117668 902.94079886 21.1910775 C883.08956816 21.20760887 863.23833709 21.21978676 843.38710213 21.22979546 C815.03486137 21.24419451 786.68263068 21.26695331 758.33039709 21.29146057 C746.96034127 21.30125185 735.59028521 21.31077223 724.22022915 21.32029057 C722.32530714 21.32187871 722.32530714 21.32187871 720.39210389 21.32349895 C690.30868601 21.34866069 660.22526628 21.37115206 630.1418457 21.39282227 C628.16684683 21.39424792 628.16684683 21.39424792 626.15194899 21.39570238 C595.42525454 21.4178598 564.69855957 21.43873869 533.97186279 21.45739746 C532.63664894 21.45820927 531.30143509 21.45902114 529.96622123 21.45983307 C523.3007726 21.46388475 516.63532396 21.46792543 509.96987533 21.47196633 C508.65254364 21.47276532 507.33521194 21.47356431 505.97796111 21.47438752 C503.31904224 21.47599984 500.66012337 21.47761066 498.0012045 21.47921998 C454.10878512 21.50582786 410.2163749 21.53917987 366.32396637 21.57999813 C360.13036504 21.58574848 353.93676363 21.59140704 347.74316216 21.59700203 C346.52414655 21.59810383 345.30513094 21.59920564 344.04917547 21.60034083 C324.39743089 21.61787485 304.745689 21.62802198 285.09393821 21.63525448 C265.35851625 21.64263244 245.62310979 21.65700797 225.88769824 21.67868023 C214.15103232 21.69133718 202.41439375 21.69834287 190.67772088 21.69743004 C182.84814056 21.69736075 175.01858838 21.70445408 167.18901894 21.71748009 C162.72128001 21.72470164 158.2536 21.72869016 153.78585637 21.72395759 C149.72608722 21.71971595 145.66643693 21.72455765 141.60668501 21.73682198 C140.14269614 21.73961993 138.67869615 21.73903061 137.21471089 21.73474325 C135.23374384 21.72942267 133.2527542 21.7375259 131.27179962 21.74634165 C130.1728752 21.74705379 129.07395078 21.74776593 127.94172562 21.74849966 C123.76147767 22.10588642 120.97843496 23.02156504 118 26 C117.07924903 32.0328371 119.7648379 37.22341829 122 42.6875 C122.40355713 43.70046143 122.80711426 44.71342285 123.22290039 45.75708008 C125.18048229 50.64090084 127.19737126 55.49310754 129.30859375 60.3125 C132.68916458 68.04245451 135.47521945 74.8342306 136.4453125 83.29296875 C137.29742421 87.4515139 139.34265668 90.75253389 141.5625 94.33203125 C145.72480522 102.05717925 145.20753837 109.4612852 145.0625 118.0625 C144.95610623 125.60857688 144.90912934 133.14242785 145.24609375 140.68359375 C145.29306396 141.8017749 145.34003418 142.91995605 145.38842773 144.07202148 C146.1340762 147.64190651 147.08142082 148.85140485 150 151 C153.81896015 152.0153635 157.43991738 152.12547441 161.37916148 152.12649983 C163.32690168 152.13063945 163.32690168 152.13063945 165.31399018 152.13486269 C166.75604233 152.13287482 168.19809435 152.13079535 169.64014626 152.12863445 C171.1775305 152.12998076 172.71491441 152.13176445 174.2522977 152.13394669 C178.4976727 152.13868953 182.74302634 152.13717087 186.98840241 152.13466892 C191.59931052 152.13303988 196.21021398 152.1371733 200.82112062 152.14057809 C208.90936771 152.14574006 216.99760882 152.14714791 225.08585739 152.14612198 C237.1134497 152.14460008 249.14103535 152.1487521 261.16862636 152.1539966 C283.89824117 152.16368034 306.62785372 152.16648123 329.35747035 152.16705366 C346.90827016 152.16751278 364.45906909 152.16956891 382.00986862 152.17275429 C387.05748856 152.1736518 392.1051085 152.17454161 397.15272844 152.17542917 C398.40750198 152.17565021 399.66227552 152.17587126 400.9550725 152.17609901 C436.26238437 152.18225549 471.56969602 152.18620523 506.87700844 152.18575573 C508.22232839 152.18573995 509.56764834 152.18572422 510.91296829 152.18570852 C516.98705675 152.18563514 523.06114522 152.18554697 529.13523369 152.18545464 C531.84385458 152.18541351 534.55247547 152.18537337 537.26109637 152.18533332 C538.61681096 152.18531293 539.97252556 152.18529191 541.32824015 152.18527026 C584.19327691 152.18459008 627.0583054 152.19190581 669.92333984 152.20581055 C680.72200328 152.20931155 691.52066672 152.21278101 702.31933022 152.21607494 C703.31669721 152.21637925 703.31669721 152.21637925 704.33421302 152.21668971 C740.23571421 152.22757759 776.1372159 152.22955203 812.03871858 152.22884732 C817.08822465 152.22877269 822.13773072 152.22872399 827.18723679 152.22869301 C829.0522787 152.22867553 829.0522787 152.22867553 830.95499823 152.22865769 C850.98208949 152.22862689 871.00917379 152.2350185 891.03626298 152.24362527 C911.15813277 152.25209403 931.27999235 152.25309782 951.40186293 152.24651595 C963.36167725 152.24281501 975.32146059 152.24466887 987.28127164 152.25445829 C995.26721103 152.26044362 1003.25312791 152.25917897 1011.23906625 152.25198779 C1015.79117774 152.24809402 1020.34322914 152.24736587 1024.89533646 152.25544515 C1029.03866503 152.26273458 1033.18188357 152.260775 1037.32520727 152.25152128 C1038.81271858 152.24980361 1040.30023854 152.2514164 1041.78774101 152.25682249 C1055.81378096 152.70706662 1055.81378096 152.70706662 1068.75 148.25 C1070.20231797 146.04631085 1070.20231797 146.04631085 1070.0625 143.375 C1069.16938211 140.53803728 1068.18983431 138.35262523 1066.8125 135.75 C1064.43937411 131.2127451 1062.8408816 126.67621156 1061.3125 121.8125 C1058.29767906 112.30155474 1054.33466838 103.28141877 1050.26953125 94.1796875 C1048.84209101 90.98194003 1047.51918246 87.78508906 1046.328125 84.4921875 C1044.98953227 80.97247602 1043.43539803 78.82820416 1041 76 C1038.70892655 72.36822431 1038.43127509 68.71576045 1037.9375 64.5 C1037.28141507 58.69040547 1037.28141507 58.69040547 1036 53 C1041.37815352 59.72269189 1043.58268184 65.50073362 1045.19140625 73.9140625 C1046.02475154 77.09446239 1047.25308696 79.23933432 1049 82 C1049.56224553 83.48497385 1050.08084993 84.98696313 1050.5625 86.5 C1052.56210708 92.22195258 1055.1542712 97.5646424 1057.8125 103 C1063.18460956 114.0526326 1067.48632949 125.35095886 1071.328125 137.015625 C1074.58355771 146.94100202 1074.58355771 146.94100202 1081 155 C1084.06206856 156.38921902 1084.06206856 156.38921902 1087 156 C1089.12129086 155.212981 1089.12129086 155.212981 1090 153 C1090.30750078 144.38997808 1085.10214922 138.52975521 1080.4296875 131.70703125 C1078.5052991 128.06331222 1077.53472243 124.34922778 1076.5 120.375 C1076.06653818 118.7499648 1075.63294501 117.12496464 1075.19921875 115.5 C1074.99345215 114.72011719 1074.78768555 113.94023438 1074.57568359 113.13671875 C1073.87420768 110.53310672 1073.08800105 107.95737912 1072.3125 105.375 C1071.2629584 101.61172653 1070.73374328 97.93396219 1070.33984375 94.04785156 C1069.33040421 83.20340559 1069.33040421 83.20340559 1064 74 C1062.86046875 73.68933594 1061.7209375 73.37867187 1060.546875 73.05859375 C1057 72 1057 72 1054.99609375 69.83984375 C1049.88488836 60.3219851 1047.75608968 50.50916032 1045.4140625 40.02734375 C1043.61444495 32.08501511 1041.55580027 23.83370041 1037 17 C1037.020625 15.845 1037.04125 14.69 1037.0625 13.5 C1037.27568013 10.16587976 1037.27568013 10.16587976 1036 8.1875 C1031.09413136 5.27464049 1024.06635367 3.56582411 1018.76171875 6.046875 Z " fill="#3465F4" transform="translate(0,0)"/>
<path d="M0 0 C79.53 0 159.06 0 241 0 C241 57.42 241 114.84 241 174 C215.280625 174.165 189.56125 174.33 163.0625 174.5 C150.89064819 174.60924805 150.89064819 174.60924805 138.47290039 174.72070312 C128.54772949 174.75683594 128.54772949 174.75683594 123.8981781 174.7635498 C120.65729268 174.77099006 117.41746034 174.8009119 114.17686462 174.84460449 C110.03660184 174.89968345 105.89785917 174.91589383 101.75726402 174.90457821 C100.24190367 174.90694241 98.72648752 174.9226907 97.21144307 174.95372105 C90.0701744 175.09313065 84.40600439 175.1172502 78.79710388 170.1541748 C77.5184757 168.78137733 76.25204841 167.39708185 75 166 C73.62200517 164.85321931 72.22831693 163.72474456 70.8125 162.625 C61.61283666 154.43928711 57.84336579 141.88824409 53.34265137 130.76043701 C51.67701637 126.64243627 49.99359004 122.53178395 48.31115723 118.42062378 C47.45146122 116.31952722 46.59265824 114.21806504 45.73474121 112.11624146 C41.80960403 102.50608262 37.79381456 92.93569699 33.75 83.375 C32.44989847 80.29713757 31.15057994 77.21894512 29.8515625 74.140625 C29.5343927 73.38917206 29.2172229 72.63771912 28.89044189 71.86349487 C24.64445375 61.79638524 20.44569027 51.70953133 16.25244141 41.62036133 C15.64747439 40.16487071 15.04249415 38.70938559 14.4375 37.25390625 C14.14539642 36.5510701 13.85329285 35.84823395 13.55233765 35.12409973 C11.67331247 30.6069343 9.77877804 26.09663451 7.875 21.58984375 C7.40562012 20.47528809 6.93624023 19.36073242 6.45263672 18.21240234 C5.59869807 16.18637873 4.74123569 14.1618348 3.87939453 12.13916016 C3.50927246 11.25921387 3.13915039 10.37926758 2.7578125 9.47265625 C2.4395752 8.72250244 2.12133789 7.97234863 1.79345703 7.19946289 C1 5 1 5 0 0 Z " fill="#5479F3" transform="translate(1039,0)"/>
<path d="M0 0 C24.09 0 48.18 0 73 0 C75.02125 4.929375 77.0425 9.85875 79.125 14.9375 C84.00961149 26.82369451 88.96043768 38.67871373 94 50.5 C98.62626376 61.35817683 103.20290397 72.23546765 107.70507812 83.14575195 C108.30814752 84.60717092 108.91196226 86.06828259 109.51660156 87.52905273 C123.84210283 122.15978114 123.84210283 122.15978114 117 141 C110.82131159 154.64460357 101.40040516 161.98086197 88 168 C82.62478811 170.43626353 82.62478811 170.43626353 78 174 C52.26 174 26.52 174 0 174 C0 116.58 0 59.16 0 0 Z " fill="#5479F3" transform="translate(0,0)"/>
<path d="M0 0 C0 16.5 0 33 0 50 C-38.61 50 -77.22 50 -117 50 C-112.52715716 45.52715716 -110.68114043 44.09620903 -105.1484375 41.86328125 C-104.13634468 41.44810242 -104.13634468 41.44810242 -103.10380554 41.02453613 C-100.8653567 40.10904517 -98.62028446 39.21108012 -96.375 38.3125 C-94.77994145 37.6631158 -93.18547129 37.01228474 -91.59155273 36.36010742 C-89.05995583 35.32470716 -86.52791587 34.29051253 -83.99394226 33.26094055 C-74.90296002 29.56692367 -65.85665056 25.76826385 -56.81039429 21.96633911 C-52.281996 20.06486747 -47.75019323 18.17154455 -43.21875 16.27734375 C-37.51509926 13.89275485 -31.81406814 11.50223802 -26.1186676 9.0980072 C-23.39387511 7.94898667 -20.66683093 6.80538974 -17.93917847 5.66317749 C-16.11565817 4.89732565 -14.29520443 4.12418501 -12.47485352 3.35083008 C-11.40162842 2.90247803 -10.32840332 2.45412598 -9.22265625 1.9921875 C-8.30234619 1.60401855 -7.38203613 1.21584961 -6.43383789 0.81591797 C-4 0 -4 0 0 0 Z " fill="#3465F4" transform="translate(1280,124)"/>
<path d="M0 0 C3.23046875 0.05859375 3.23046875 0.05859375 7.1875 0.4375 C12.38697881 0.92997307 16.84673445 0.77549142 22 0 C25.52079438 0.86359107 27.43435189 1.43435189 30 4 C29.67028521 7.29714793 29.3773161 8.6226839 27 11 C24.02661575 11.69033049 21.05210475 12.10000932 18.03125 12.53515625 C14.86387343 12.96274699 14.86387343 12.96274699 11.3125 14 C6.15675637 14 2.65902798 11.51859621 -1 8 C-2.1875 4.75 -2.1875 4.75 -2 2 C-1.34 1.34 -0.68 0.68 0 0 Z " fill="#2E65F8" transform="translate(93,5)"/>
<path d="M0 0 C1.18916016 -0.020625 2.37832031 -0.04125 3.60351562 -0.0625 C4.75142578 -0.06765625 5.89933594 -0.0728125 7.08203125 -0.078125 C8.13237549 -0.0874707 9.18271973 -0.09681641 10.26489258 -0.10644531 C13.61052057 0.30159218 15.51305685 1.22436436 18.1875 3.25 C18.1875 3.91 18.1875 4.57 18.1875 5.25 C6.6375 5.25 -4.9125 5.25 -16.8125 5.25 C-13.23933765 -1.89632469 -7.28125395 0.03126679 0 0 Z " fill="#2E65F8" transform="translate(1192.8125,168.75)"/>
<path d="M0 0 C2.34885769 2.87924492 3 4.27472933 3 8 C-1.95 8 -6.9 8 -12 8 C-11 2 -11 2 -9.375 0.0625 C-5.8542329 -1.51258002 -3.65765818 -1.06404602 0 0 Z " fill="#2E65F8" transform="translate(1275,166)"/>
<path d="M0 0 C0.9075 0.680625 1.815 1.36125 2.75 2.0625 C2.75 2.7225 2.75 3.3825 2.75 4.0625 C-3.85 4.0625 -10.45 4.0625 -17.25 4.0625 C-14.97966781 -0.47816438 -14.97966781 -0.47816438 -11.375 -1.75 C-10.69695312 -2.00394531 -10.01890625 -2.25789062 -9.3203125 -2.51953125 C-5.45631053 -3.29962221 -3.33533819 -1.98837469 0 0 Z " fill="#2E65F8" transform="translate(1112.25,169.9375)"/>
<path d="M0 0 C0.66 1.32 1.32 2.64 2 4 C-1.63 4 -5.26 4 -9 4 C-6.45574662 -1.08850677 -5.30640699 -1.72458227 0 0 Z " fill="#2E65F8" transform="translate(114,170)"/>
<path d="M0 0 C1.8125 0.9375 1.8125 0.9375 3.8125 4.9375 C0.1825 4.9375 -3.4475 4.9375 -7.1875 4.9375 C-7.1875 4.2775 -7.1875 3.6175 -7.1875 2.9375 C-4.73298299 1.09661224 -3.12130429 -0.08918012 0 0 Z " fill="#2E65F8" transform="translate(98.1875,169.0625)"/>
</svg>
