<svg width="124" height="122" viewBox="0 0 124 122" fill="none" xmlns="http://www.w3.org/2000/svg">
<g clip-path="url(#clip0_98_5984)">
<path d="M24.9875 111.72C25.0812 111.079 24.4067 110.45 23.481 110.316C22.5553 110.182 21.7289 110.593 21.6352 111.234C21.5415 111.876 22.216 112.504 23.1417 112.639C24.0674 112.773 24.8938 112.362 24.9875 111.72Z" fill="white"/>
<path d="M36.0091 110.649C36.1028 110.008 35.4283 109.379 34.5026 109.245C33.5769 109.111 32.7505 109.522 32.6568 110.163C32.5631 110.805 33.2376 111.433 34.1633 111.568C35.089 111.702 35.9154 111.291 36.0091 110.649Z" fill="#05264E"/>
<path d="M21.9695 102.834C22.0632 102.192 21.3887 101.564 20.463 101.43C19.5373 101.295 18.7109 101.707 18.6172 102.348C18.5235 102.989 19.198 103.618 20.1237 103.752C21.0494 103.886 21.8758 103.475 21.9695 102.834Z" fill="#FF6584"/>
<path d="M17.1803 99.1937C17.1848 98.6049 16.855 98.1251 16.4437 98.122C16.0325 98.1189 15.6955 98.5937 15.691 99.1825C15.6865 99.7713 16.0163 100.251 16.4276 100.254C16.8388 100.257 17.1758 99.7825 17.1803 99.1937Z" fill="#E6E6E6"/>
<path d="M15.5562 92.4138C15.5607 91.825 15.2309 91.3452 14.8197 91.3421C14.4084 91.339 14.0714 91.8138 14.0669 92.4025C14.0624 92.9913 14.3922 93.4711 14.8035 93.4742C15.2147 93.4773 15.5517 93.0025 15.5562 92.4138Z" fill="#05264E"/>
<path d="M28.1858 104.346C28.1902 103.757 27.8605 103.277 27.4492 103.274C27.0379 103.271 26.7009 103.746 26.6964 104.335C26.692 104.924 27.0217 105.403 27.433 105.407C27.8443 105.41 28.1813 104.935 28.1858 104.346Z" fill="#E6E6E6"/>
<path d="M22.8596 106.994C22.8641 106.406 22.5343 105.926 22.1231 105.923C21.7118 105.92 21.3748 106.394 21.3703 106.983C21.3658 107.572 21.6956 108.052 22.1069 108.055C22.5181 108.058 22.8552 107.583 22.8596 106.994Z" fill="#FF6584"/>
<path d="M30.2738 111.889C30.2783 111.301 29.9485 110.821 29.5372 110.818C29.1259 110.815 28.7889 111.289 28.7845 111.878C28.78 112.467 29.1098 112.947 29.521 112.95C29.9323 112.953 30.2693 112.478 30.2738 111.889Z" fill="#05264E"/>
<path d="M123.706 37.2341C123.719 45.8988 120.505 54.2603 114.686 60.7018V60.7066C113.863 61.6176 112.994 62.4862 112.083 63.3088C111.15 64.1503 110.172 64.9408 109.153 65.6767C108.442 66.1933 107.712 66.6812 106.963 67.1404C106.074 67.6905 105.16 68.1991 104.22 68.6663C103.524 69.0155 102.813 69.3408 102.088 69.6422C97.7584 71.4541 93.1092 72.386 88.4133 72.3831C85.7611 72.386 83.1171 72.0907 80.5315 71.5029C79.3357 71.2321 78.1556 70.8968 76.9964 70.4984C76.5497 70.3501 76.1031 70.1875 75.6612 70.0153C72.9818 68.9838 70.4409 67.6261 68.0964 65.9732C63.1407 62.4983 59.1671 57.811 56.5583 52.3627C53.9496 46.9144 52.7936 40.8889 53.2017 34.8666C53.6098 28.8442 55.5684 23.0281 58.8886 17.9783C62.2088 12.9286 66.7788 8.81557 72.1584 6.0354C77.538 3.25523 83.5458 1.90165 89.6031 2.10505C95.6604 2.30845 101.563 4.06198 106.742 7.19671C111.922 10.3314 116.203 14.7417 119.174 20.0027C122.145 25.2637 123.706 31.198 123.706 37.2341V37.2341Z" fill="#F2F2F2"/>
<path d="M76.8347 119.849C69.9484 110.727 65.9682 100.526 65.8378 88.8962C65.6159 88.2694 65.6527 87.5806 65.9402 86.9809C66.2276 86.3811 66.7422 85.9194 67.371 85.697L90.8431 77.4258C91.4725 77.2048 92.1641 77.2415 92.7663 77.5278C93.3685 77.814 93.8321 78.3265 94.0553 78.9527L105.052 109.906C105.274 110.533 105.237 111.221 104.95 111.821C104.662 112.421 104.148 112.883 103.519 113.105L80.0469 121.376C79.4176 121.597 78.726 121.561 78.1238 121.274C77.5216 120.988 77.058 120.476 76.8347 119.849Z" fill="#E6E6E6"/>
<path d="M75.3136 109.866C71.1719 105.695 69.399 98.2568 68.2438 89.9663C68.036 89.3793 68.0705 88.7342 68.3397 88.1726C68.6088 87.6109 69.0908 87.1785 69.6797 86.9702L89.852 79.8618C90.4414 79.6548 91.0891 79.6891 91.6531 79.9572C92.2171 80.2253 92.6513 80.7052 92.8604 81.2917L102.646 108.836C102.854 109.423 102.819 110.068 102.55 110.63C102.281 111.191 101.799 111.624 101.21 111.832L88.7139 116.235C86.0886 117.157 83.2034 117.004 80.6913 115.81C78.1791 114.616 76.2451 112.478 75.3136 109.866Z" fill="white"/>
<path d="M93.1304 96.1298L77.4167 101.716C77.2929 101.76 77.1616 101.779 77.0303 101.773C76.899 101.766 76.7703 101.734 76.6515 101.678C76.5327 101.622 76.4261 101.543 76.3379 101.446C76.2497 101.349 76.1816 101.236 76.1374 101.112C76.0932 100.989 76.0738 100.858 76.0803 100.727C76.0869 100.597 76.1192 100.468 76.1755 100.35C76.2318 100.232 76.311 100.126 76.4085 100.038C76.5059 99.9499 76.6198 99.8821 76.7436 99.838L92.4574 94.2519C92.7074 94.163 92.9827 94.1766 93.2226 94.2899C93.4625 94.4031 93.6475 94.6067 93.7367 94.8557C93.826 95.1047 93.8123 95.3789 93.6986 95.6178C93.5849 95.8568 93.3805 96.0409 93.1304 96.1298H93.1304Z" fill="#6ABAA2"/>
<path d="M79.0282 95.3376L75.5711 96.5666C75.4473 96.6108 75.3159 96.6302 75.1845 96.6238C75.0531 96.6173 74.9243 96.5852 74.8054 96.5291C74.6865 96.4731 74.5798 96.3943 74.4915 96.2971C74.4032 96.2 74.335 96.0865 74.2908 95.9631C74.2466 95.8397 74.2272 95.7089 74.2338 95.578C74.2404 95.4472 74.2728 95.3189 74.3292 95.2005C74.3856 95.0822 74.4649 94.976 74.5625 94.8882C74.6601 94.8004 74.7741 94.7325 74.8981 94.6886L78.3551 93.4597C78.4789 93.4155 78.6103 93.3961 78.7417 93.4025C78.8731 93.4089 79.0019 93.4411 79.1208 93.4971C79.2397 93.5532 79.3464 93.632 79.4347 93.7291C79.523 93.8262 79.5912 93.9398 79.6354 94.0631C79.6796 94.1865 79.699 94.3174 79.6924 94.4483C79.6858 94.5791 79.6534 94.7074 79.597 94.8257C79.5406 94.9441 79.4613 95.0502 79.3637 95.1381C79.2661 95.2259 79.1521 95.2937 79.0282 95.3376Z" fill="#6ABAA2"/>
<path d="M96.0895 104.386L80.3758 109.972C80.1258 110.061 79.8507 110.047 79.611 109.933C79.3713 109.82 79.1866 109.617 79.0974 109.368C79.0082 109.119 79.0218 108.845 79.1353 108.606C79.2488 108.367 79.4529 108.183 79.7027 108.094L95.4164 102.508C95.6664 102.419 95.9414 102.433 96.1811 102.546C96.4208 102.66 96.6056 102.863 96.6948 103.112C96.784 103.361 96.7703 103.635 96.6568 103.874C96.5433 104.113 96.3393 104.297 96.0895 104.386Z" fill="#6ABAA2"/>
<path d="M94.61 100.258L78.8963 105.844C78.6462 105.933 78.371 105.919 78.131 105.806C77.8911 105.693 77.7062 105.489 77.6169 105.24C77.5277 104.991 77.5414 104.717 77.6551 104.478C77.7688 104.239 77.9731 104.055 78.2232 103.966L93.9369 98.3799C94.0608 98.3357 94.1921 98.3163 94.3235 98.3227C94.4549 98.3292 94.5838 98.3613 94.7027 98.4174C94.8216 98.4734 94.9282 98.5522 95.0165 98.6494C95.1048 98.7465 95.173 98.86 95.2172 98.9834C95.2615 99.1068 95.2808 99.2376 95.2743 99.3685C95.2677 99.4993 95.2352 99.6276 95.1788 99.746C95.1224 99.8643 95.0432 99.9704 94.9456 100.058C94.848 100.146 94.7339 100.214 94.61 100.258Z" fill="#6ABAA2"/>
<path d="M80.3411 21.332C80.8528 25.4438 83.7136 28.834 87.8738 28.834C89.8716 28.834 91.7875 28.0437 93.2002 26.6368C94.6128 25.2299 95.4064 23.3217 95.4064 21.332C95.4064 17.1888 92.0161 14.2131 87.8738 13.8301C83.4785 13.4236 79.6841 16.053 80.3411 21.332Z" fill="#2F2E41"/>
<path d="M94.4315 71.8713C89.819 72.661 85.0953 72.5358 80.5315 71.503C82.6977 70.3119 89.2682 71.0438 94.4315 71.8713Z" fill="#2F2E41"/>
<path d="M65.1133 85.0669L68.7317 76.3582L71.5825 77.9355L69.8609 86.7945C70.0333 87.3558 70.0451 87.9538 69.895 88.5214C69.7449 89.0889 69.4387 89.6035 69.011 90.0073C68.5833 90.4111 68.051 90.6881 67.4739 90.8071C66.8969 90.9261 66.2979 90.8825 65.7443 90.681C65.1908 90.4796 64.7046 90.1284 64.3405 89.6669C63.9764 89.2054 63.7488 88.6519 63.6832 88.0686C63.6177 87.4853 63.7168 86.8953 63.9694 86.3651C64.2221 85.8348 64.6182 85.3852 65.1133 85.0669Z" fill="#FFB6B6"/>
<path d="M102.544 61.5007V61.5055C102.414 64.5382 102.236 67.4226 102.088 69.6422C97.7584 71.4541 93.1092 72.386 88.4133 72.3831C85.7611 72.386 83.1171 72.0908 80.5315 71.503C79.3357 71.2322 78.1556 70.8968 76.9964 70.4984C77.1578 70.3947 77.3322 70.3127 77.5152 70.2545C79.2443 69.6709 77.5344 69.1399 77.5488 68.585C77.6016 66.5568 78.1636 64.122 78.8888 61.7877L75.6611 70.0153L73.9801 74.2917C73.9801 74.2917 74.0377 77.9846 72.9715 76.8557C71.9004 75.7268 71.9772 79.3813 71.9772 79.3813C71.6443 79.6176 71.3578 79.9127 71.1319 80.2519C71.0369 80.4046 71.001 80.5866 71.031 80.7638V80.7686C71.0793 80.9077 71.1743 81.0259 71.3 81.1034C72.0253 81.5913 70.983 82.8828 70.5219 83.3947C70.397 83.5334 70.3154 83.6147 70.3154 83.6147L65.8821 83.299V83.2129C65.9014 82.6915 66.0214 79.9458 66.7083 79.2904C67.4624 78.5682 67.0925 77.4249 67.0925 77.4249C67.0925 77.4249 69.0618 75.6885 67.7409 74.2774C67.2126 73.7081 67.4479 70.3358 68.0963 65.9732C69.5133 56.3489 72.909 41.9028 74.3787 42.1085C74.6816 40.6432 75.385 39.2898 76.4114 38.1975C77.4378 37.1052 78.7472 36.3166 80.1952 35.9186L84.9839 34.608L85.8388 31.2452H92.5823L93.7543 33.4551L98.6678 35.6651L98.7302 35.6938L98.8839 35.7608L98.9415 35.9426C98.9415 35.9426 98.9367 35.9473 98.9415 35.9473L101.674 44.4954C102.904 45.9018 102.856 54.1198 102.544 61.5007Z" fill="#6ABAA2"/>
<path d="M114.027 78.7255L109.461 70.4704L112.478 69.2393L118.348 76.1134C118.895 76.33 119.372 76.6945 119.723 77.1659C120.074 77.6373 120.286 78.1969 120.335 78.7817C120.385 79.3666 120.269 79.9536 120.002 80.4767C119.735 80.9998 119.326 81.4383 118.822 81.7428C118.319 82.0474 117.74 82.2059 117.15 82.2007C116.561 82.1954 115.985 82.0266 115.486 81.7131C114.988 81.3996 114.588 80.9539 114.33 80.4261C114.072 79.8983 113.967 79.3094 114.027 78.7255Z" fill="#FFB6B6"/>
<path d="M98.6686 35.5992C99.4809 37.0527 106.909 40.791 105.622 44.5439C105.622 44.5439 112.601 66.2883 113.508 66.1463C114.416 66.0044 115.301 68.2505 115.301 68.2505C115.301 68.2505 115.109 69.7164 115.675 69.1072C116.241 68.498 116.105 70.0949 116.105 70.0949C116.105 70.0949 115.834 71.5043 116.553 71.1211C117.271 70.7379 116.327 73.4351 116.327 73.4351L112.008 75.4605L111.187 74.2439C111.187 74.2439 109.433 73.9113 110.258 73.6478C111.083 73.3843 109.482 72.4975 109.482 72.4975C109.482 72.4975 107.807 71.3636 108.041 69.4858C108.274 67.608 103.693 63.9166 103.693 63.9166C100.545 57.7248 98.8219 51.3678 98.8279 44.8104L98.6686 35.5992Z" fill="#6ABAA2"/>
<path d="M88.7064 29.2794C92.3955 29.2794 95.3861 26.301 95.3861 22.627C95.3861 18.953 92.3955 15.9745 88.7064 15.9745C85.0173 15.9745 82.0267 18.953 82.0267 22.627C82.0267 26.301 85.0173 29.2794 88.7064 29.2794Z" fill="#FFB6B6"/>
<path d="M81.7897 23.3518C82.0012 24.7973 83.2383 26.8142 82.9485 26.8142C82.6588 26.8142 80.5989 20.855 82.6588 20.4664C84.153 20.1845 84.487 20.4318 85.8834 19.8287L85.6864 20.0134C86.6106 20.6828 87.8969 20.2702 88.9515 19.8345C90.009 19.4017 91.2924 18.9891 92.2195 19.6556C92.8019 20.074 93.0481 20.8011 93.4103 21.4186C93.7724 22.0389 94.4417 22.6247 95.1312 22.4342C95.3999 22.3308 95.6288 22.1453 95.785 21.9042C95.9411 21.6631 96.0165 21.379 96.0004 21.0925C95.9975 20.5212 95.2505 19.9777 95.5021 19.4651C96.2476 17.9462 95.5771 16.9108 93.9521 16.196C93.361 16.1066 92.77 16.0152 92.179 15.9219C92.4887 15.4947 92.8641 15.1188 93.2915 14.8082C93.111 14.3471 92.7987 13.9489 92.3934 13.6627C91.8926 13.4308 91.3345 13.3506 90.7883 13.4318C89.5657 13.4953 88.3441 13.5588 87.1234 13.6223C86.2143 13.6061 85.3119 13.7811 84.4754 14.1359C83.4671 14.6523 82.8066 15.6593 82.3256 16.6837C81.2479 18.9862 81.4188 20.8386 81.7897 23.3518Z" fill="#2F2E41"/>
<path d="M26.3905 63.3193C24.9742 61.909 23.2896 60.7943 21.4353 60.0405C19.581 59.2868 17.5944 58.9091 15.5917 58.9297L15.4317 58.9301C12.7004 58.9312 10.0179 58.2097 7.65842 56.8395L7.4129 56.697L7.61065 56.494C8.68123 55.3909 9.57518 54.1304 10.2612 52.7568C9.77396 53.2091 9.19288 53.5493 8.55904 53.7533C7.92521 53.9572 7.2541 54.0199 6.59325 53.9368C5.89555 53.854 5.22574 53.6149 4.63407 53.2375C4.04239 52.86 3.54421 52.3541 3.17689 51.7575C1.72759 49.4156 0 46.0926 0 43.5611C0.00225548 41.4213 0.452114 39.3054 1.32091 37.3484C2.1897 35.3914 3.45837 33.6361 5.04604 32.1944C6.05118 31.2918 6.85402 30.1883 7.40223 28.956C7.95045 27.7236 8.23171 26.39 8.2277 25.0422L8.2269 24.8503C8.22663 23.0758 8.44437 21.3078 8.87528 19.5859L8.91902 19.4121L9.09866 19.4183C10.257 19.4576 11.416 19.3609 12.5517 19.1302C11.4864 19.0001 10.4443 18.724 9.45491 18.3099L9.26167 18.232L9.32724 18.0348C13.8481 15.2471 24.0528 16.6907 29.976 3.19415C34.7788 -7.74974 51.725 12.9091 51.725 24.8503C51.725 26.0688 50.5142 27.679 51.4206 28.4843C61.2188 37.1902 54.4582 42.7805 52.3267 48.4057C51.8209 49.7404 52.9175 51.2056 52.9175 52.6495C52.9175 52.8945 52.9112 53.1474 52.8988 53.4012L52.88 53.7914L52.5533 53.5749C51.907 53.1532 51.3079 52.6638 50.7663 52.1151C51.3282 53.4029 51.593 54.7998 51.5412 56.203C51.4895 57.6062 51.1224 58.98 50.4672 60.2233C49.4403 62.1535 48.4469 63.5353 47.5146 64.3301C44.5278 66.8756 40.6776 68.1887 36.751 68.0008C32.8245 67.8129 29.1184 66.1383 26.3904 63.3193H26.3905Z" fill="#E6E6E6"/>
<path d="M42.7948 92.3574C42.8616 92.3573 42.9261 92.3333 42.9765 92.2896C43.0269 92.246 43.0598 92.1858 43.0692 92.12C43.7949 85.6748 43.8383 79.1715 43.1987 72.7173C42.2408 62.5356 39.1646 47.8704 29.9497 35.8261C29.9276 35.7972 29.9 35.773 29.8685 35.7547C29.837 35.7365 29.8022 35.7246 29.7661 35.7197C29.73 35.7149 29.6932 35.7171 29.658 35.7264C29.6228 35.7357 29.5897 35.7518 29.5607 35.7738C29.5317 35.7958 29.5074 35.8233 29.4891 35.8546C29.4707 35.886 29.4588 35.9207 29.4539 35.9566C29.449 35.9926 29.4513 36.0292 29.4606 36.0643C29.4699 36.0994 29.4861 36.1323 29.5082 36.1612C38.6436 48.1015 41.6949 62.6591 42.6461 72.7689C43.2822 79.1799 43.2399 85.6398 42.5197 92.042C42.5141 92.0813 42.5171 92.1212 42.5284 92.1592C42.5397 92.1972 42.559 92.2323 42.5851 92.2622C42.6111 92.2921 42.6434 92.3161 42.6796 92.3325C42.7157 92.3489 42.7551 92.3574 42.7948 92.3574Z" fill="#05264E"/>
<path d="M35.2748 52.8152C35.3335 52.8152 35.3906 52.7968 35.4381 52.7625C35.4855 52.7282 35.5208 52.6798 35.539 52.6243C35.5571 52.5688 35.5571 52.509 35.539 52.4535C35.5209 52.3979 35.4857 52.3495 35.4382 52.3152C32.8125 50.5451 29.976 49.1071 26.9939 48.0341C22.3351 46.3354 15.2506 44.7954 7.95723 47.1072C7.9225 47.1182 7.89029 47.1359 7.86244 47.1593C7.83459 47.1827 7.81164 47.2114 7.7949 47.2436C7.77816 47.2758 7.76796 47.311 7.76488 47.3472C7.7618 47.3834 7.76591 47.4198 7.77696 47.4544C7.78801 47.4889 7.80578 47.521 7.82928 47.5488C7.85278 47.5765 7.88154 47.5994 7.91391 47.616C7.94628 47.6327 7.98163 47.6429 8.01794 47.6459C8.05425 47.649 8.09081 47.6449 8.12553 47.6339C15.2695 45.3697 22.2255 46.8842 26.8031 48.5533C29.7372 49.6078 32.5282 51.0217 35.1119 52.7624C35.1592 52.7967 35.2163 52.8152 35.2748 52.8152Z" fill="#05264E"/>
<path d="M47.9767 21.3084C47.981 21.2502 47.9667 21.1921 47.9357 21.1425C47.9048 21.0929 47.8589 21.0543 47.8046 21.0323C47.7503 21.0103 47.6904 21.006 47.6335 21.0199C47.5766 21.0339 47.5256 21.0655 47.4878 21.1101C45.526 23.5909 43.8815 26.305 42.5922 29.1899C40.5555 33.6954 38.5031 40.6218 40.293 48.033C40.3015 48.0684 40.3168 48.1018 40.3382 48.1312C40.3596 48.1607 40.3867 48.1856 40.4178 48.2047C40.4489 48.2237 40.4835 48.2364 40.5195 48.2421C40.5556 48.2478 40.5924 48.2464 40.6279 48.2379C40.6634 48.2294 40.6969 48.214 40.7264 48.1926C40.7559 48.1712 40.7809 48.1442 40.7999 48.1131C40.8189 48.0821 40.8316 48.0476 40.8372 48.0117C40.8428 47.9758 40.8413 47.9391 40.8326 47.9038C39.0795 40.6444 41.0972 33.8437 43.0984 29.4168C44.3658 26.5782 45.9828 23.9076 47.9121 21.4665C47.9499 21.4219 47.9725 21.3666 47.9767 21.3084Z" fill="#05264E"/>
</g>
<defs>
<clipPath id="clip0_98_5984">
<rect width="124" height="121.52" fill="white"/>
</clipPath>
</defs>
</svg>
