<svg width="42" height="42" viewBox="0 0 42 42" fill="none" xmlns="http://www.w3.org/2000/svg">
<g clip-path="url(#clip0_1922_1712)">
<path d="M41.4514 17.7508L32.0992 1.93351C31.5665 1.03583 30.6997 0.385975 29.6886 0.126379C28.6776 -0.133216 27.6049 0.0186309 26.7057 0.548636L4.11054 13.9088C3.6653 14.1719 3.27625 14.5201 2.96563 14.9335C2.65501 15.347 2.42891 15.8176 2.30023 16.3185C2.17156 16.8194 2.14284 17.3407 2.21572 17.8527C2.2886 18.3647 2.46165 18.8573 2.72497 19.3023L12.0772 35.119C12.3392 35.5651 12.687 35.9548 13.1007 36.2656C13.5143 36.5764 13.9854 36.802 14.4868 36.9295C14.8091 37.0124 15.1404 37.0544 15.4731 37.0544C16.1761 37.0541 16.866 36.8641 17.4701 36.5046L40.0665 23.1444C40.9642 22.6117 41.6141 21.7449 41.8737 20.7338C42.1333 19.7228 41.9815 18.65 41.4514 17.7508V17.7508Z" fill="#E6ECFF"/>
<path d="M30.1875 13.125H5.43609L4.11054 13.9088C3.6653 14.1718 3.27625 14.52 2.96563 14.9335C2.65501 15.347 2.42891 15.8176 2.30023 16.3185C2.17156 16.8194 2.14284 17.3407 2.21572 17.8527C2.2886 18.3646 2.46165 18.8573 2.72497 19.3023L12.0772 35.119C12.3392 35.5651 12.687 35.9548 13.1007 36.2656C13.5143 36.5763 13.9854 36.802 14.4869 36.9294C14.8091 37.0124 15.1404 37.0544 15.4731 37.0544C16.1761 37.0541 16.866 36.8641 17.4701 36.5046L36.75 25.1053V19.6875C36.748 17.9476 36.0559 16.2796 34.8256 15.0494C33.5954 13.8191 31.9274 13.127 30.1875 13.125Z" fill="#C8D5F8"/>
<path d="M30.1875 15.75H3.9375C1.76288 15.75 0 17.5129 0 19.6875V38.0625C0 40.2371 1.76288 42 3.9375 42H30.1875C32.3621 42 34.125 40.2371 34.125 38.0625V19.6875C34.125 17.5129 32.3621 15.75 30.1875 15.75Z" fill="#E6ECFF"/>
<path d="M0 21H34.125V27.5625H0V21Z" fill="#578BFF"/>
<path d="M11.8125 39.375H3.9375C3.5894 39.375 3.25556 39.2367 3.00942 38.9906C2.76328 38.7444 2.625 38.4106 2.625 38.0625C2.625 37.7144 2.76328 37.3806 3.00942 37.1344C3.25556 36.8883 3.5894 36.75 3.9375 36.75H11.8125C12.1606 36.75 12.4944 36.8883 12.7406 37.1344C12.9867 37.3806 13.125 37.7144 13.125 38.0625C13.125 38.4106 12.9867 38.7444 12.7406 38.9906C12.4944 39.2367 12.1606 39.375 11.8125 39.375Z" fill="#578BFF"/>
<path d="M18.375 35.4375H3.9375C3.5894 35.4375 3.25556 35.2992 3.00942 35.0531C2.76328 34.8069 2.625 34.4731 2.625 34.125C2.625 33.7769 2.76328 33.4431 3.00942 33.1969C3.25556 32.9508 3.5894 32.8125 3.9375 32.8125H18.375C18.7231 32.8125 19.0569 32.9508 19.3031 33.1969C19.5492 33.4431 19.6875 33.7769 19.6875 34.125C19.6875 34.4731 19.5492 34.8069 19.3031 35.0531C19.0569 35.2992 18.7231 35.4375 18.375 35.4375Z" fill="#578BFF"/>
</g>
<defs>
<clipPath id="clip0_1922_1712">
<rect width="42" height="42" fill="white"/>
</clipPath>
</defs>
</svg>
