<svg width="18" height="18" viewBox="0 0 18 18" fill="none" xmlns="http://www.w3.org/2000/svg">
<g clip-path="url(#clip0_82_5469)">
<path fill-rule="evenodd" clip-rule="evenodd" d="M9.24832 0.250366C4.41632 0.250366 0.498047 4.16761 0.498047 9.00064C0.498047 12.5825 2.65269 15.6611 5.73649 17.0142C5.71179 16.404 5.73237 15.6693 5.88774 15.0046C6.05649 14.2946 7.01342 10.2375 7.01342 10.2375C7.01342 10.2375 6.73457 9.67873 6.73457 8.85248C6.73457 7.55599 7.48674 6.58773 8.42207 6.58773C9.21745 6.58773 9.60229 7.18556 9.60229 7.90171C9.60229 8.70122 9.09193 9.89789 8.82954 11.0061C8.61037 11.9352 9.29463 12.6915 10.2104 12.6915C11.8681 12.6915 12.9845 10.5626 12.9845 8.0396C12.9845 6.12264 11.6931 4.68724 9.34402 4.68724C6.69033 4.68724 5.03679 6.66594 5.03679 8.87614C5.03679 9.63963 5.26111 10.1767 5.61301 10.5924C5.77559 10.7849 5.7972 10.861 5.73855 11.0812C5.69739 11.2407 5.60066 11.6296 5.56053 11.7829C5.50188 12.0042 5.32285 12.0844 5.12323 12.0021C3.89979 11.5031 3.33078 10.1644 3.33078 8.65903C3.33078 6.17409 5.42677 3.19217 9.58377 3.19217C12.9248 3.19217 15.1237 5.61125 15.1237 8.20526C15.1237 11.6379 13.216 14.202 10.4018 14.202C9.45823 14.202 8.56921 13.6917 8.26464 13.1124C8.26464 13.1124 7.75633 15.1281 7.64932 15.517C7.46411 16.191 7.10088 16.866 6.76853 17.3908C7.55568 17.6233 8.38708 17.7499 9.24832 17.7499C14.0803 17.7499 17.9976 13.8326 17.9976 9.00064C17.9976 4.16761 14.0803 0.250366 9.24832 0.250366Z" fill="#66789C"/>
</g>
<defs>
<clipPath id="clip0_82_5469">
<rect width="17.4995" height="17.4995" fill="white" transform="translate(0.498047 0.250244)"/>
</clipPath>
</defs>
</svg>
