<svg width="13" height="13" viewBox="0 0 13 13" fill="none" xmlns="http://www.w3.org/2000/svg">
<g clip-path="url(#clip0_82_5369)">
<path d="M3.71438 3.40476V0.928574M8.66676 3.40476V0.928574M3.09533 5.88095H9.28581M1.85724 12.0714H10.5239C10.8523 12.0714 11.1672 11.941 11.3994 11.7088C11.6316 11.4766 11.762 11.1617 11.762 10.8333V3.40476C11.762 3.0764 11.6316 2.76149 11.3994 2.5293C11.1672 2.29711 10.8523 2.16667 10.5239 2.16667H1.85724C1.52887 2.16667 1.21396 2.29711 0.98177 2.5293C0.749582 2.76149 0.619141 3.0764 0.619141 3.40476V10.8333C0.619141 11.1617 0.749582 11.4766 0.98177 11.7088C1.21396 11.941 1.52887 12.0714 1.85724 12.0714Z" stroke="#66789C" stroke-width="1.2381" stroke-linecap="round" stroke-linejoin="round"/>
</g>
<defs>
<clipPath id="clip0_82_5369">
<rect width="12.381" height="13" fill="white"/>
</clipPath>
</defs>
</svg>
