<svg width="22" height="18" viewBox="0 0 22 18" fill="none" xmlns="http://www.w3.org/2000/svg">
<g clip-path="url(#clip0_82_5464)">
<path fill-rule="evenodd" clip-rule="evenodd" d="M21.4994 2.32188C20.7278 2.67326 19.8971 2.91088 19.0256 3.01705C19.9156 2.47102 20.5984 1.60521 20.9201 0.573821C20.0869 1.0794 19.1662 1.44721 18.1826 1.64439C17.3986 0.786162 16.2782 0.250244 15.0383 0.250244C12.6606 0.250244 10.7316 2.22834 10.7316 4.66778C10.7316 5.01411 10.7686 5.35033 10.8426 5.6739C7.26192 5.48936 4.08803 3.73245 1.96184 1.05665C1.59083 1.71138 1.37882 2.47102 1.37882 3.27996C1.37882 4.81188 2.13933 6.16432 3.29549 6.95682C2.59045 6.93533 1.92486 6.73436 1.34308 6.40573V6.46008C1.34308 8.60123 2.82834 10.3872 4.80046 10.7917C4.43932 10.8953 4.05845 10.9471 3.66526 10.9471C3.38793 10.9471 3.11676 10.9206 2.85422 10.8688C3.40272 12.6231 4.99274 13.901 6.87858 13.9351C5.40442 15.1207 3.5457 15.8273 1.52797 15.8273C1.18038 15.8273 0.836494 15.8071 0.5 15.7666C2.4068 17.0179 4.67227 17.7498 7.10415 17.7498C15.0296 17.7498 19.3621 11.0192 19.3621 5.18095C19.3621 4.98883 19.3584 4.79671 19.351 4.60838C20.1929 3.98524 20.9238 3.20791 21.4994 2.32188Z" fill="#66789C"/>
</g>
<defs>
<clipPath id="clip0_82_5464">
<rect width="20.9994" height="17.4995" fill="white" transform="translate(0.5 0.250244)"/>
</clipPath>
</defs>
</svg>
