<svg width="232" height="230" viewBox="0 0 232 230" fill="none" xmlns="http://www.w3.org/2000/svg">
<path d="M15.1874 74.2799H-33.5918V128.853H15.1874V74.2799Z" fill="#699DCF"/>
<path d="M10.3509 79.5674H-28.7539V123.574H10.3509V79.5674Z" fill="#E6F3FF"/>
<path d="M10.3509 123.614V103.054C1.8658 102.081 -6.87471 103.851 -14.8649 107.002C-19.7021 108.924 -24.9464 111.715 -28.7539 115.862V123.614H10.3509Z" fill="#99CEFF"/>
<path d="M2.06535 123.614C-0.665154 119.427 -3.86254 115.564 -7.46539 112.098C-11.3619 108.077 -15.74 104.552 -20.5003 101.602C-23.0425 100.007 -25.8314 98.843 -28.7539 98.1572V123.614H2.06535Z" fill="#BFE0FF"/>
<path d="M170.034 0.406738H42.5186V232.075H170.034V0.406738Z" fill="#699DCF"/>
<path d="M162.443 8.34192H50.1094V232.075H162.443V8.34192Z" fill="#E6F3FF"/>
<path d="M84.4805 106.38C81.0641 105.718 66.7201 97.8143 66.7201 97.8143L45.5833 97.2162L33.123 108.652L39.6285 232.075H91.1536L84.6641 106.419L84.4805 106.38Z" fill="#CCCCCC"/>
<path d="M42.9814 61.9265C42.9814 61.9265 48.0342 80.1256 48.4732 88.5872L49.024 99.2499C49.1333 101.341 50.0693 103.302 51.626 104.704C53.1828 106.105 55.2329 106.831 57.3255 106.723C58.509 106.662 59.6636 106.336 60.7035 105.768C61.7434 105.2 62.6419 104.405 63.3322 103.443C64.0224 102.48 64.4867 101.375 64.6905 100.209C64.8943 99.0423 64.8324 97.845 64.5094 96.7058C62.2701 88.7762 61.1498 80.5731 61.1809 72.334L42.9814 61.9265Z" fill="#FF8E8A"/>
<path d="M64.5261 96.7058C62.2813 88.777 61.1556 80.5738 61.1815 72.334L56.8232 69.8378C56.8232 69.8378 61.0698 105.662 61.9877 104.928C63.1688 103.955 64.0387 102.658 64.4899 101.197C64.941 99.7356 64.9536 98.1742 64.5261 96.7058Z" fill="#FFBCA6"/>
<path d="M55.0904 88.8583C57.2776 89.1214 62.0509 88.2761 62.5618 88.1884C61.6352 82.9545 61.1731 77.649 61.1809 72.3339L42.9814 61.9663C42.9814 61.9663 45.1127 69.6383 46.7251 77.3423C48.9362 81.6408 51.2829 85.9474 55.0904 88.8583Z" fill="#C4415F"/>
<path d="M88.1292 107.456C88.1292 107.456 87.8898 107.049 84.4814 106.38C82.4698 105.989 76.6508 103.078 72.2207 100.797L76.6029 113.924C76.6029 113.924 81.0809 141.677 82.861 180.532C84.0743 206.905 84.2499 224.068 84.2419 232.115H92.6551L88.1292 107.456Z" fill="#333333"/>
<path d="M88.1292 107.456C88.1292 107.456 87.8898 107.049 84.4814 106.38C82.4698 105.989 76.6508 103.078 72.2207 100.797L72.8513 102.679L74.3919 107.305C78.5586 109.45 83.755 111.723 85.5669 112.09L86.4769 112.281L90.468 232.131H92.6791L88.3208 112.927L88.1292 107.456Z" fill="#4D4D4D"/>
<path d="M80.5855 124.411L86.1731 123L73.5931 101.283C73.5931 101.283 70.8712 99.9756 70.3604 99.6885L76.6024 113.844C76.6024 113.844 79.5399 132.067 81.6073 159.645L87.7296 134.659L80.5855 124.411Z" fill="#666666"/>
<path d="M80.4498 113.111L73.5931 101.283C73.5931 101.283 70.8712 99.9756 70.3604 99.6885L75.4929 111.212L80.4498 113.111Z" fill="#808080"/>
<path d="M50.8046 118.677C49.0304 112.156 45.8998 106.083 41.6171 100.853L22.9627 116.596C22.9627 116.596 17.9978 117.935 16.6967 120.152C16.6024 120.808 16.6024 121.474 16.6967 122.13L22.5477 232.075H62.283L57.6693 175.898C57.6693 175.898 54.3328 131.589 50.8046 118.677Z" fill="#333333"/>
<path d="M34.7919 157.013L16.8799 125.918L22.5472 232.075H44.8016L34.7919 157.013Z" fill="#1A1A1A"/>
<path d="M16.7047 122.441C18.7836 124.314 20.6397 126.42 22.2364 128.718L22.1725 127.466C22.0811 126.809 22.0811 126.144 22.1725 125.488C23.4816 123.271 28.4465 121.923 28.4465 121.923L46.0073 107.137C44.7312 104.925 43.2734 102.823 41.6491 100.853L22.9627 116.596C22.9627 116.596 17.9978 117.935 16.6967 120.152C16.6024 120.808 16.6024 121.474 16.6967 122.13L16.7047 122.441Z" fill="#4D4D4D"/>
<path d="M43.7404 137.028L56.5119 161.926C55.2347 147.786 53.0636 126.836 50.8285 118.677C49.0543 112.156 45.9237 106.083 41.641 100.853L41.3457 101.124L42.2397 125.328L48.3621 126.046L43.7404 137.028Z" fill="#666666"/>
<path d="M50.0616 116.221C48.2185 110.624 45.3583 105.414 41.6244 100.853L41.3291 101.124L42.0156 119.77C42.0156 119.77 48.6807 116.931 50.0616 116.221Z" fill="#808080"/>
<path d="M57.6045 110.375L62.4577 116.285L65.5468 116.444L68.7636 109.633L63.3357 103.014L60.7096 103.772L57.6045 110.375Z" fill="#4D4D4D"/>
<g style="mix-blend-mode:multiply">
<path d="M48.4093 89.592C48.4093 89.592 53.8931 100.837 61.6997 103.445C63.5038 100.449 64.1109 96.8834 63.3999 93.46L70.089 100.582L69.9373 116.077L61.9551 104.912L56.9902 117.744L44.1309 98.7235L48.4093 89.592Z" fill="#B3B3B3"/>
</g>
<path d="M48.282 87.5026C48.282 87.5026 53.8696 100.853 61.7001 103.453C61.7001 103.453 64.3981 97.3279 63.2965 91.3625L70.3608 99.6885L70.2011 114.155L61.7161 103.548L56.8629 115.639L44.2031 98.6517L48.282 87.5026Z" fill="#F2F2F2"/>
<path d="M62.3857 114.921L62.9924 215.582L73.2096 231.006L80.9124 213.9L65.4749 115.112L62.3857 114.921Z" fill="#4D4D4D"/>
<path d="M67.8305 132.897L65.2602 116.093L63.4004 116.269L63.7356 137.371L67.8305 132.897Z" fill="#666666"/>
<path d="M62.5617 105.797L60.8535 109.928L63.6553 114.626L65.4992 114.466L66.9759 111.954L62.5617 105.797Z" fill="#666666"/>
<path d="M109.657 82.4623C109.761 82.0795 117.336 73.8093 117.336 73.8093L129.15 80.309L122.453 97.6708L111.788 96.9689C111.788 96.9689 111.469 91.2668 111.126 89.3926C110.671 86.8486 109.657 82.4623 109.657 82.4623Z" fill="#FF8E8A"/>
<path d="M123.306 95.4298L126.818 86.1308L117.335 73.8093C117.335 73.8093 113.112 78.4189 110.949 80.9151C114.671 86.077 118.803 90.9309 123.306 95.4298Z" fill="#C4415F"/>
<path d="M113.222 65.6351L107.688 70.0337L127.961 95.4984L133.496 91.0998L113.222 65.6351Z" fill="#E6E6E6"/>
<path d="M111.382 67.1002L107.69 70.0343L127.964 95.4991L131.656 92.565L111.382 67.1002Z" fill="#B3B3B3"/>
<path d="M120.249 85.8437C120.387 85.7434 120.517 85.6342 120.64 85.5167C120.756 85.7062 120.92 85.8624 121.114 85.97C121.308 86.0777 121.528 86.1331 121.75 86.1308C122.129 86.155 122.51 86.1002 122.867 85.9697C123.224 85.8393 123.551 85.6362 123.825 85.3732C124.088 85.1472 124.282 84.8513 124.384 84.5198C124.433 84.1148 124.593 83.7312 124.847 83.4113C124.976 83.2913 125.124 83.1942 125.286 83.1242C125.716 82.865 126.185 82.6766 126.675 82.5659L118.517 72.3259C117.455 74.8381 116.45 77.3821 115.556 79.9501L120.249 85.8437Z" fill="#808080"/>
<path d="M113.22 65.6416L107.686 70.0403L111.243 74.5091L116.778 70.1105L113.22 65.6416Z" fill="#808080"/>
<path d="M111.676 97.2242C111.676 97.2242 112.235 91.203 109.537 82.5899L111.932 71.0899C111.932 71.0899 113.887 70.9862 114.215 74.8461C114.42 77.0749 114.256 79.3222 113.728 81.4973C113.728 81.4973 117.447 85.6763 117.447 90.557L111.676 97.2242Z" fill="#FF8E8A"/>
<path d="M121.846 69.9096C120.637 70.2721 119.451 70.7062 118.293 71.2095C117.939 71.3075 117.608 71.4757 117.32 71.704C117.025 72.0338 116.817 72.4309 116.713 72.8604L114.893 78.3313C114.438 79.703 115.579 80.7238 116.577 79.4478C117.671 78.0681 118.461 76.5289 119.77 75.3247C120.705 74.4194 121.894 73.8211 123.179 73.61C123.455 73.6191 123.73 73.5612 123.979 73.4413C124.229 73.3213 124.445 73.1429 124.611 72.9212C124.776 72.6995 124.886 72.4411 124.93 72.168C124.973 71.895 124.95 71.6154 124.863 71.3531C124.512 69.7262 123.218 69.5826 121.846 69.9096Z" fill="#FF8E8A"/>
<path d="M124.887 71.5603C124.887 71.4965 124.887 71.4248 124.887 71.353C124.543 69.758 123.25 69.5825 121.837 69.9095C120.629 70.272 119.443 70.7061 118.285 71.2094C117.931 71.3074 117.6 71.4756 117.312 71.7039C117.277 71.9622 117.304 72.2251 117.392 72.4706C117.479 72.7162 117.624 72.9373 117.814 73.1155C120.177 72.7087 122.524 72.0787 124.887 71.5603Z" fill="#FFBCA6"/>
<path d="M123.227 72.5015C122.085 72.7886 121.024 73.2352 119.834 73.61C119.496 73.6993 119.179 73.8537 118.9 74.0646C118.617 74.3772 118.417 74.7555 118.318 75.1651L116.45 80.7477C115.955 82.263 117.128 83.4752 118.182 82.0875C119.236 80.6998 120.106 78.9533 121.431 77.7411C122.341 76.8393 123.521 76.2596 124.791 76.0903C126.3 75.9786 126.739 74.5909 126.475 73.2432C126.441 73.043 126.361 72.8536 126.24 72.6902C126.119 72.5268 125.962 72.3939 125.781 72.3021C125.503 72.199 125.204 72.1661 124.911 72.2064C124.342 72.2567 123.779 72.3555 123.227 72.5015Z" fill="#FF8E8A"/>
<path d="M119.675 75.6117C121.271 75.2369 122.868 74.9259 124.416 74.4154C125.111 74.1842 125.821 74.0087 126.532 73.8412C126.529 73.6513 126.51 73.4619 126.476 73.275C126.442 73.0749 126.361 72.8855 126.24 72.7221C126.12 72.5587 125.962 72.4257 125.781 72.334C125.504 72.2308 125.205 72.198 124.911 72.2383C124.343 72.2781 123.78 72.3662 123.227 72.5014C122.085 72.7885 121.024 73.2351 119.834 73.61C119.498 73.6976 119.183 73.8522 118.909 74.0645C118.862 74.1058 118.819 74.1512 118.781 74.2001C118.732 74.5039 118.795 74.8152 118.96 75.0752C119.125 75.3352 119.379 75.5261 119.675 75.6117Z" fill="#FFBCA6"/>
<path d="M124.743 75.2288C123.57 75.5239 122.476 76.0263 121.247 76.3852C120.896 76.4727 120.569 76.6361 120.289 76.8637C119.992 77.1955 119.788 77.6 119.698 78.0361C119.108 79.9581 119.036 81.0267 118.413 83.0683C117.926 84.6634 119.323 86.0749 120.385 84.6634C121.526 83.0683 121.822 81.3617 123.171 80.0857C124.089 79.2164 125.501 78.9931 126.819 78.8974C128.415 78.7857 128.415 77.5496 128.136 76.1141C128.098 75.9006 128.013 75.6985 127.885 75.523C127.758 75.3475 127.593 75.2033 127.401 75.1012C127.111 74.9914 126.799 74.9558 126.491 74.9976C125.903 75.0198 125.317 75.0972 124.743 75.2288Z" fill="#FF8E8A"/>
<path d="M128.167 76.2418C128.171 76.186 128.171 76.13 128.167 76.0743C128.13 75.8608 128.044 75.6587 127.917 75.4832C127.79 75.3077 127.624 75.1635 127.433 75.0614C127.143 74.9516 126.83 74.916 126.523 74.9578C125.933 74.9931 125.348 75.0838 124.775 75.2289C123.602 75.524 122.508 76.0264 121.279 76.3853C121.067 76.4511 120.862 76.5338 120.664 76.6325C120.714 77.2471 121 77.8185 121.462 78.2275C123.769 77.9963 125.892 76.808 128.167 76.2418Z" fill="#FFBCA6"/>
<path d="M126.068 77.8447C125.03 78.068 124.248 78.2833 123.178 78.5944C122.886 78.653 122.612 78.7816 122.38 78.9692C122.128 79.2423 121.961 79.5833 121.901 79.9501C121.454 81.5451 121.255 82.6138 120.792 84.3125C120.433 85.6204 122.428 85.6284 123.282 84.472C123.811 83.7756 124.248 83.0144 124.583 82.2071C124.583 82.2071 127.457 81.3059 128.574 80.8912C130.035 80.3329 129.652 78.076 128.223 77.7011C127.503 77.5866 126.767 77.6357 126.068 77.8447Z" fill="#FF8E8A"/>
<path d="M124.424 80.1495C125.225 79.9618 126.006 79.6946 126.755 79.352C127.553 79.0808 128.351 78.8256 129.149 78.6103C129.064 78.3939 128.93 78.1996 128.759 78.0421C128.588 77.8847 128.383 77.7681 128.16 77.7011C127.46 77.5962 126.747 77.6452 126.068 77.8447C125.031 78.068 124.248 78.2833 123.179 78.5943C122.936 78.6462 122.704 78.7379 122.492 78.8655C122.796 79.7507 122.867 80.3249 124.424 80.1495Z" fill="#FFBCA6"/>
<path d="M157.925 57.5402L124.4 15.3839C124.838 22.2735 123.6 29.1667 120.792 35.4745C117.984 41.7823 113.69 47.3173 108.276 51.6067L94.6025 62.4688L104.916 75.4283L118.254 64.8214C123.747 60.4577 130.228 57.5087 137.129 56.2335C144.029 54.9584 151.138 55.3961 157.83 57.5083L157.925 57.5402Z" fill="#CCCCCC"/>
<path d="M157.845 57.5083H157.925L124.399 15.3521C124.666 19.4919 124.325 23.6485 123.386 27.6895L145.536 55.5066C149.715 55.5727 153.861 56.247 157.845 57.5083Z" fill="#B3B3B3"/>
<path d="M110.28 54.6373C115.683 50.3428 119.966 44.8067 122.766 38.5009C125.565 32.1951 126.797 25.3066 126.356 18.4225L157.375 57.4206L157.845 57.5482H157.925L124.4 15.392C124.837 22.2803 123.598 29.1718 120.79 35.4782C117.983 41.7845 113.689 47.3182 108.276 51.6068L94.6025 62.4688L96.8535 65.3L110.28 54.6373Z" fill="#E6E6E6"/>
<path d="M107.608 52.1644L94.6211 62.4858L104.937 75.4429L117.924 65.1215L107.608 52.1644Z" fill="#E01D5E"/>
<path d="M157.446 57.7715C157.234 57.9374 156.992 58.06 156.733 58.1322C156.474 58.2043 156.203 58.2247 155.936 58.1921C155.669 58.1595 155.411 58.0746 155.177 57.9422C154.943 57.8098 154.738 57.6325 154.572 57.4206L123.553 18.5022C123.215 18.077 123.059 17.5348 123.121 16.995C123.182 16.4551 123.455 15.9617 123.881 15.6232C124.306 15.2849 124.849 15.1294 125.389 15.1907C125.93 15.252 126.423 15.5252 126.762 15.9502L157.765 54.8925C158.104 55.3167 158.262 55.8582 158.202 56.398C158.142 56.9378 157.87 57.4318 157.446 57.7715Z" fill="#1A1A1A"/>
<path d="M103.91 74.1683L95.6401 63.8007C95.1988 64.1515 94.831 64.5857 94.5576 65.0786C94.2843 65.5715 94.1108 66.1133 94.0471 66.6732C93.9833 67.2331 94.0306 67.8 94.1861 68.3416C94.3417 68.8832 94.6025 69.3889 94.9537 69.8298L97.8991 73.4505C98.6031 74.3389 99.6302 74.9129 100.756 75.0474C101.882 75.1818 103.016 74.8658 103.91 74.1683Z" fill="#E01D5E"/>
<path d="M102.808 74.7743C103.204 74.6148 103.575 74.4 103.91 74.1363L95.6404 63.7687C95.3109 64.035 95.0207 64.3464 94.7783 64.6938L102.808 74.7743Z" fill="#B01E4F"/>
<path d="M100.525 63.4359L99.0137 64.6373L102.626 69.1748L104.138 67.9734L100.525 63.4359Z" fill="#FC4E88"/>
<path d="M107.604 52.1653L94.6162 62.4867L96.8672 65.314L109.855 54.9926L107.604 52.1653Z" fill="#FC4E88"/>
<path d="M109.483 50.6677L107.44 52.2911L117.756 65.2482L119.799 63.6248L109.483 50.6677Z" fill="#E01D5E"/>
<path d="M111.738 53.5083L109.695 55.1317L117.755 65.2552L119.798 63.6318L111.738 53.5083Z" fill="#B01E4F"/>
<path d="M88.1211 107.456L119.1 150.346L115.851 175.029L89.2386 146.175L88.1211 107.456Z" fill="#1A1A1A"/>
<path d="M117.176 175.348L119.1 150.346L88.1211 107.456L88.3047 113.134L117.176 175.348Z" fill="#4D4D4D"/>
<path d="M110.264 101.331L110.168 94.417L124.632 96.0599L124.967 102.432L110.264 101.331Z" fill="#E6E6E6"/>
<path d="M110.351 167.524C110.351 167.524 115.34 176.082 116.937 175.858C118.533 175.635 125.174 167.883 126.515 166.687C128.639 164.709 127.649 155.634 127.314 151.694C126.268 138.352 127.17 100.869 127.17 100.869L108.523 99.4332L109.872 149.134L110.351 167.524Z" fill="#1A1A1A"/>
<path d="M127.162 100.869L115.46 100.007C115.46 100.007 125.094 153.736 126.475 166.679C128.575 164.661 127.593 155.626 127.274 151.694C126.26 138.352 127.162 100.869 127.162 100.869Z" fill="#4D4D4D"/>
<path d="M17.5748 119.148C17.5748 119.148 14.7172 120.424 15.4915 129.994C16.2657 139.564 15.6032 232.075 15.6032 232.075H36.5166L34.7924 157.013C34.7924 157.013 31.7512 132.961 17.5748 119.148Z" fill="#333333"/>
<path d="M22.0049 232.075L22.5078 125.209C21.074 123.031 19.4211 121.005 17.5748 119.164C17.5748 119.164 14.7172 120.424 15.4915 129.994C16.2657 139.564 15.6032 232.075 15.6032 232.075H22.0049Z" fill="#4D4D4D"/>
<path style="mix-blend-mode:multiply" opacity="0.5" d="M52.8638 110.295L61.8757 82.6457C61.3788 79.2314 61.1466 75.7839 61.1812 72.3339L42.9818 61.9663C42.9818 61.9663 47.7711 79.1287 48.4257 87.8694L48.282 87.5424L44.2909 98.4363L41.6169 100.893L22.9625 116.596C22.9625 116.596 19.4743 117.537 17.5825 119.156C17.5825 119.156 14.7169 120.424 15.4911 129.994C15.6827 132.386 15.8503 136.757 15.8903 146.821L52.8638 110.295Z" fill="url(#paint0_linear_56_6374)"/>
<path d="M76.5626 35.2978L80.1067 67.3576C80.1067 67.3576 76.371 81.8164 70.9272 83.1562C65.4833 84.496 55.6413 84.7512 55.6413 84.7512C55.6413 84.7512 49.2555 83.8979 43.0773 71.6641L35.8933 40.0509C35.8933 40.0509 32.8601 23.4309 53.2945 20.52C73.7289 17.6091 76.5626 35.2978 76.5626 35.2978Z" fill="#FF8E8A"/>
<path d="M56.2218 62.347C59.4092 62.1817 61.9244 60.7249 61.8397 59.093C61.7549 57.4611 59.1023 56.2722 55.9149 56.4374C52.7275 56.6026 50.2123 58.0595 50.297 59.6914C50.3817 61.3232 53.0344 62.5122 56.2218 62.347Z" fill="#FF7585"/>
<path d="M51.499 59.7093L53.8059 57.4045" stroke="#451313" stroke-width="0.47" stroke-miterlimit="10" stroke-linecap="round"/>
<path d="M54.6436 59.6136L56.9504 57.3088" stroke="#451313" stroke-width="0.47" stroke-miterlimit="10" stroke-linecap="round"/>
<path d="M57.7891 59.5181L60.0959 57.2133" stroke="#451313" stroke-width="0.47" stroke-miterlimit="10" stroke-linecap="round"/>
<path d="M76.5635 35.2977C76.5635 35.2977 73.8336 18.1832 54.2852 20.4002C70.3773 20.6634 72.74 35.497 72.74 35.497L76.2921 67.5569C76.2921 67.5569 73.2349 82.1433 67.799 83.4432C67.2562 83.5788 67.6074 83.5389 64.8217 84.1371C66.8762 83.9423 68.9159 83.6146 70.928 83.1561C76.3719 81.8163 80.1076 67.3575 80.1076 67.3575L76.5635 35.2977Z" fill="#FFBCA6"/>
<path d="M79.3243 60.2597L78.7417 54.9722C77.952 54.8291 77.1481 54.7809 76.347 54.8286C73.1541 54.9961 70.6477 56.4237 70.7595 58.0825C70.8712 59.7413 73.4894 60.9057 76.6743 60.7382C77.5747 60.6944 78.4655 60.5335 79.3243 60.2597Z" fill="#FF7585"/>
<path d="M71.6299 58.1304L73.9527 55.8256" stroke="#451313" stroke-width="0.47" stroke-miterlimit="10" stroke-linecap="round"/>
<path d="M74.1836 58.0027L76.4984 55.6899" stroke="#451313" stroke-width="0.47" stroke-miterlimit="10" stroke-linecap="round"/>
<path d="M76.7383 57.8672L79.0531 55.5624" stroke="#451313" stroke-width="0.47" stroke-miterlimit="10" stroke-linecap="round"/>
<path d="M76.5633 35.2977C76.5633 35.2977 73.7536 17.601 53.3272 20.5119C50.1678 20.8951 47.1038 21.8462 44.2833 23.3191L44.1396 31.6451C44.9379 32.0199 47.4762 31.8126 50.3099 30.5366C54.1254 28.8219 55.8974 28.6704 55.8974 28.6704C55.8974 28.6704 59.4575 37.9215 69.6108 39.5723C72.0651 39.988 74.572 39.988 77.0263 39.5723L76.5633 35.2977Z" fill="#C4415F"/>
<path style="mix-blend-mode:multiply" opacity="0.5" d="M49.3277 21.5327C29.8911 24.8025 35.9256 40.0827 35.9256 40.0827L43.1096 71.6959C49.2559 83.9297 55.6735 84.7831 55.6735 84.7831H55.7933L49.3277 21.5327Z" fill="url(#paint1_linear_56_6374)"/>
<path d="M44.0194 30.1297L45.2167 38.6711L39.8207 40.0268L43.2451 56.3677L37.897 56.6469C37.897 56.6469 29.9148 43.8868 32.2137 27.6176C32.2137 27.6176 34.2252 23.7816 36.4921 26.1103C36.4921 26.1103 36.7077 15.7826 44.8735 11.8429C49.3994 9.65772 56.8468 9.70557 62.8733 10.5589C65.2738 10.872 67.572 11.7251 69.5948 13.054C71.6176 14.3829 73.3123 16.153 74.5513 18.2309C77.345 23.0798 81.408 30.8475 84.5529 31.2622C84.5529 31.2622 80.4341 35.3773 70.1132 34.9387C59.7922 34.5001 55.9847 27.163 55.9847 27.163C54.0941 27.835 52.2713 28.6842 50.5408 29.6991C49.5457 30.2266 48.4502 30.5376 47.3262 30.6118C46.2022 30.6861 45.0753 30.5218 44.0194 30.1297Z" fill="#BF7569"/>
<path d="M44.0993 31.6611L45.2966 40.2024L39.9007 41.5502L43.3171 57.8911L37.977 58.1702C37.977 58.1702 29.9469 44.0224 32.2138 27.7772C32.2138 27.7772 34.1216 25.2332 36.3805 27.5619C36.3805 27.5619 36.2688 17.1066 44.4266 13.2067C48.9605 11.0216 56.7112 11.5001 62.7058 12.3534C65.1051 12.6639 67.4024 13.5152 69.4241 14.8429C71.4458 16.1706 73.139 17.94 74.3758 20.0175C77.1695 24.8743 81.2564 30.9513 84.4014 31.366C84.4014 31.366 80.5141 36.9485 70.1931 36.5019C59.8721 36.0553 56.0646 28.7342 56.0646 28.7342C54.1749 29.4051 52.3523 30.2515 50.6208 31.2623C49.6234 31.7846 48.5267 32.0902 47.4027 32.1589C46.2788 32.2276 45.153 32.058 44.0993 31.6611Z" fill="#451313"/>
<path d="M34.8789 28.479C35.6007 28.8767 36.2102 29.45 36.6509 30.1458C36.7055 29.5883 36.6541 29.0254 36.4993 28.487C36.4354 28.1281 36.3476 27.7852 36.2518 27.4423C35.9918 27.1606 35.6719 26.9407 35.3158 26.7986C34.9596 26.6565 34.5761 26.5958 34.1934 26.6211C33.8106 26.6463 33.4384 26.7568 33.104 26.9444C32.7696 27.1321 32.4815 27.3921 32.2607 27.7055C33.1829 27.7501 34.0808 28.0154 34.8789 28.479Z" fill="#7A372F"/>
<path d="M74.3756 19.9777C73.1388 17.9002 71.4456 16.1308 69.4239 14.8031C67.4022 13.4754 65.1049 12.6241 62.7056 12.3136C56.711 11.4603 48.9603 10.9818 44.4264 13.1669C42.2831 14.21 40.4747 15.8316 39.2061 17.8483C39.2061 18.0716 39.2539 18.3029 39.2859 18.5342C42.0493 20.6584 44.636 23.0028 47.0206 25.5443C54.0769 25.8712 56.7669 20.5519 63.7114 26.254C70.6559 31.9562 76.4191 36.2787 84.0101 31.8366C84.1499 31.6878 84.2805 31.5306 84.4012 31.3661C81.2563 30.9115 77.1454 24.8345 74.3756 19.9777Z" fill="#7A372F"/>
<path d="M67.6943 21.5328C69.1072 20.823 70.552 20.177 71.9967 19.531C72.7922 20.9871 73.6717 22.3957 74.6309 23.7498C73.1621 24.3639 71.6854 24.97 70.1608 25.5043C69.1751 24.2891 68.3464 22.9548 67.6943 21.5328Z" fill="#BF7569"/>
<path d="M73.8014 28.5349C72.7542 28.0018 71.8108 27.2861 71.0156 26.4215L75.334 24.667C76.3956 26.0866 77.5291 27.4662 78.7424 28.7901C78.3893 28.8349 78.0417 28.9151 77.7047 29.0294C76.3841 29.2836 75.0167 29.1103 73.8014 28.5349Z" fill="#BF7569"/>
<path d="M57.5335 52.0773C57.5749 52.3669 57.5278 52.6622 57.3983 52.9245C57.2688 53.1868 57.063 53.404 56.8078 53.5474C56.5527 53.6909 56.2602 53.754 55.9685 53.7284C55.6769 53.7029 55.3997 53.5899 55.1735 53.4043C54.9472 53.2187 54.7823 52.9691 54.7005 52.6883C54.6187 52.4074 54.6237 52.1084 54.7148 51.8305C54.806 51.5525 54.9791 51.3086 55.2115 51.1306C55.4438 50.9527 55.7245 50.849 56.0169 50.8332C56.3831 50.7976 56.7484 50.9086 57.0327 51.1418C57.3171 51.3751 57.4972 51.7115 57.5335 52.0773Z" fill="#451313"/>
<path d="M75.7961 49.7964C75.8377 50.0863 75.7904 50.382 75.6607 50.6446C75.5309 50.9072 75.3247 51.1244 75.0691 51.2677C74.8135 51.4111 74.5204 51.4738 74.2285 51.4477C73.9365 51.4216 73.6593 51.3078 73.4333 51.1214C73.2072 50.935 73.0429 50.6846 72.9619 50.4032C72.8808 50.1217 72.8869 49.8223 72.9794 49.5444C73.0718 49.2665 73.2462 49.023 73.4796 48.8459C73.7131 48.6689 73.9947 48.5665 74.2875 48.5523C74.4684 48.5347 74.651 48.5529 74.8248 48.606C74.9986 48.659 75.1602 48.7458 75.3003 48.8614C75.4405 48.977 75.5564 49.1191 75.6415 49.2795C75.7266 49.44 75.7791 49.6156 75.7961 49.7964Z" fill="#451313"/>
<path d="M50.3975 44.15C53.1899 43.2307 56.1611 42.9874 59.0661 43.4402" stroke="#451313" stroke-width="1.77" stroke-miterlimit="10" stroke-linecap="round"/>
<path d="M71.0625 42.7384C73.5574 41.5966 76.3335 41.2138 79.0447 41.6379" stroke="#451313" stroke-width="1.77" stroke-miterlimit="10" stroke-linecap="round"/>
<path style="mix-blend-mode:soft-light" d="M49.4949 61.6314C53.2226 57.8831 56.9582 54.1268 60.67 50.3387C61.0052 49.9958 61.5799 50.4663 61.2447 50.8092C57.509 54.6452 53.7255 58.4493 49.9499 62.2535C50.1131 62.4514 50.2979 62.6306 50.5007 62.7878C50.7994 63.0114 51.127 63.1938 51.4745 63.3301L62.442 52.2368L62.2025 50.0596C60.6341 49.6651 59.0292 49.4326 57.4132 49.3657L48.8164 58.0586L49.008 59.9646C49.0481 60.5488 49.2142 61.1174 49.4949 61.6314Z" fill="url(#paint2_linear_56_6374)"/>
<g style="mix-blend-mode:soft-light">
<path d="M60.9494 51.0405C54.0049 49.2062 49.5029 51.9496 49.5029 51.9496V52.0055C52.805 50.9628 56.3405 50.9101 59.6722 51.8539L60.4705 59.3186C60.5666 60.1447 60.4049 60.9803 60.0075 61.7111C60.4964 61.4169 60.9071 61.0093 61.2048 60.5228C61.6336 59.8032 61.8106 58.9615 61.7077 58.1303L60.9494 51.0405Z" fill="white"/>
</g>
<g style="mix-blend-mode:soft-light">
<path d="M53.7737 54.7489L50.038 55.1955L49.7188 52.7631L53.4544 52.3165L53.7737 54.7489Z" fill="white"/>
</g>
<g style="mix-blend-mode:soft-light">
<path d="M54.6921 61.5915L50.9484 62.0381L50.1582 56.1047L53.9018 55.6581L54.6921 61.5915Z" fill="white"/>
</g>
<path d="M48.1309 51.1681C48.1309 51.1681 53.6625 47.9223 62.1795 50.0596L63.1055 58.4015C63.2297 59.3861 63.0098 60.3834 62.4828 61.2247C62.1267 61.8012 61.632 62.2798 61.0438 62.6168C60.4555 62.9538 59.7923 63.1387 59.1144 63.1547L53.894 63.681C52.6829 63.8289 51.461 63.5094 50.4776 62.7878C50.0439 62.4517 49.6891 62.0248 49.4381 61.5371C49.1871 61.0494 49.0461 60.5126 49.0249 59.9646L48.1309 51.1681Z" stroke="#871C4C" stroke-width="1.4" stroke-miterlimit="10"/>
<path style="mix-blend-mode:soft-light" d="M80.0185 47.5395C79.1315 47.3971 78.2349 47.3225 77.3365 47.3162L69.7295 55.0281L70.0807 57.604L80.0185 47.5395Z" fill="url(#paint3_linear_56_6374)"/>
<path style="mix-blend-mode:soft-light" d="M80.3384 50.3706L80.1867 48.4646C76.8821 51.8141 73.5721 55.161 70.2568 58.5052C70.3622 59.0229 70.5712 59.5139 70.8715 59.9487L80.3384 50.3706Z" fill="url(#paint4_linear_56_6374)"/>
<g style="mix-blend-mode:soft-light">
<path d="M78.8539 48.4805C72.3324 47.9941 70.2012 50.0756 70.2012 50.0756V50.1314C72.2366 49.4535 73.5297 49.1186 77.5767 49.3339L78.4308 57.5801C78.5301 58.4064 78.3683 59.2429 77.9678 59.9726C78.4562 59.6811 78.8669 59.2763 79.1652 58.7923C79.5906 58.0715 79.7647 57.2301 79.6601 56.3998L78.8539 48.4805Z" fill="white"/>
</g>
<g style="mix-blend-mode:soft-light">
<path d="M74.4719 52.8509L70.7363 53.2975L70.417 50.8651L74.1527 50.4185L74.4719 52.8509Z" fill="white"/>
</g>
<g style="mix-blend-mode:soft-light">
<path d="M75.3814 59.6935L71.6457 60.1401L70.8555 54.2066L74.5991 53.76L75.3814 59.6935Z" fill="white"/>
</g>
<path d="M68.9395 49.286C72.3577 47.4953 76.2726 46.884 80.0746 47.5474L80.8728 57.1653C81.0312 58.1432 80.848 59.1457 80.354 60.0045C80.0702 60.4068 79.6984 60.7394 79.267 60.977C78.8355 61.2147 78.3556 61.3512 77.8635 61.3762L75.1656 61.6234C73.959 61.8051 72.7285 61.5199 71.7252 60.8259C71.2727 60.5057 70.8954 60.0909 70.6197 59.6102C70.344 59.1295 70.1765 58.5946 70.1288 58.0426L68.9395 49.286Z" stroke="#871C4C" stroke-width="1.4" stroke-miterlimit="10"/>
<path d="M62.1787 50.0595C64.37 49.4087 66.6569 49.1389 68.9396 49.262" stroke="#871C4C" stroke-width="1.4" stroke-miterlimit="10"/>
<path d="M48.1142 50.889L32.8682 51.2001L33.2673 52.6914L48.3137 53.5766L48.1142 50.889Z" fill="#871C4C"/>
<path d="M36.7234 51.6545C35.6054 50.7846 34.2113 50.3458 32.7961 50.4184C29.3957 50.6975 28.805 53.5526 29.6033 55.8973C30.889 59.9668 32.976 63.7385 35.7416 66.9906C36.4813 68.0059 37.4564 68.8269 38.5832 69.3831C39.9209 69.8716 41.3883 69.8716 42.726 69.3831L39.2457 54.7409C38.5382 53.6102 37.6907 52.5733 36.7234 51.6545Z" fill="#FF8E8A"/>
<path style="mix-blend-mode:multiply" opacity="0.5" d="M36.7234 51.6545C35.6054 50.7846 34.2113 50.3458 32.7961 50.4184C29.3957 50.6975 28.805 53.5526 29.6033 55.8973C30.889 59.9668 32.976 63.7385 35.7416 66.9906C36.4813 68.0059 37.4564 68.8269 38.5832 69.3831C39.9209 69.8716 41.3883 69.8716 42.726 69.3831L39.2457 54.7409C38.5382 53.6102 37.6907 52.5733 36.7234 51.6545Z" fill="url(#paint5_linear_56_6374)"/>
<path d="M33.3151 51.2319V50.3945C33.1475 50.3945 32.9799 50.3945 32.8203 50.3945C29.6274 50.6577 28.9329 53.1699 29.4757 55.4109C29.4917 53.3533 30.8486 51.2718 33.3151 51.2319Z" fill="#FFBCA6"/>
<path d="M32.6764 56.4157C32.5726 55.8574 33.3469 55.4188 33.9536 55.5544C34.5305 55.7353 35.0251 56.1137 35.3505 56.623C36.8388 58.5538 38.0133 60.7069 38.8307 63.0031" stroke="#451313" stroke-width="0.93" stroke-miterlimit="10" stroke-linecap="round"/>
<path d="M67.9579 51.0166L66.5371 51.4233L70.2648 63.5056L72.4439 63.0988L67.9579 51.0166Z" fill="#FFBCA6"/>
<path d="M67.9423 51.184L72.4442 63.0987L67.6709 64.3508" stroke="#451313" stroke-width="0.93" stroke-miterlimit="10" stroke-linecap="round"/>
<path d="M60.0234 66.4084L71.5178 69.6543C71.5178 69.6543 70.2965 76.3534 63.8629 75.181C57.1898 73.9608 60.0234 66.4084 60.0234 66.4084Z" fill="#451313"/>
<path d="M59.433 69.4629C59.3372 71.7039 60.0396 74.4792 63.8631 75.181C64.6777 75.3755 65.5237 75.3994 66.348 75.2512C67.1723 75.103 67.9569 74.7858 68.6524 74.3197C66.6728 71.5843 63.1287 70.0451 59.433 69.4629Z" fill="#E33667"/>
<path d="M60.8621 74.543C61.2932 74.9019 61.4528 75.3804 61.2134 75.6276C60.9739 75.8748 60.4151 75.7791 59.9921 75.4282C59.569 75.0773 59.4094 74.5908 59.6488 74.3436C59.8883 74.0964 60.4311 74.1682 60.8621 74.543Z" fill="#FFBCA6"/>
<path style="mix-blend-mode:multiply" opacity="0.5" d="M70.1373 130.249L19.9932 185.819L22.5475 232.075H58.172L91.6972 195.884L88.2649 110.2L70.1373 130.249Z" fill="url(#paint6_linear_56_6374)"/>
<path d="M26.0591 196.514C25.3646 193.747 24.5824 191.051 23.7442 188.443L12.7208 190.238L21.5891 182.262C16.3945 168.396 9.14573 155.387 0.0850189 143.671C-1.8928 155.287 -2.44765 167.1 -1.5673 178.849L9.47208 179.647L-1.24003 182.837C-0.607823 189.468 0.51272 196.044 2.1125 202.511C9.84724 233.335 28.0866 255.338 28.0866 255.338C28.0866 255.338 33.8098 227.346 26.0591 196.514Z" fill="#90B8DE"/>
<path d="M3.12598 154.717L28.6371 248.48L25.8593 249.189L3.12598 154.717Z" fill="white"/>
<path d="M5.30556 205.111C4.98627 204.704 4.659 204.314 4.33173 203.915L-5.28681 205.566L-0.186188 198.731C-10.5665 187.699 -22.8882 178.667 -36.5371 172.086C-34.4666 181.667 -31.2282 190.958 -26.8946 199.752L-16.1426 195.238L-25.9767 201.618C-25.5217 202.519 -25.0427 203.436 -24.5479 204.353L-15.3603 197.934L-23.0711 207.017C-20.4032 211.695 -17.3938 216.171 -14.0672 220.407C-12.5346 222.337 -10.9542 224.18 -9.34975 225.942L2.31224 217.967L-5.26287 230.193C4.39729 239.7 15.5596 247.552 27.7754 253.432C27.7754 253.432 23.0659 227.569 5.30556 205.111Z" fill="#B6D9FA"/>
<path d="M-29.5371 180.045C-18.8569 190.732 -8.6477 201.873 1.09058 213.469C5.95174 219.267 10.6692 225.184 15.1951 231.277C19.7703 237.356 23.9739 243.705 27.783 250.29L25.2607 251.646C21.7098 245.035 17.7648 238.644 13.447 232.505C9.16057 226.325 4.6666 220.288 -0.0189476 214.354C-9.34747 202.519 -19.1869 191.083 -29.5371 180.045Z" fill="white"/>
<path d="M35.5894 204.768L47.8341 215.853C48.2093 214.506 48.5605 213.126 48.8878 211.73L35.9886 201.769L50.0931 205.597C51.0949 199.293 51.525 192.911 51.3782 186.529L40.8976 182.358L51.2745 183.817C50.9452 174.897 49.5463 166.048 47.1078 157.46C39.7327 166.865 33.865 177.358 29.7145 188.563L36.8427 193.746L28.2698 192.718C27.0484 196.429 26.0515 200.211 25.2844 204.042C19.9204 231.086 27.6791 255.41 27.6791 255.41C36.0936 244.661 42.5412 232.512 46.7246 219.522L35.5894 204.768Z" fill="#B6D9FA"/>
<path d="M43.4527 172.262C35.8724 199.129 30.7139 226.619 28.0391 254.405L25.1895 254.078C28.8278 226.317 34.9398 198.936 43.4527 172.262Z" fill="white"/>
<path d="M196.472 208.811C197.956 206.419 199.337 204.074 200.614 201.714L191.89 195.142L203.52 196.027C209.819 182.983 214.124 169.069 216.291 154.748C206.732 161.2 197.999 168.796 190.285 177.366L197.182 185.708L187.675 180.301C183.417 185.222 179.529 190.452 176.045 195.948C159.458 222.265 156.233 250.011 156.233 250.011C156.233 250.011 179.885 235.113 196.472 208.811Z" fill="#B6D9FA"/>
<path d="M210.52 164.334L161.437 245.752L159.059 244.269L210.52 164.334Z" fill="white"/>
<path d="M161.493 200.246C161.126 197.854 160.695 195.565 160.128 193.308L149.368 193.475L158.724 187.965C155.09 175.682 149.508 164.061 142.192 153.544C139.066 162.858 137.274 172.567 136.868 182.382L147.389 184.36L136.772 185.724C136.676 191.283 137.055 196.841 137.906 202.336C142.049 228.709 157.215 249.038 157.215 249.038C157.215 249.038 165.636 226.62 161.493 200.246Z" fill="#B6D9FA"/>
<path d="M143.917 163.003L158.333 243.368L155.795 243.782L143.917 163.003Z" fill="white"/>
<path d="M176.364 199.871C176.436 199.369 176.5 198.874 176.564 198.38L168.933 192.638L177.226 191.689C178.13 176.904 176.307 162.079 171.846 147.954C166.394 155.851 161.934 164.387 158.564 173.37L168.996 177.996L157.821 175.268C157.486 176.201 157.159 177.15 156.832 178.123L167.568 180.348L155.93 180.954C154.376 185.988 153.202 191.13 152.417 196.338C152.066 198.731 151.811 201.084 151.619 203.412L165.125 206.363L151.38 209.17C151.084 222.414 152.971 235.617 156.967 248.248C156.967 248.248 172.261 227.569 176.364 199.871Z" fill="#90B8DE"/>
<path d="M170.864 158.273C170.407 173.043 169.31 187.781 167.576 202.487C166.706 209.832 165.66 217.161 164.343 224.459C163.077 231.79 161.371 239.039 159.234 246.167L156.576 245.281C158.901 238.325 160.807 231.236 162.283 224.052C163.816 216.874 165.085 209.585 166.187 202.296C168.374 187.712 169.933 173.038 170.864 158.273Z" fill="white"/>
<path d="M193.518 216.356L195.801 232.306C196.934 231.524 198.06 230.706 199.177 229.85L195.689 214.306L203.911 225.99C208.607 221.867 212.921 217.329 216.802 212.432L211.51 202.742L218.43 210.327C223.755 203.404 228.233 195.869 231.769 187.885C220.35 190.384 209.388 194.638 199.273 200.493L201.396 208.835L195.585 202.71C192.349 204.748 189.236 206.974 186.262 209.378C165.317 226.396 155.93 249.548 155.93 249.548C168.965 246.691 181.394 241.561 192.648 234.395L193.518 216.356Z" fill="#90B8DE"/>
<path d="M219.772 196.753C197.266 212.269 176.192 229.761 156.8 249.022L154.86 247.004C174.958 228.358 196.681 211.541 219.772 196.753Z" fill="white"/>
<defs>
<linearGradient id="paint0_linear_56_6374" x1="19.6723" y1="121.205" x2="49.2835" y2="84.3456" gradientUnits="userSpaceOnUse">
<stop offset="0.02" stop-color="#7A4E82" stop-opacity="0"/>
<stop offset="1" stop-color="#7A4E82"/>
</linearGradient>
<linearGradient id="paint1_linear_56_6374" x1="50.9346" y1="87.8412" x2="44.977" y2="47.5651" gradientUnits="userSpaceOnUse">
<stop offset="0.02" stop-color="#7A4E82" stop-opacity="0"/>
<stop offset="1" stop-color="#7A4E82"/>
</linearGradient>
<linearGradient id="paint2_linear_56_6374" x1="62.4834" y1="48.735" x2="52.1454" y2="58.5201" gradientUnits="userSpaceOnUse">
<stop stop-color="white"/>
<stop offset="1" stop-color="white" stop-opacity="0"/>
</linearGradient>
<linearGradient id="paint3_linear_56_6374" x1="78.8848" y1="45.9682" x2="71.6531" y2="55.5493" gradientUnits="userSpaceOnUse">
<stop stop-color="white"/>
<stop offset="1" stop-color="white" stop-opacity="0"/>
</linearGradient>
<linearGradient id="paint4_linear_56_6374" x1="80.6636" y1="47.2736" x2="73.4701" y2="56.8207" gradientUnits="userSpaceOnUse">
<stop stop-color="white"/>
<stop offset="1" stop-color="white" stop-opacity="0"/>
</linearGradient>
<linearGradient id="paint5_linear_56_6374" x1="40.0649" y1="89.4028" x2="34.1012" y2="49.0073" gradientUnits="userSpaceOnUse">
<stop offset="0.02" stop-color="#763882" stop-opacity="0"/>
<stop offset="1" stop-color="#763882"/>
</linearGradient>
<linearGradient id="paint6_linear_56_6374" x1="29.6007" y1="221.583" x2="88.8122" y2="152.057" gradientUnits="userSpaceOnUse">
<stop offset="0.02" stop-color="#696969" stop-opacity="0"/>
<stop offset="1" stop-color="#696969"/>
</linearGradient>
</defs>
</svg>
