<svg width="16" height="16" viewBox="0 0 16 16" fill="none" xmlns="http://www.w3.org/2000/svg">
<path d="M13.5 4.55C13.3881 3.43614 12.865 2.404 12.0329 1.65512C11.2008 0.906233 10.1195 0.494386 9 0.499996H7C5.88486 0.500601 4.80966 0.915239 3.98285 1.66353C3.15603 2.41181 2.63651 3.44044 2.525 4.55C1.95571 4.66017 1.44242 4.9648 1.07301 5.41175C0.703598 5.85869 0.501035 6.42015 0.5 7V13C0.5 13.663 0.763392 14.2989 1.23223 14.7678C1.70107 15.2366 2.33696 15.5 3 15.5H13C13.663 15.5 14.2989 15.2366 14.7678 14.7678C15.2366 14.2989 15.5 13.663 15.5 13V7C15.5001 6.42367 15.3011 5.865 14.9367 5.41854C14.5722 4.97209 14.0647 4.66526 13.5 4.55ZM7 1.5H9C9.84092 1.50098 10.6534 1.8047 11.2887 2.35559C11.9241 2.90647 12.3399 3.6677 12.46 4.5H3.54C3.66013 3.6677 4.07591 2.90647 4.71126 2.35559C5.34662 1.8047 6.15908 1.50098 7 1.5ZM3 5.5H13C13.3978 5.5 13.7794 5.65803 14.0607 5.93934C14.342 6.22064 14.5 6.60217 14.5 7V8.5H13.5V8C13.5 7.73478 13.3946 7.48043 13.2071 7.29289C13.0196 7.10535 12.7652 7 12.5 7H11.5C11.2348 7 10.9804 7.10535 10.7929 7.29289C10.6054 7.48043 10.5 7.73478 10.5 8V8.5H5.5V8C5.5 7.73478 5.39464 7.48043 5.20711 7.29289C5.01957 7.10535 4.76522 7 4.5 7H3.5C3.23478 7 2.98043 7.10535 2.79289 7.29289C2.60536 7.48043 2.5 7.73478 2.5 8V8.5H1.5V7C1.5 6.60217 1.65804 6.22064 1.93934 5.93934C2.22064 5.65803 2.60218 5.5 3 5.5ZM12.5 10H11.5V8H12.5V9V10ZM4.5 10H3.5V8H4.5V9V10ZM13 14.5H3C2.60218 14.5 2.22064 14.342 1.93934 14.0607C1.65804 13.7794 1.5 13.3978 1.5 13V9.5H2.5V10C2.5 10.2652 2.60536 10.5196 2.79289 10.7071C2.98043 10.8946 3.23478 11 3.5 11H4.5C4.76522 11 5.01957 10.8946 5.20711 10.7071C5.39464 10.5196 5.5 10.2652 5.5 10V9.5H10.5V10C10.5 10.2652 10.6054 10.5196 10.7929 10.7071C10.9804 10.8946 11.2348 11 11.5 11H12.5C12.7652 11 13.0196 10.8946 13.2071 10.7071C13.3946 10.5196 13.5 10.2652 13.5 10V9.5H14.5V13C14.5 13.3978 14.342 13.7794 14.0607 14.0607C13.7794 14.342 13.3978 14.5 13 14.5Z" fill="#66789C"/>
</svg>
