<svg width="263" height="248" viewBox="0 0 263 248" fill="none" xmlns="http://www.w3.org/2000/svg">
<path d="M0.000469208 59H51.3184V116.345H0.000469208V59Z" fill="#699DCF"/>
<path d="M5.08855 64.556H46.2285V110.797H5.08855V64.556Z" fill="#E6F3FF"/>
<path d="M27.4346 78.5172C27.433 79.5704 27.7445 80.6003 28.3298 81.4767C28.9151 82.3531 29.7479 83.0364 30.7226 83.4402C31.6973 83.844 32.7702 83.9501 33.8054 83.7451C34.8406 83.54 35.7915 83.033 36.5378 82.2883C37.284 81.5436 37.7921 80.5947 37.9976 79.5617C38.203 78.5286 38.0967 77.458 37.6921 76.4853C37.2874 75.5126 36.6027 74.6816 35.7245 74.0976C34.8462 73.5135 33.8141 73.2026 32.7587 73.2042C31.3467 73.2042 29.9925 73.764 28.994 74.7604C27.9956 75.7567 27.4346 77.1081 27.4346 78.5172Z" fill="#99CEFF"/>
<path d="M5.08855 110.839V89.2352C14.0152 88.2129 23.2106 90.0732 31.6166 93.3833C36.7056 95.4029 42.2228 98.336 46.2285 102.694V110.839H5.08855Z" fill="#99CEFF"/>
<path d="M13.8053 110.839C16.6779 106.44 20.0417 102.38 23.832 98.7382C27.9314 94.5135 32.5373 90.8095 37.5454 87.71C40.2199 86.0337 43.1539 84.8105 46.2285 84.0898V110.839H13.8053Z" fill="#BFE0FF"/>
<path d="M76.1907 0.427368H210.343V243.86H76.1907V0.427368Z" fill="#699DCF"/>
<path d="M84.1766 8.7655H202.356V243.86H84.1766V8.7655Z" fill="#E6F3FF"/>
<path d="M166.197 111.782C169.791 111.086 184.882 102.781 184.882 102.781L207.119 102.153L220.228 114.17L213.383 243.86H159.177L166.004 111.824L166.197 111.782Z" fill="#CCCCCC"/>
<path d="M209.855 65.0712C209.855 65.0712 204.54 84.1945 204.078 93.0857L203.498 104.29C203.383 106.487 202.399 108.548 200.761 110.021C199.123 111.493 196.966 112.256 194.765 112.142C193.52 112.078 192.305 111.735 191.211 111.139C190.117 110.542 189.172 109.707 188.446 108.696C187.719 107.685 187.231 106.523 187.017 105.297C186.802 104.072 186.867 102.814 187.207 101.617C189.563 93.2843 190.742 84.6647 190.709 76.0072L209.855 65.0712Z" fill="#FF8E8A"/>
<path d="M187.19 101.617C189.552 93.2852 190.736 84.6655 190.709 76.0072L195.294 73.3843C195.294 73.3843 190.826 111.028 189.861 110.257C188.618 109.234 187.703 107.871 187.228 106.336C186.754 104.8 186.74 103.16 187.19 101.617Z" fill="#FFBCA6"/>
<path d="M197.116 93.3706C194.815 93.6472 189.794 92.7589 189.256 92.6667C190.231 87.167 190.717 81.5922 190.709 76.0071L209.855 65.113C209.855 65.113 207.613 73.1747 205.917 81.2698C203.591 85.7866 201.122 90.3119 197.116 93.3706Z" fill="#C4415F"/>
<path d="M162.359 112.913C162.359 112.913 162.611 112.486 166.197 111.782C168.313 111.371 174.435 108.312 179.096 105.916L174.485 119.709C174.485 119.709 169.774 148.872 167.902 189.7C166.625 217.412 166.44 235.446 166.449 243.902H157.598L162.359 112.913Z" fill="#333333"/>
<path d="M162.359 112.913C162.359 112.913 162.611 112.486 166.197 111.782C168.313 111.371 174.435 108.312 179.096 105.916L178.432 107.893L176.812 112.754C172.428 115.008 166.961 117.396 165.055 117.782L164.098 117.983L159.899 243.919H157.573L162.158 118.662L162.359 112.913Z" fill="#4D4D4D"/>
<path d="M170.294 130.729L164.416 129.246L177.651 106.427C177.651 106.427 180.514 105.052 181.052 104.751L174.485 119.625C174.485 119.625 171.394 138.774 169.22 167.752L162.779 141.497L170.294 130.729Z" fill="#666666"/>
<path d="M170.437 118.854L177.651 106.427C177.651 106.427 180.514 105.052 181.052 104.751L175.652 116.86L170.437 118.854Z" fill="#808080"/>
<path d="M201.626 124.704C203.492 117.852 206.786 111.47 211.291 105.974L230.916 122.516C230.916 122.516 236.14 123.924 237.509 126.254C237.608 126.943 237.608 127.643 237.509 128.332L231.353 243.86H189.55L194.404 184.831C194.404 184.831 197.914 138.271 201.626 124.704Z" fill="#333333"/>
<path d="M218.472 164.987L237.316 132.313L231.354 243.86H207.942L218.472 164.987Z" fill="#1A1A1A"/>
<path d="M237.5 128.659C235.313 130.627 233.36 132.84 231.681 135.254L231.748 133.939C231.844 133.249 231.844 132.55 231.748 131.86C230.371 129.531 225.147 128.114 225.147 128.114L206.673 112.578C208.015 110.254 209.549 108.045 211.258 105.974L230.916 122.516C230.916 122.516 236.14 123.924 237.509 126.254C237.608 126.943 237.608 127.643 237.509 128.332L237.5 128.659Z" fill="#4D4D4D"/>
<path d="M209.058 143.986L195.622 170.149C196.965 155.291 199.249 133.276 201.601 124.704C203.467 117.852 206.761 111.47 211.266 105.974L211.577 106.259L210.637 131.693L204.196 132.447L209.058 143.986Z" fill="#666666"/>
<path d="M202.407 122.123C204.346 116.241 207.355 110.767 211.283 105.974L211.594 106.259L210.872 125.852C210.872 125.852 203.86 122.868 202.407 122.123Z" fill="#808080"/>
<path d="M194.472 115.98L189.366 122.19L186.116 122.357L182.732 115.201L188.442 108.245L191.205 109.041L194.472 115.98Z" fill="#4D4D4D"/>
<g style="mix-blend-mode:multiply">
<path d="M204.145 94.1416C204.145 94.1416 198.376 105.957 190.163 108.698C188.265 105.55 187.627 101.803 188.375 98.2059L181.337 105.689L181.497 121.972L189.895 110.24L195.118 123.723L208.646 103.737L204.145 94.1416Z" fill="#B3B3B3"/>
</g>
<path d="M204.279 91.946C204.279 91.946 198.401 105.974 190.163 108.706C190.163 108.706 187.324 102.27 188.483 96.002L181.051 104.751L181.219 119.952L190.146 108.807L195.252 121.511L208.57 103.661L204.279 91.946Z" fill="#F2F2F2"/>
<path d="M189.441 120.757L188.803 226.53L178.054 242.737L169.951 224.762L186.192 120.958L189.441 120.757Z" fill="#4D4D4D"/>
<path d="M183.713 139.645L186.417 121.989L188.374 122.173L188.021 144.347L183.713 139.645Z" fill="#666666"/>
<path d="M189.257 111.17L191.054 115.511L188.106 120.447L186.166 120.279L184.613 117.639L189.257 111.17Z" fill="#666666"/>
<path d="M139.71 86.6499C139.601 86.2476 131.631 77.5575 131.631 77.5575L119.203 84.3872L126.249 102.631L137.468 101.893C137.468 101.893 137.804 95.9014 138.165 93.9321C138.643 91.2589 139.71 86.6499 139.71 86.6499Z" fill="#FF8E8A"/>
<path d="M125.351 100.276L121.656 90.5047L131.632 77.5575C131.632 77.5575 136.075 82.4012 138.351 85.0241C134.435 90.4481 130.088 95.5485 125.351 100.276Z" fill="#C4415F"/>
<path d="M135.959 68.9681L141.782 73.5901L120.453 100.348L114.631 95.726L135.959 68.9681Z" fill="#E6E6E6"/>
<path d="M137.895 70.5076L141.779 73.5907L120.451 100.349L116.566 97.2655L137.895 70.5076Z" fill="#B3B3B3"/>
<path d="M128.567 90.203C128.422 90.0976 128.285 89.9828 128.156 89.8594C128.034 90.0585 127.862 90.2226 127.657 90.3357C127.453 90.4488 127.222 90.507 126.988 90.5047C126.589 90.5301 126.189 90.4725 125.813 90.3354C125.437 90.1984 125.094 89.9849 124.805 89.7086C124.528 89.4711 124.324 89.1602 124.217 88.8119C124.165 88.3863 123.997 87.9832 123.73 87.6471C123.594 87.521 123.438 87.419 123.268 87.3454C122.816 87.0731 122.322 86.875 121.807 86.7588L130.389 75.9988C131.506 78.6385 132.564 81.3117 133.505 84.0101L128.567 90.203Z" fill="#808080"/>
<path d="M135.962 68.975L141.785 73.597L138.042 78.2928L132.219 73.6708L135.962 68.975Z" fill="#808080"/>
<path d="M137.585 102.161C137.585 102.161 136.998 95.8344 139.836 86.7839L137.317 74.6999C137.317 74.6999 135.259 74.5909 134.915 78.6469C134.699 80.9888 134.872 83.3503 135.427 85.6359C135.427 85.6359 131.514 90.027 131.514 95.1556L137.585 102.161Z" fill="#FF8E8A"/>
<path d="M126.887 73.4596C128.159 73.8406 129.406 74.2967 130.624 74.8256C130.997 74.9286 131.345 75.1053 131.648 75.3452C131.958 75.6917 132.177 76.109 132.287 76.5603L134.201 82.309C134.68 83.7504 133.479 84.823 132.429 83.4822C131.279 82.0324 130.447 80.4151 129.07 79.1497C128.087 78.1985 126.836 77.5698 125.484 77.348C125.193 77.3576 124.904 77.2967 124.642 77.1707C124.38 77.0447 124.152 76.8572 123.978 76.6242C123.804 76.3912 123.689 76.1197 123.642 75.8328C123.596 75.5459 123.62 75.2521 123.713 74.9764C124.082 73.2669 125.442 73.1161 126.887 73.4596Z" fill="#FF8E8A"/>
<path d="M123.688 75.1943C123.688 75.1273 123.688 75.0519 123.688 74.9765C124.049 73.3005 125.41 73.1161 126.896 73.4597C128.168 73.8406 129.416 74.2967 130.633 74.8256C131.006 74.9286 131.354 75.1053 131.657 75.3452C131.694 75.6166 131.665 75.8928 131.573 76.1509C131.481 76.4089 131.329 76.6412 131.128 76.8285C128.643 76.4011 126.174 75.739 123.688 75.1943Z" fill="#FFBCA6"/>
<path d="M125.434 76.1831C126.635 76.4848 127.752 76.954 129.003 77.3479C129.359 77.4417 129.692 77.604 129.986 77.8256C130.283 78.154 130.494 78.5516 130.599 78.982L132.564 84.8481C133.084 86.4403 131.85 87.714 130.741 86.2559C129.633 84.7978 128.718 82.9625 127.324 81.6888C126.366 80.7412 125.125 80.132 123.788 79.9541C122.201 79.8368 121.739 78.3787 122.016 76.9624C122.052 76.7521 122.137 76.5531 122.264 76.3814C122.391 76.2097 122.556 76.07 122.747 75.9736C123.039 75.8652 123.353 75.8307 123.662 75.873C124.261 75.9259 124.853 76.0296 125.434 76.1831Z" fill="#FF8E8A"/>
<path d="M129.171 79.4513C127.492 79.0575 125.812 78.7307 124.183 78.1943C123.453 77.9513 122.705 77.767 121.958 77.591C121.961 77.3914 121.98 77.1923 122.017 76.996C122.052 76.7857 122.137 76.5867 122.264 76.415C122.391 76.2433 122.556 76.1036 122.747 76.0071C123.039 75.8988 123.354 75.8643 123.662 75.9066C124.26 75.9485 124.853 76.041 125.434 76.1831C126.635 76.4848 127.752 76.9541 129.003 77.348C129.357 77.4401 129.688 77.6025 129.977 77.8256C130.027 77.8689 130.071 77.9166 130.112 77.9681C130.164 78.2873 130.097 78.6143 129.923 78.8876C129.75 79.1608 129.483 79.3614 129.171 79.4513Z" fill="#FFBCA6"/>
<path d="M123.839 79.0491C125.074 79.3591 126.224 79.8871 127.517 80.2642C127.886 80.3561 128.23 80.5278 128.525 80.767C128.838 81.1156 129.052 81.5407 129.146 81.9988C129.768 84.0184 129.843 85.1414 130.498 87.2867C131.011 88.9627 129.541 90.446 128.424 88.9627C127.223 87.2867 126.913 85.4933 125.493 84.1525C124.528 83.2391 123.041 83.0044 121.656 82.9039C119.976 82.7866 119.976 81.4877 120.27 79.9793C120.31 79.755 120.4 79.5426 120.533 79.3582C120.667 79.1738 120.841 79.0222 121.043 78.915C121.348 78.7996 121.677 78.7621 122 78.806C122.619 78.8294 123.235 78.9107 123.839 79.0491Z" fill="#FF8E8A"/>
<path d="M120.237 80.1134C120.233 80.0548 120.233 79.996 120.237 79.9374C120.276 79.7131 120.367 79.5007 120.5 79.3163C120.634 79.1319 120.808 78.9803 121.01 78.8731C121.315 78.7577 121.644 78.7203 121.967 78.7642C122.588 78.8013 123.203 78.8966 123.806 79.0491C125.041 79.3591 126.191 79.8871 127.484 80.2642C127.706 80.3333 127.923 80.4202 128.131 80.524C128.078 81.1698 127.777 81.7702 127.291 82.2C124.864 81.957 122.63 80.7083 120.237 80.1134Z" fill="#FFBCA6"/>
<path d="M122.445 81.7978C123.537 82.0324 124.36 82.2587 125.485 82.5855C125.793 82.6471 126.081 82.7822 126.325 82.9794C126.59 83.2663 126.766 83.6247 126.829 84.0101C127.299 85.6862 127.509 86.8091 127.996 88.594C128.374 89.9684 126.274 89.9767 125.376 88.7616C124.82 88.0299 124.36 87.2301 124.007 86.3817C124.007 86.3817 120.984 85.4347 119.808 84.999C118.272 84.4124 118.675 82.0408 120.178 81.647C120.935 81.5266 121.71 81.5782 122.445 81.7978Z" fill="#FF8E8A"/>
<path d="M124.175 84.2197C123.332 84.0224 122.51 83.7417 121.723 83.3817C120.883 83.0967 120.043 82.8286 119.203 82.6023C119.293 82.3749 119.434 82.1708 119.614 82.0053C119.794 81.8398 120.01 81.7173 120.245 81.647C120.98 81.5367 121.731 81.5882 122.445 81.7978C123.537 82.0325 124.36 82.2587 125.485 82.5855C125.74 82.6401 125.984 82.7363 126.207 82.8705C125.888 83.8007 125.812 84.404 124.175 84.2197Z" fill="#FFBCA6"/>
<path d="M88.9295 60.4622L124.2 16.1652C123.739 23.4047 125.041 30.6478 127.995 37.276C130.949 43.9041 135.467 49.7202 141.163 54.2274L155.548 65.6411L144.698 79.2587L130.666 68.1132C124.887 63.5279 118.068 60.4291 110.808 59.0892C103.549 57.7493 96.0702 58.2092 89.0303 60.4286L88.9295 60.4622Z" fill="#CCCCCC"/>
<path d="M89.014 60.4286H88.9301L124.2 16.1316C123.92 20.4817 124.279 24.8494 125.267 29.0955L101.963 58.3252C97.5673 58.3947 93.2051 59.1033 89.014 60.4286Z" fill="#B3B3B3"/>
<path d="M139.055 57.4119C133.371 52.8992 128.864 47.082 125.919 40.456C122.974 33.83 121.678 26.5917 122.142 19.358L89.5089 60.3365L89.0135 60.4706H88.9295L124.2 16.1736C123.74 23.4117 125.043 30.6532 127.997 37.2798C130.951 43.9063 135.468 49.7211 141.163 54.2275L155.548 65.6411L153.18 68.616L139.055 57.4119Z" fill="#E6E6E6"/>
<path d="M141.865 54.8134L155.528 65.6589L144.676 79.274L131.012 68.4284L141.865 54.8134Z" fill="#E01D5E"/>
<path d="M89.4341 60.7052C89.6566 60.8795 89.9115 61.0083 90.1841 61.0842C90.4566 61.16 90.7415 61.1814 91.0224 61.1472C91.3032 61.1129 91.5746 61.0237 91.8208 60.8846C92.067 60.7454 92.2833 60.5592 92.4572 60.3365L125.09 19.4418C125.447 18.9949 125.61 18.4253 125.546 17.858C125.481 17.2908 125.194 16.7723 124.746 16.4166C124.298 16.0611 123.728 15.8977 123.159 15.9621C122.591 16.0266 122.071 16.3136 121.715 16.7601L89.0982 57.68C88.7411 58.1258 88.5759 58.6947 88.6389 59.2619C88.7018 59.8292 88.9879 60.3482 89.4341 60.7052Z" fill="#1A1A1A"/>
<path d="M145.757 77.9346L154.457 67.0405C154.921 67.4092 155.308 67.8655 155.596 68.3834C155.884 68.9013 156.066 69.4706 156.133 70.0589C156.2 70.6472 156.151 71.2429 155.987 71.8121C155.823 72.3812 155.549 72.9126 155.179 73.3759L152.081 77.1804C151.34 78.1139 150.259 78.7171 149.075 78.8584C147.89 78.9997 146.697 78.6676 145.757 77.9346Z" fill="#E01D5E"/>
<path d="M146.915 78.5714C146.499 78.4039 146.109 78.1782 145.756 77.901L154.456 67.007C154.803 67.2868 155.108 67.614 155.363 67.979L146.915 78.5714Z" fill="#B01E4F"/>
<path d="M149.317 66.6572L150.907 67.9197L147.107 72.6876L145.516 71.4251L149.317 66.6572Z" fill="#FC4E88"/>
<path d="M141.871 54.8142L155.534 65.6598L153.166 68.6307L139.503 57.7852L141.871 54.8142Z" fill="#FC4E88"/>
<path d="M139.893 53.2407L142.042 54.9465L131.189 68.5616L129.04 66.8557L139.893 53.2407Z" fill="#E01D5E"/>
<path d="M137.521 56.2255L139.67 57.9314L131.191 68.569L129.042 66.8631L137.521 56.2255Z" fill="#B01E4F"/>
<path d="M162.367 112.913L129.776 157.981L133.194 183.917L161.192 153.598L162.367 112.913Z" fill="#1A1A1A"/>
<path d="M131.8 184.252L129.776 157.981L162.367 112.913L162.174 118.88L131.8 184.252Z" fill="#4D4D4D"/>
<path d="M139.072 106.477L139.173 99.2115L123.956 100.938L123.604 107.634L139.072 106.477Z" fill="#E6E6E6"/>
<path d="M138.98 176.032C138.98 176.032 133.732 185.023 132.052 184.789C130.373 184.554 123.386 176.409 121.975 175.152C119.741 173.073 120.783 163.537 121.135 159.397C122.235 145.377 121.286 105.991 121.286 105.991L140.903 104.483L139.484 156.707L138.98 176.032Z" fill="#1A1A1A"/>
<path d="M121.295 105.991L133.605 105.086C133.605 105.086 123.47 161.543 122.017 175.143C119.808 173.023 120.841 163.529 121.177 159.397C122.243 145.377 121.295 105.991 121.295 105.991Z" fill="#4D4D4D"/>
<path d="M236.585 125.198C236.585 125.198 239.592 126.539 238.777 136.595C237.962 146.651 238.659 243.86 238.659 243.86H216.658L218.472 164.987C218.472 164.987 221.671 139.712 236.585 125.198Z" fill="#333333"/>
<path d="M231.925 243.86L231.395 131.567C232.904 129.279 234.643 127.15 236.585 125.215C236.585 125.215 239.592 126.539 238.777 136.595C237.962 146.651 238.659 243.86 238.659 243.86H231.925Z" fill="#4D4D4D"/>
<path style="mix-blend-mode:multiply" opacity="0.5" d="M199.46 115.896L189.979 86.8425C190.502 83.2549 190.746 79.6323 190.709 76.0071L209.856 65.113C209.856 65.113 204.817 83.1469 204.129 92.3315L204.28 91.9879L208.479 103.435L211.292 106.016L230.917 122.516C230.917 122.516 234.587 123.505 236.577 125.206C236.577 125.206 239.592 126.539 238.777 136.595C238.576 139.109 238.399 143.701 238.357 154.277L199.46 115.896Z" fill="url(#paint0_linear_59_7222)"/>
<path d="M174.526 37.0902L170.798 70.778C170.798 70.778 174.728 85.9711 180.455 87.3789C186.182 88.7868 196.537 89.0549 196.537 89.0549C196.537 89.0549 203.255 88.1582 209.754 75.3032L217.312 42.0847C217.312 42.0847 220.503 24.6206 199.005 21.5619C177.508 18.5032 174.526 37.0902 174.526 37.0902Z" fill="#FF8E8A"/>
<path d="M195.927 65.513C192.573 65.3394 189.927 63.8085 190.016 62.0938C190.106 60.379 192.896 59.1297 196.25 59.3033C199.603 59.4769 202.249 61.0078 202.16 62.7225C202.071 64.4373 199.28 65.6866 195.927 65.513Z" fill="#FF7585"/>
<path d="M200.896 62.7415L198.469 60.3197" stroke="#451313" stroke-width="0.47" stroke-miterlimit="10" stroke-linecap="round"/>
<path d="M197.587 62.641L195.16 60.2191" stroke="#451313" stroke-width="0.47" stroke-miterlimit="10" stroke-linecap="round"/>
<path d="M194.278 62.5404L191.851 60.1185" stroke="#451313" stroke-width="0.47" stroke-miterlimit="10" stroke-linecap="round"/>
<path d="M174.527 37.0901C174.527 37.0901 177.399 19.1065 197.965 21.4362C181.035 21.7127 178.55 37.2996 178.55 37.2996L174.813 70.9875C174.813 70.9875 178.029 86.3146 183.748 87.6806C184.319 87.823 183.949 87.7811 186.88 88.4096C184.719 88.205 182.573 87.8607 180.456 87.3789C174.729 85.971 170.799 70.778 170.799 70.778L174.527 37.0901Z" fill="#FFBCA6"/>
<path d="M171.621 63.3198L172.234 57.7638C173.065 57.6134 173.911 57.5628 174.754 57.613C178.113 57.789 180.75 59.289 180.632 61.0321C180.514 62.7751 177.76 63.9986 174.409 63.8226C173.462 63.7766 172.525 63.6076 171.621 63.3198Z" fill="#FF7585"/>
<path d="M179.717 61.0822L177.273 58.6604" stroke="#451313" stroke-width="0.47" stroke-miterlimit="10" stroke-linecap="round"/>
<path d="M177.029 60.9482L174.594 58.5179" stroke="#451313" stroke-width="0.47" stroke-miterlimit="10" stroke-linecap="round"/>
<path d="M174.342 60.8057L171.906 58.3839" stroke="#451313" stroke-width="0.47" stroke-miterlimit="10" stroke-linecap="round"/>
<path d="M174.527 37.0901C174.527 37.0901 177.483 18.4947 198.972 21.5535C202.296 21.9561 205.519 22.9555 208.487 24.5032L208.638 33.252C207.798 33.6459 205.127 33.428 202.146 32.0872C198.132 30.2855 196.268 30.1263 196.268 30.1263C196.268 30.1263 192.523 39.8471 181.841 41.5818C179.259 42.0186 176.622 42.0186 174.039 41.5818L174.527 37.0901Z" fill="#C4415F"/>
<path style="mix-blend-mode:multiply" opacity="0.5" d="M203.18 22.6262C223.628 26.062 217.279 42.1182 217.279 42.1182L209.721 75.3368C203.255 88.1918 196.504 89.0885 196.504 89.0885H196.378L203.18 22.6262Z" fill="url(#paint1_linear_59_7222)"/>
<path d="M208.764 31.6599L207.504 40.6349L213.181 42.0595L209.578 59.2303L215.204 59.5236C215.204 59.5236 223.602 46.1155 221.184 29.0201C221.184 29.0201 219.067 24.9893 216.682 27.4363C216.682 27.4363 216.456 16.5841 207.865 12.4444C203.104 10.1482 195.269 10.1985 188.928 11.0952C186.403 11.4242 183.985 12.3206 181.857 13.717C179.729 15.1134 177.946 16.9733 176.643 19.1568C173.703 24.2519 169.429 32.4141 166.12 32.8498C166.12 32.8498 170.454 37.1739 181.312 36.713C192.17 36.2521 196.175 28.5425 196.175 28.5425C198.164 29.2486 200.082 30.1409 201.903 31.2073C202.95 31.7616 204.102 32.0884 205.285 32.1664C206.467 32.2444 207.653 32.0718 208.764 31.6599Z" fill="#BF7569"/>
<path d="M208.68 33.2688L207.42 42.2438L213.097 43.6601L209.503 60.8308L215.121 61.1241C215.121 61.1241 223.569 46.2579 221.184 29.1877C221.184 29.1877 219.177 26.5144 216.801 28.9614C216.801 28.9614 216.918 17.9752 208.336 13.8773C203.566 11.5812 195.412 12.084 189.105 12.9806C186.581 13.3069 184.164 14.2014 182.037 15.5965C179.91 16.9917 178.129 18.8509 176.828 21.0339C173.889 26.1373 169.589 32.523 166.28 32.9587C166.28 32.9587 170.37 38.8248 181.228 38.3555C192.086 37.8862 196.092 30.1933 196.092 30.1933C198.08 30.8983 199.998 31.7877 201.819 32.8498C202.868 33.3986 204.022 33.7197 205.205 33.7919C206.387 33.8641 207.572 33.6858 208.68 33.2688Z" fill="#451313"/>
<path d="M218.379 29.9252C217.62 30.343 216.979 30.9455 216.515 31.6767C216.458 31.0908 216.512 30.4994 216.675 29.9336C216.742 29.5565 216.834 29.1962 216.935 28.8358C217.209 28.5399 217.545 28.3088 217.92 28.1594C218.295 28.0101 218.698 27.9464 219.101 27.9729C219.503 27.9994 219.895 28.1155 220.247 28.3127C220.598 28.5098 220.902 28.7831 221.134 29.1124C220.164 29.1592 219.219 29.438 218.379 29.9252Z" fill="#7A372F"/>
<path d="M176.828 20.9921C178.129 18.8092 179.911 16.9499 182.038 15.5548C184.165 14.1596 186.581 13.2652 189.106 12.9389C195.412 12.0422 203.566 11.5394 208.336 13.8356C210.591 14.9316 212.493 16.6356 213.828 18.7547C213.828 18.9893 213.778 19.2323 213.744 19.4753C210.837 21.7075 208.116 24.1709 205.607 26.8414C198.183 27.185 195.353 21.5955 188.047 27.5872C180.741 33.579 174.678 38.121 166.692 33.4533C166.545 33.2969 166.408 33.1318 166.281 32.9589C169.589 32.4812 173.914 26.0956 176.828 20.9921Z" fill="#7A372F"/>
<path d="M183.856 22.6261C182.37 21.8803 180.85 21.2015 179.33 20.5227C178.493 22.0527 177.568 23.5329 176.559 24.9558C178.104 25.601 179.658 26.2379 181.262 26.7994C182.299 25.5225 183.17 24.1203 183.856 22.6261Z" fill="#BF7569"/>
<path d="M177.433 29.9839C178.534 29.4237 179.527 28.6717 180.363 27.7632L175.82 25.9196C174.703 27.4112 173.511 28.861 172.234 30.252C172.606 30.2991 172.972 30.3833 173.326 30.5035C174.715 30.7706 176.154 30.5885 177.433 29.9839Z" fill="#BF7569"/>
<path d="M194.547 54.7219C194.503 55.0261 194.553 55.3364 194.689 55.6121C194.825 55.8877 195.042 56.1159 195.31 56.2667C195.578 56.4174 195.886 56.4837 196.193 56.4569C196.5 56.43 196.791 56.3113 197.029 56.1163C197.267 55.9212 197.441 55.659 197.527 55.3639C197.613 55.0688 197.608 54.7546 197.512 54.4625C197.416 54.1704 197.234 53.9141 196.989 53.7271C196.745 53.5401 196.45 53.4312 196.142 53.4146C195.757 53.3772 195.372 53.4938 195.073 53.7389C194.774 53.984 194.585 54.3375 194.547 54.7219Z" fill="#451313"/>
<path d="M175.333 52.3251C175.289 52.6297 175.339 52.9404 175.475 53.2163C175.612 53.4923 175.829 53.7206 176.098 53.8712C176.367 54.0218 176.675 54.0877 176.982 54.0603C177.289 54.0328 177.581 53.9133 177.819 53.7174C178.056 53.5215 178.229 53.2584 178.314 52.9627C178.4 52.6669 178.393 52.3524 178.296 52.0603C178.199 51.7683 178.015 51.5124 177.77 51.3264C177.524 51.1403 177.228 51.0327 176.92 51.0178C176.73 50.9993 176.537 51.0185 176.355 51.0742C176.172 51.13 176.002 51.2212 175.854 51.3427C175.707 51.4641 175.585 51.6134 175.495 51.782C175.406 51.9506 175.351 52.1351 175.333 52.3251Z" fill="#451313"/>
<path d="M202.055 46.392C199.117 45.426 195.991 45.1704 192.935 45.6462" stroke="#451313" stroke-width="1.77" stroke-miterlimit="10" stroke-linecap="round"/>
<path d="M180.313 44.9087C177.689 43.7089 174.768 43.3067 171.916 43.7522" stroke="#451313" stroke-width="1.77" stroke-miterlimit="10" stroke-linecap="round"/>
<path style="mix-blend-mode:soft-light" d="M203.004 64.7611C199.082 60.8225 195.152 56.8755 191.247 52.8949C190.895 52.5346 190.29 53.029 190.643 53.3894C194.573 57.4202 198.553 61.4175 202.525 65.4147C202.354 65.6227 202.159 65.811 201.946 65.9762C201.632 66.2112 201.287 66.4029 200.921 66.5461L189.383 54.8894L189.635 52.6016C191.285 52.1871 192.973 51.9428 194.674 51.8726L203.718 61.0068L203.516 63.0097C203.474 63.6235 203.299 64.221 203.004 64.7611Z" fill="url(#paint2_linear_59_7222)"/>
<g style="mix-blend-mode:soft-light">
<path d="M190.953 53.6324C198.259 51.705 202.995 54.5877 202.995 54.5877V54.6464C199.521 53.5508 195.802 53.4954 192.297 54.4871L191.457 62.3309C191.356 63.1989 191.526 64.077 191.944 64.8449C191.43 64.5357 190.997 64.1074 190.684 63.5963C190.233 62.8401 190.047 61.9556 190.155 61.0822L190.953 53.6324Z" fill="white"/>
</g>
<g style="mix-blend-mode:soft-light">
<path d="M198.503 57.5291L202.433 57.9983L202.769 55.4424L198.838 54.9731L198.503 57.5291Z" fill="white"/>
</g>
<g style="mix-blend-mode:soft-light">
<path d="M197.536 64.7193L201.474 65.1885L202.306 58.9538L198.367 58.4845L197.536 64.7193Z" fill="white"/>
</g>
<path d="M204.439 53.7664C204.439 53.7664 198.62 50.3557 189.66 52.6016L188.686 61.3671C188.555 62.4017 188.786 63.4497 189.341 64.3337C189.715 64.9395 190.236 65.4423 190.855 65.7965C191.473 66.1506 192.171 66.3449 192.884 66.3616L198.376 66.9147C199.65 67.0702 200.936 66.7344 201.971 65.9762C202.427 65.623 202.8 65.1744 203.064 64.6619C203.328 64.1494 203.477 63.5854 203.499 63.0096L204.439 53.7664Z" stroke="#871C4C" stroke-width="1.4" stroke-miterlimit="10"/>
<path style="mix-blend-mode:soft-light" d="M170.891 49.9535C171.824 49.8039 172.768 49.7255 173.713 49.7189L181.716 57.8224L181.346 60.5291L170.891 49.9535Z" fill="url(#paint3_linear_59_7222)"/>
<path style="mix-blend-mode:soft-light" d="M170.555 52.9285L170.714 50.9257C174.191 54.4453 177.673 57.9621 181.161 61.4762C181.05 62.0201 180.83 62.536 180.515 62.9929L170.555 52.9285Z" fill="url(#paint4_linear_59_7222)"/>
<g style="mix-blend-mode:soft-light">
<path d="M172.117 50.9424C178.978 50.4312 181.22 52.6184 181.22 52.6184V52.6771C179.078 51.9648 177.718 51.6128 173.46 51.8391L172.562 60.5041C172.457 61.3723 172.628 62.2513 173.049 63.0181C172.535 62.7118 172.103 62.2864 171.789 61.7778C171.342 61.0204 171.158 60.1362 171.269 59.2638L172.117 50.9424Z" fill="white"/>
</g>
<g style="mix-blend-mode:soft-light">
<path d="M176.727 55.5347L180.657 56.004L180.993 53.448L177.063 52.9788L176.727 55.5347Z" fill="white"/>
</g>
<g style="mix-blend-mode:soft-light">
<path d="M175.77 62.7248L179.7 63.194L180.531 56.9593L176.593 56.49L175.77 62.7248Z" fill="white"/>
</g>
<path d="M182.547 51.7888C178.951 49.9072 174.832 49.2649 170.832 49.962L169.992 60.0683C169.826 61.0958 170.019 62.1492 170.538 63.0517C170.837 63.4744 171.228 63.8239 171.682 64.0736C172.136 64.3233 172.641 64.4668 173.158 64.493L175.997 64.7528C177.266 64.9438 178.561 64.644 179.616 63.9148C180.092 63.5784 180.489 63.1424 180.779 62.6374C181.069 62.1323 181.245 61.5701 181.296 60.9902L182.547 51.7888Z" stroke="#871C4C" stroke-width="1.4" stroke-miterlimit="10"/>
<path d="M189.659 52.6016C187.354 51.9177 184.948 51.6343 182.546 51.7636" stroke="#871C4C" stroke-width="1.4" stroke-miterlimit="10"/>
<path d="M204.456 53.4733L220.495 53.8001L220.075 55.3672L204.246 56.2973L204.456 53.4733Z" fill="#871C4C"/>
<path d="M216.439 54.2777C217.616 53.3635 219.082 52.9024 220.571 52.9787C224.148 53.272 224.77 56.2721 223.93 58.7358C222.577 63.012 220.382 66.9752 217.472 70.3925C216.694 71.4593 215.668 72.322 214.483 72.9065C213.075 73.4198 211.532 73.4198 210.124 72.9065L213.786 57.5207C214.53 56.3326 215.422 55.243 216.439 54.2777Z" fill="#FF8E8A"/>
<path style="mix-blend-mode:multiply" opacity="0.5" d="M216.439 54.2777C217.616 53.3635 219.082 52.9024 220.571 52.9787C224.148 53.272 224.77 56.2721 223.93 58.7358C222.577 63.012 220.382 66.9752 217.472 70.3925C216.694 71.4593 215.668 72.322 214.483 72.9065C213.075 73.4198 211.532 73.4198 210.124 72.9065L213.786 57.5207C214.53 56.3326 215.422 55.243 216.439 54.2777Z" fill="url(#paint5_linear_59_7222)"/>
<path d="M220.025 53.8335V52.9536C220.202 52.9536 220.378 52.9536 220.546 52.9536C223.905 53.2302 224.635 55.8699 224.064 58.2247C224.048 56.0626 222.62 53.8754 220.025 53.8335Z" fill="#FFBCA6"/>
<path d="M220.697 59.2806C220.806 58.694 219.992 58.2331 219.353 58.3756C218.747 58.5657 218.226 58.9633 217.884 59.4985C216.318 61.5273 215.082 63.7898 214.223 66.2025" stroke="#451313" stroke-width="0.93" stroke-miterlimit="10" stroke-linecap="round"/>
<path d="M183.579 53.6072L185.074 54.0346L181.153 66.7304L178.86 66.303L183.579 53.6072Z" fill="#FFBCA6"/>
<path d="M183.596 53.7832L178.86 66.303L183.882 67.6187" stroke="#451313" stroke-width="0.93" stroke-miterlimit="10" stroke-linecap="round"/>
<path d="M191.927 69.7808L179.834 73.1914C179.834 73.1914 181.119 80.2307 187.888 78.9988C194.908 77.7167 191.927 69.7808 191.927 69.7808Z" fill="#451313"/>
<path d="M192.548 72.9904C192.649 75.3452 191.91 78.2614 187.887 78.9989C187.03 79.2032 186.14 79.2284 185.273 79.0726C184.406 78.9168 183.581 78.5836 182.849 78.0938C184.931 75.2194 188.66 73.6021 192.548 72.9904Z" fill="#E33667"/>
<path d="M191.044 78.3284C190.591 78.7055 190.423 79.2083 190.675 79.4681C190.927 79.7279 191.515 79.6273 191.96 79.2586C192.405 78.8899 192.573 78.3787 192.321 78.1189C192.069 77.8591 191.498 77.9345 191.044 78.3284Z" fill="#FFBCA6"/>
<path style="mix-blend-mode:multiply" opacity="0.5" d="M181.287 136.863L234.041 195.255L231.354 243.86H193.875L158.605 205.831L162.216 115.796L181.287 136.863Z" fill="url(#paint6_linear_59_7222)"/>
<path d="M227.659 206.493C228.389 203.585 229.212 200.753 230.094 198.012L241.691 199.898L232.361 191.518C237.826 176.947 245.452 163.278 254.985 150.967C257.065 163.172 257.649 175.585 256.723 187.931L245.109 188.769L256.379 192.121C255.714 199.09 254.535 206 252.852 212.795C244.714 245.184 225.526 268.304 225.526 268.304C225.526 268.304 219.505 238.89 227.659 206.493Z" fill="#90B8DE"/>
<path d="M251.785 162.573L224.946 261.098L227.869 261.843L251.785 162.573Z" fill="white"/>
<path d="M249.492 215.527C249.828 215.099 250.173 214.689 250.517 214.27L260.636 216.004L255.27 208.823C266.19 197.23 279.153 187.74 293.513 180.825C291.334 190.892 287.928 200.655 283.368 209.895L272.057 205.152L282.403 211.856C281.924 212.803 281.42 213.767 280.899 214.731L271.234 207.985L279.346 217.53C276.539 222.446 273.373 227.148 269.873 231.6C268.261 233.628 266.598 235.564 264.91 237.416L252.641 229.035L260.611 241.882C250.448 251.872 238.705 260.123 225.853 266.302C225.853 266.302 230.808 239.125 249.492 215.527Z" fill="#B6D9FA"/>
<path d="M286.148 189.188C274.912 200.418 264.172 212.124 253.927 224.309C248.813 230.401 243.85 236.619 239.088 243.022C234.275 249.409 229.852 256.081 225.845 263L228.499 264.424C232.234 257.478 236.385 250.762 240.927 244.312C245.437 237.818 250.165 231.474 255.094 225.239C264.908 212.803 275.26 200.786 286.148 189.188Z" fill="white"/>
<path d="M217.632 215.166L204.75 226.815C204.356 225.399 203.986 223.949 203.642 222.482L217.212 212.016L202.374 216.038C201.32 209.413 200.867 202.707 201.022 196.001L212.048 191.618L201.131 193.152C201.477 183.778 202.949 174.48 205.515 165.456C213.273 175.339 219.447 186.364 223.813 198.138L216.314 203.585L225.333 202.504C226.618 206.404 227.667 210.378 228.474 214.404C234.117 242.821 225.954 268.38 225.954 268.38C217.102 257.086 210.319 244.319 205.918 230.67L217.632 215.166Z" fill="#B6D9FA"/>
<path d="M209.36 181.009C217.335 209.241 222.762 238.127 225.576 267.324L228.574 266.98C224.747 237.81 218.316 209.039 209.36 181.009Z" fill="white"/>
<path d="M48.3775 219.415C46.8156 216.901 45.3628 214.437 44.0192 211.957L53.1978 205.052L40.9624 205.982C34.3354 192.275 29.8063 177.654 27.5262 162.607C37.5828 169.386 46.7709 177.367 54.8857 186.373L47.6301 195.138L57.6317 189.457C62.112 194.628 66.2017 200.123 69.8671 205.898C87.3173 233.552 90.71 262.707 90.71 262.707C90.71 262.707 65.8278 247.053 48.3775 219.415Z" fill="#B6D9FA"/>
<path d="M33.5978 172.68L85.2348 258.232L87.7373 256.673L33.5978 172.68Z" fill="white"/>
<path d="M85.1764 210.415C85.5626 207.901 86.0161 205.496 86.6123 203.124L97.9324 203.3L88.0903 197.51C91.9134 184.604 97.785 172.393 105.482 161.341C108.771 171.128 110.656 181.33 111.083 191.644L100.015 193.722L111.184 195.155C111.285 200.997 110.886 206.836 109.991 212.611C105.633 240.323 89.6775 261.684 89.6775 261.684C89.6775 261.684 80.818 238.128 85.1764 210.415Z" fill="#B6D9FA"/>
<path d="M103.668 171.28L88.5018 255.726L91.1723 256.162L103.668 171.28Z" fill="white"/>
<path d="M69.5314 210.021C69.4558 209.493 69.3886 208.974 69.3214 208.454L77.3496 202.42L68.6244 201.423C67.673 185.888 69.5915 170.31 74.2844 155.467C80.0198 163.765 84.7128 172.735 88.2581 182.174L77.2824 187.035L89.0391 184.169C89.3918 185.149 89.7361 186.146 90.0804 187.169L78.7856 189.507L91.0293 190.144C92.6635 195.432 93.8986 200.836 94.7242 206.309C95.0937 208.823 95.3625 211.295 95.564 213.742L81.3552 216.843L95.8159 219.792C96.1275 233.709 94.1415 247.582 89.9376 260.855C89.9376 260.855 73.8478 239.125 69.5314 210.021Z" fill="#90B8DE"/>
<path d="M75.3179 166.311C75.7993 181.831 76.9526 197.317 78.7777 212.77C79.693 220.488 80.7931 228.189 82.1787 235.857C83.511 243.561 85.3057 251.178 87.5532 258.667L90.3496 257.737C87.9037 250.428 85.8987 242.978 84.3453 235.429C82.733 227.887 81.3977 220.228 80.2389 212.569C77.9379 197.244 76.2976 181.825 75.3179 166.311Z" fill="white"/>
<path d="M51.4849 227.343L49.0832 244.103C47.8907 243.282 46.7066 242.421 45.531 241.522L49.2007 225.189L40.5512 237.466C35.6108 233.133 31.0717 228.365 26.989 223.22L32.5566 213.038L25.2759 221.007C19.6738 213.733 14.963 205.816 11.2435 197.426C23.2567 200.052 34.7893 204.522 45.4302 210.675L43.1964 219.44L49.3099 213.004C52.7146 215.145 55.9897 217.485 59.1183 220.01C81.1537 237.893 91.0293 262.221 91.0293 262.221C77.3159 259.218 64.2398 253.828 52.4002 246.298L51.4849 227.343Z" fill="#90B8DE"/>
<path d="M23.8648 206.745C47.5417 223.048 69.7127 241.429 90.1137 261.667L92.1543 259.547C71.0107 239.954 48.1569 222.283 23.8648 206.745Z" fill="white"/>
<defs>
<linearGradient id="paint0_linear_59_7222" x1="234.379" y1="127.36" x2="203.272" y2="88.5923" gradientUnits="userSpaceOnUse">
<stop offset="0.02" stop-color="#7A4E82" stop-opacity="0"/>
<stop offset="1" stop-color="#7A4E82"/>
</linearGradient>
<linearGradient id="paint1_linear_59_7222" x1="201.489" y1="92.3019" x2="207.742" y2="49.9784" gradientUnits="userSpaceOnUse">
<stop offset="0.02" stop-color="#7A4E82" stop-opacity="0"/>
<stop offset="1" stop-color="#7A4E82"/>
</linearGradient>
<linearGradient id="paint2_linear_59_7222" x1="189.339" y1="51.2098" x2="200.203" y2="61.5048" gradientUnits="userSpaceOnUse">
<stop stop-color="white"/>
<stop offset="1" stop-color="white" stop-opacity="0"/>
</linearGradient>
<linearGradient id="paint3_linear_59_7222" x1="172.084" y1="48.3024" x2="179.68" y2="58.3789" gradientUnits="userSpaceOnUse">
<stop stop-color="white"/>
<stop offset="1" stop-color="white" stop-opacity="0"/>
</linearGradient>
<linearGradient id="paint4_linear_59_7222" x1="170.213" y1="49.6741" x2="177.769" y2="59.7149" gradientUnits="userSpaceOnUse">
<stop stop-color="white"/>
<stop offset="1" stop-color="white" stop-opacity="0"/>
</linearGradient>
<linearGradient id="paint5_linear_59_7222" x1="212.924" y1="93.9428" x2="219.183" y2="51.4938" gradientUnits="userSpaceOnUse">
<stop offset="0.02" stop-color="#763882" stop-opacity="0"/>
<stop offset="1" stop-color="#763882"/>
</linearGradient>
<linearGradient id="paint6_linear_59_7222" x1="223.933" y1="232.836" x2="161.727" y2="159.704" gradientUnits="userSpaceOnUse">
<stop offset="0.02" stop-color="#696969" stop-opacity="0"/>
<stop offset="1" stop-color="#696969"/>
</linearGradient>
</defs>
</svg>
