<svg width="213" height="170" viewBox="0 0 213 170" fill="none" xmlns="http://www.w3.org/2000/svg">
<g clip-path="url(#clip0_41_4695)">
<path d="M142.32 37.237C142.289 37.2423 142.242 37.2502 142.185 37.2596C141.077 37.4434 134.375 38.4788 127.619 35.9013C124.757 34.8094 125.733 34.5373 119.359 30.7411C111.885 26.2904 109.967 26.3215 109.411 24.2463C108.3 20.1023 114.234 13.588 118.161 14.0169C119.195 14.1298 120.303 14.7472 122.025 14.3286C122.403 14.2366 124.06 13.834 124.868 12.4607C125.588 11.2357 124.978 10.352 125.268 9.34723C126.028 6.70998 132.368 5.39385 137.926 6.32377C141.122 6.85862 143.609 8.31881 148.451 11.2174C156.879 16.2624 161.093 18.7849 162.04 22.6496C162.938 26.3127 160.783 27.8911 162.35 31.8123C163.809 35.4634 166.127 35.2196 166.924 38.1732C168.208 42.9261 163.445 48.1424 161.461 50.3154C159.285 52.6978 157.205 54.0054 154.443 55.7412C150.976 57.92 149.243 59.0094 147.159 58.8986C143.381 58.6977 132.153 59.3817 132.007 56.2504C131.952 55.0769 118.335 56.0377 125.04 43.4035C125.862 41.8539 141.973 43.5091 142.186 42.6189" fill="#05264E"/>
<path d="M148.84 45.3217L160.421 62.6215L127.179 69.3541L129.296 47.6954L148.84 45.3217Z" fill="#FFB6B6"/>
<path opacity="0.1" d="M148.84 45.3217L160.421 62.6215L127.179 69.3541L129.296 47.6954L148.84 45.3217Z" fill="black"/>
<path d="M124.689 58.1331L160.543 56.637L176.478 65.3645L175.731 121.47L192.413 153.138L108.256 137.179L114.729 113.241L111.742 62.8709L124.689 58.1331Z" fill="#3C65F5"/>
<path d="M0.965586 167.127C-0.179077 165.32 -0.314259 163.088 0.604046 161.155L14.2502 132.44C15.2687 130.297 17.458 128.913 19.8279 128.913H192.189C194.493 128.913 196.589 130.182 197.659 132.225L212.286 160.149C213.297 162.079 213.231 164.346 212.108 166.213C210.986 168.081 209.017 169.2 206.84 169.209L6.20601 170H6.18089C4.05397 170 2.10561 168.927 0.965588 167.127H0.965586Z" fill="white"/>
<path d="M0.965586 167.127C-0.179077 165.32 -0.314259 163.088 0.604046 161.155L14.2502 132.44C15.2687 130.297 17.458 128.913 19.8279 128.913H192.189C194.493 128.913 196.589 130.182 197.659 132.225L212.286 160.149C213.297 162.079 213.231 164.346 212.108 166.213C210.986 168.081 209.017 169.2 206.84 169.209L6.20601 170H6.18089C4.05397 170 2.10561 168.927 0.965588 167.127H0.965586ZM19.8279 129.562C17.7068 129.562 15.7472 130.801 14.8357 132.719L1.18952 161.434C0.367559 163.164 0.488494 165.162 1.51307 166.78C2.53352 168.391 4.27716 169.351 6.18099 169.351H6.20347L206.838 168.56C208.786 168.552 210.548 167.55 211.553 165.878C212.557 164.207 212.617 162.178 211.712 160.451L197.085 132.527C196.128 130.698 194.252 129.562 192.189 129.562H19.8279H19.8279Z" fill="#3F3D56"/>
<path d="M176.142 159.023L105.013 154.125C103.963 154.053 103.126 153.344 102.88 152.319C102.634 151.294 103.058 150.281 103.961 149.739L119.689 140.287C120.089 140.047 120.547 139.931 121.011 139.953L182.537 142.754C183.35 142.791 184.077 143.235 184.481 143.944C184.884 144.652 184.897 145.505 184.515 146.225L178.389 157.773C177.978 158.548 177.172 159.028 176.304 159.028C176.251 159.028 176.196 159.026 176.142 159.023Z" fill="#3F3D56"/>
<path d="M104.396 151.268L175.233 156.13L180.835 144.036L120.096 141.651L104.396 151.268Z" fill="white"/>
<path d="M139.255 51.1492C151.011 51.1492 160.541 41.6048 160.541 29.8312C160.541 18.0576 151.011 8.51326 139.255 8.51326C127.498 8.51326 117.968 18.0576 117.968 29.8312C117.968 41.6048 127.498 51.1492 139.255 51.1492Z" fill="#FFB6B6"/>
<path d="M146.111 31.2107C146.08 31.2161 146.033 31.224 145.976 31.2334C144.868 31.4171 138.166 32.4526 131.41 29.8751C128.548 28.7832 129.524 28.511 123.15 24.7148C115.676 20.2642 113.758 20.2953 113.202 18.2201C112.091 14.0761 118.025 7.56176 121.952 7.99067C122.986 8.10359 124.094 8.72099 125.816 8.30236C126.194 8.21038 127.851 7.80776 128.659 6.43449C129.379 5.20943 128.769 4.32572 129.059 3.321C129.819 0.683748 136.159 -0.632381 141.717 0.297535C144.913 0.832392 147.4 2.29258 152.242 5.19112C160.67 10.2361 164.884 12.7586 165.831 16.6234C166.729 20.2865 164.574 21.8648 166.141 25.7861C167.6 29.4372 169.918 29.1933 170.715 32.1469C171.999 36.8998 167.236 42.1162 165.252 44.2892C163.076 46.6716 160.996 47.9792 158.234 49.715C154.767 51.8938 153.034 52.9832 150.95 52.8724C147.172 52.6714 143.413 49.2423 143.267 46.1109C143.212 44.9374 143.701 44.5855 144.911 40.5512C145.415 38.8704 145.764 37.4829 145.977 36.5927" fill="#05264E"/>
<path d="M160.7 145.427C162.07 145.481 163.112 146.71 163.188 148.042C163.266 149.423 162.307 150.696 161.154 151.354C159.804 152.125 158.118 152.249 156.598 152.116C155.231 151.997 153.743 151.571 152.863 150.44C152.122 149.488 151.85 148.051 152.48 146.971C153.104 145.9 154.432 145.604 155.543 146.034C156.718 146.488 157.457 147.559 157.465 148.824C157.473 150.227 156.664 151.523 155.529 152.298C154.305 153.134 152.764 153.403 151.307 153.4C149.72 153.396 148.139 153.063 146.679 152.443C145.31 151.862 143.943 151.025 142.965 149.888C142.048 148.821 141.499 147.342 142.008 145.958C142.425 144.824 143.48 144.128 144.689 144.224C145.795 144.312 146.914 144.955 147.405 145.979C147.959 147.134 147.71 148.519 147.005 149.552C146.191 150.744 144.904 151.414 143.475 151.511C141.955 151.614 140.449 151.073 139.198 150.236C138.039 149.462 137.021 148.47 135.778 147.826C135.179 147.515 134.528 147.318 133.85 147.319C132.988 147.32 132.158 147.604 131.319 147.769C130.608 147.908 129.875 147.989 129.173 147.762C128.572 147.567 128.01 147.21 127.632 146.698C127.274 146.214 127.149 145.607 127.351 145.032C127.51 144.581 128.232 144.775 128.072 145.231C127.701 146.282 128.973 147.055 129.863 147.151C130.538 147.225 131.235 147.029 131.886 146.877C132.565 146.718 133.259 146.555 133.961 146.572C136.449 146.633 138.093 148.763 140.098 149.918C142.206 151.132 145.294 151.217 146.585 148.804C147.054 147.927 147.151 146.762 146.506 145.943C145.97 145.261 145.016 144.852 144.152 144.985C143.067 145.151 142.527 146.186 142.566 147.215C142.614 148.474 143.491 149.497 144.426 150.252C146.506 151.931 149.266 152.786 151.927 152.636C153.176 152.565 154.503 152.24 155.473 151.407C156.311 150.688 156.883 149.518 156.681 148.397C156.507 147.427 155.695 146.692 154.714 146.594C153.71 146.494 152.925 147.208 152.88 148.212C152.83 149.342 153.5 150.285 154.471 150.799C155.571 151.382 156.904 151.454 158.123 151.391C159.417 151.323 160.766 150.981 161.672 149.995C162.444 149.153 162.737 147.904 162.025 146.929C161.711 146.499 161.239 146.197 160.7 146.175C160.221 146.156 160.219 145.408 160.7 145.427Z" fill="#3C65F5"/>
<path d="M126.657 144.626L127.038 142.267L148.17 101.817C148.52 101.147 149.35 100.887 150.019 101.238C150.688 101.588 150.947 102.419 150.597 103.089L129.474 143.521L127.747 145.197C127.543 145.394 127.248 145.437 126.997 145.305C126.745 145.173 126.612 144.906 126.657 144.626H126.657Z" fill="#3F3D56"/>
<path d="M141.062 118.89C143.446 119.34 145.688 120.355 147.6 121.85L147.708 121.873L147.73 121.766L170.761 125.379L169.093 94.6989L186.548 85.1244L182.422 136.984C181.528 140.296 178.096 142.23 174.806 141.276L145.488 132.83L145.561 132.469L145.458 132.442C143.115 133.074 140.655 133.136 138.283 132.621C132.333 131.415 128.132 127.363 128.898 123.571C129.665 119.779 135.11 117.683 141.062 118.89V118.89Z" fill="#FFB6B6"/>
<path d="M156.808 70.8503L176.478 65.3644C176.478 65.3644 186.811 72.9698 188.056 81.1986C188.204 82.1772 188.615 127.765 188.18 128.95C184.963 137.732 167.266 123.714 167.266 123.714L156.808 70.8503Z" fill="#3C65F5"/>
<path d="M71.4894 152.786L69.4503 151.036H69.4501C69.1466 150.775 68.7775 150.602 68.3827 150.536L22.947 142.952C21.91 142.779 21.144 142.029 20.9477 140.995C20.7516 139.96 21.1898 138.981 22.0914 138.439L38.3008 128.699C38.8425 128.374 39.48 128.271 40.0968 128.411L97.7056 141.445C98.8255 141.699 99.573 142.605 99.6097 143.754C99.6464 144.904 98.9583 145.856 97.8566 146.181L73.7695 153.276C73.5409 153.343 73.3078 153.376 73.0767 153.376C72.5018 153.376 71.9392 153.172 71.4894 152.786Z" fill="#3F3D56"/>
<path d="M49.6087 96.2222C51.8609 97.1254 53.8643 98.5557 55.4513 100.393L55.5524 100.437L55.5945 100.336L77.492 108.346L100.873 70.4333L113.798 78.4559L86.6889 121.992C85.1721 125.068 81.4311 126.301 78.3872 124.727L51.2561 110.757L51.3978 110.416L51.3026 110.369C48.8815 110.536 46.4558 110.119 44.2284 109.154C38.6241 106.818 35.2853 102.028 36.7707 98.4559C38.2562 94.8842 44.0027 93.8839 49.6087 96.2222L49.6087 96.2222Z" fill="#FFB6B6"/>
<path d="M125.954 77.2777L115.612 61.7902C115.612 61.7902 103.306 64.2296 98.2369 70.8245C97.6033 71.6489 75.8373 103.263 75.6971 104.643C74.7155 114.301 99.7315 118.826 99.7315 118.826L125.954 77.2777Z" fill="#3C65F5"/>
<path d="M70.3641 153.251L18.2809 146.042C16.5377 145.801 15.099 144.55 14.6154 142.855L2.65322 100.925C2.24788 99.5043 2.55048 98.0328 3.48345 96.8878C4.41642 95.7428 5.79484 95.1511 7.26675 95.2636L59.7407 99.2898C61.639 99.4354 63.2327 100.774 63.7064 102.621L75.2778 147.734C75.6471 149.174 75.2778 150.695 74.2899 151.805C73.4393 152.76 72.233 153.293 70.9755 153.293C70.7728 153.293 70.5684 153.28 70.3641 153.251Z" fill="#3F3D56"/>
<path d="M58.7545 67.3675C59.059 67.7029 60.1637 67.3612 62.3609 66.6642C64.031 66.1343 64.2883 65.9415 64.4471 65.8033C65.0056 65.3173 65.152 64.8063 65.7052 62.5486C66.6981 58.4965 66.7288 58.0941 67.2387 57.2342C67.4143 56.9381 67.8578 56.2318 67.7496 56.1443C67.6385 56.0543 67.1585 56.7901 66.2715 57.0682C65.4069 57.3391 65.0177 56.9051 64.2796 57.0156C63.3255 57.1585 62.7582 58.0662 61.8683 59.5353C61.0803 60.8364 60.9812 61.3598 59.8764 63.9448C59.5634 64.6771 59.3114 65.2439 59.1179 65.6919C56.9487 67.7194 54.7974 69.7737 52.6656 71.8458C52.7067 71.7829 52.7453 71.7235 52.7789 71.6719C53.7232 70.2199 53.8515 69.4415 53.8378 68.8582C53.8156 67.9132 53.3649 67.1935 52.4645 65.7925C51.5822 64.4196 50.7462 63.5137 49.7389 62.4327C48.4186 61.0158 47.7584 60.3072 47.4955 60.3538C45.6177 60.6866 45.1156 73.4918 47.4782 75.7818C47.1466 76.0191 46.872 76.2676 46.6734 76.5121C44.6509 74.2632 41.1863 71.7507 37.3483 71.4414C34.9822 71.2507 33.6763 71.9943 33.2703 72.2497C31.3935 73.4302 30.2776 75.7931 30.838 76.4598C31.3606 77.0815 32.87 75.6681 35.8281 75.7459C37.8922 75.8003 39.5046 76.5502 40.4618 76.9955C42.4698 77.9295 43.2042 78.8477 44.6847 79.4767C43.9907 80.0495 43.4408 80.7643 43.0955 81.431C42.9759 81.5545 42.8568 81.6786 42.7373 81.8022C41.2097 80.9401 39.4894 80.3076 37.6863 80.1623C35.3201 79.9716 34.0142 80.7152 33.6082 80.9706C32.3433 81.7663 31.4267 83.0976 31.1333 84.0861C30.9416 84.1247 30.7642 84.1687 30.6017 84.2162C30.0283 82.9185 28.322 81.5499 26.7354 80.8602C24.0042 79.6729 20.4565 79.9876 20.0769 81.1166C20.0648 81.1526 20.0618 81.1881 20.0564 81.2237C20.3558 78.8045 20.7623 76.4023 21.2702 74.0175C21.2874 74.0855 21.309 74.1544 21.3378 74.2269C22.012 75.9228 23.8338 77.5505 26.3171 78.3949C28.2662 79.0577 29.0825 78.7142 29.2899 78.6182C29.488 78.5265 30.3436 78.1587 30.5533 77.4274C30.942 76.0714 28.5617 72.064 27.0603 73.4082C22.2364 77.7269 21.5744 74.2298 21.3529 73.6412C21.763 71.7559 22.2351 69.8813 22.7645 68.0174C22.7736 68.0288 22.7815 68.04 22.791 68.0515C23.845 69.3315 25.8732 70.2334 28.2567 70.2732C30.1274 70.3045 30.7386 69.7801 30.8915 69.6393C31.0374 69.5048 31.6759 68.9484 31.6545 68.2571C31.6147 66.9754 29.338 65.9316 27.5165 65.7506C25.8379 65.5838 24.0304 66.0985 23.1338 66.7503C23.5506 65.3545 23.9991 63.9647 24.4774 62.581C25.7025 63.0821 27.4378 63.0147 29.1425 62.2516C30.5483 61.6223 30.8217 61.018 30.8867 60.8597C30.9487 60.7085 31.2313 60.0708 30.9749 59.5628C30.4994 58.621 28.4386 58.6369 27.0173 59.1374C26.432 59.3436 25.8756 59.6608 25.3988 60.0193C26.2465 57.7514 27.1705 55.4996 28.1643 53.2644L27.1683 53.015C25.8989 55.8703 24.792 58.7629 23.8408 61.6875C23.7225 60.8298 23.4261 59.916 23.0359 59.1737C21.8883 56.9909 19.4373 55.3532 18.6084 55.8846C18.4425 55.9909 18.3727 56.1639 18.3096 56.37C17.8015 58.0283 18.1842 60.32 19.5224 62.4255C20.5726 64.078 21.3815 64.31 21.5922 64.3624C21.7701 64.4068 22.4569 64.5967 23.0215 64.352C22.6418 65.6549 22.2907 66.9635 21.9706 68.2779C21.5854 67.3201 20.8263 66.2995 20.0235 65.5938C18.1722 63.9665 15.2984 63.3153 14.7141 64.1084C14.5972 64.2671 14.5939 64.4537 14.6085 64.6688C14.7263 66.3993 15.9022 68.4023 17.9038 69.8891C19.4749 71.0561 20.3131 70.9829 20.5286 70.9564C20.6554 70.9409 21.0388 70.9026 21.4084 70.7353C21.0653 72.3323 20.7654 73.9371 20.5062 75.5486C19.9878 73.7458 18.2269 71.4968 16.5649 72.2123C13.6158 73.482 10.1492 71.5317 9.76759 72.3845C9.66833 72.6064 9.75051 72.8352 9.84552 73.0835C10.6096 75.0815 12.7197 77.0173 15.6172 78.0453C17.8912 78.8522 18.8533 78.4622 19.0978 78.3529C19.2599 78.2804 19.7946 78.0567 20.193 77.6415C19.9066 79.7122 19.6871 81.7936 19.5325 83.8839C18.9176 82.5394 17.1857 81.1229 15.5644 80.3926C12.7204 79.1115 9.0007 79.3921 8.58758 80.5693C8.50497 80.8048 8.57014 81.032 8.66758 81.2868C9.45186 83.3375 11.6177 85.3244 14.5916 86.3796C16.9258 87.2077 17.9132 86.8075 18.1642 86.6953C18.3475 86.6133 18.9951 86.3424 19.408 85.8279C19.3551 86.7942 19.3143 87.7622 19.2884 88.732C19.2811 89.0083 19.2768 89.2845 19.2714 89.5607C19.2379 89.6149 19.2087 89.6704 19.1892 89.7285C19.1096 89.9654 19.1638 90.1934 19.2573 90.4424C19.2553 90.6179 19.2542 90.7932 19.253 90.9686C18.7327 90.4963 18.112 89.786 17.3654 88.7739C16.6917 87.8607 16.052 88.5307 15.6411 89.3083C14.9968 89.1646 14.3823 89.2536 13.8991 89.7057C10.6583 92.7376 7.02346 91.129 6.97204 92.033C6.9572 92.2939 7.09671 92.5013 7.27257 92.7263C8.68758 94.5366 11.4655 95.8573 14.7656 95.9965C17.3557 96.1057 18.2208 95.4008 18.4374 95.2112C18.5135 95.1446 18.6841 95.0008 18.8688 94.7986C19.0172 94.9172 19.1615 95.0248 19.3063 95.123C19.3633 96.8585 19.4652 98.5921 19.6163 100.322C19.4935 100.333 19.376 100.354 19.2885 100.363C18.0339 100.491 17.6111 98.7955 15.7159 98.1762C15.0865 97.9705 13.874 97.7461 13.235 98.1762C13.143 98.2381 12.829 98.4711 12.3418 98.6731C12.0539 98.7926 11.8339 98.8479 11.7464 98.8719C10.9688 99.0849 10.2486 99.6693 9.7617 100.064C8.84636 100.807 8.38875 101.179 8.17387 101.853C8.10627 102.066 7.91607 102.663 8.17387 103.245C8.29569 103.52 8.57841 103.929 9.66244 104.338C10.3067 104.581 12.1859 105.291 14.4258 104.537C14.9359 104.365 14.5465 104.427 16.5098 103.444C18.0544 102.67 18.9578 102.301 19.09 101.555C19.1365 101.293 19.0896 100.974 19.2885 100.86C19.399 100.796 19.5326 100.827 19.6659 100.875C19.7959 102.266 19.9582 103.655 20.1549 105.041H18.3875C16.0406 105.041 13.9351 106.349 12.893 108.455L6.28183 121.813C5.86446 122.656 5.6438 123.599 5.6438 124.54V158.887C5.6438 162.274 8.39483 165.029 11.7763 165.029H27.2077C30.5892 165.029 33.3402 162.274 33.3402 158.887V127.26C33.3402 126.489 33.1976 125.734 32.9163 125.016L26.6155 108.939C25.8513 106.989 24.1962 105.61 22.2177 105.183C22.8523 104.429 23.4879 103.677 24.1285 102.926C24.935 103.316 25.8223 103.636 26.7762 103.86C29.2999 104.455 30.2816 103.925 30.53 103.779C30.7672 103.64 31.7954 103.075 31.9697 102.133C31.9883 102.032 31.9955 101.93 31.9942 101.827C34.5793 103.931 35.9277 104.969 36.913 104.623C37.76 104.326 38.2435 103.351 38.5204 102.477C38.8096 102.517 39.1163 102.558 39.4431 102.602C42.9836 103.075 44.7677 103.295 45.4501 102.455C46.3947 101.293 45.4982 99.0514 45.2511 98.4338C44.714 97.0912 43.8878 96.2744 43.3746 95.7774C42.7082 95.1321 40.8088 93.2929 37.8184 93.0476C37.1684 92.9942 36.5844 93.0352 35.9895 93.1598C35.7822 92.9699 35.5634 92.7839 35.3225 92.6071C34.8635 92.2704 34.4102 92.021 33.9223 91.8261C34.6707 91.0049 35.4212 90.1863 36.1752 89.371C36.2946 89.4254 36.4079 89.4779 36.5121 89.5264C38.9822 90.6753 39.5249 91.8004 41.9005 92.3927C42.9782 92.6614 44.1983 92.9657 44.5003 92.5083C45.037 91.6958 42.7593 88.3525 39.2395 86.0905C39.4769 85.8388 39.7148 85.588 39.9526 85.337C40.2745 85.4722 40.5581 85.604 40.7997 85.7164C43.2699 86.8653 43.8126 87.9904 46.1882 88.5827C47.2658 88.8514 48.4859 89.1557 48.7881 88.6983C49.2668 87.9733 47.5051 85.2328 44.6198 83.0437C45.4124 82.7916 46.4633 82.5123 47.8241 82.5481C49.8882 82.6024 51.5006 83.3524 52.4578 83.7976C54.928 84.9466 55.4707 86.0717 57.8462 86.664C58.9239 86.9327 60.144 87.2369 60.4461 86.7795C61.2438 85.5716 55.8256 78.7659 49.3443 78.2435C48.8412 78.203 48.389 78.2064 47.9802 78.2367C47.9237 78.1429 47.8624 78.0467 47.7978 77.9488C49.9907 78.0194 54.2733 77.3915 57.9185 79.9545C58.9696 80.6936 61.0115 82.432 64.4286 83.8603C65.5208 84.3169 66.07 84.5413 66.2213 84.3539C66.7627 83.6829 62.2606 78.1604 55.9268 75.4399C53.4155 74.3613 51.8639 74.2592 50.7603 74.4226C50.9304 74.2284 51.0962 74.028 51.2557 73.8267C53.7221 71.4042 56.2195 69.007 58.7394 66.6421C58.6174 67.0198 58.6215 67.2209 58.7545 67.3675ZM27.1041 97.5185C24.3184 96.6153 20.9451 97.1006 20.0656 98.1282C19.9415 97.2174 19.8338 96.3053 19.745 95.3915C21.0141 96.1013 22.3383 96.2915 24.8504 96.6274C25.9203 96.7704 26.8273 96.8895 27.5945 96.964C27.6976 97.2437 27.8075 97.4955 27.935 97.7363C27.9498 97.7642 27.9656 97.7908 27.9807 97.8184L27.9585 97.8438C27.6724 97.7196 27.3858 97.6099 27.1041 97.5185H27.1041ZM19.7028 85.2827C19.7822 85.0188 19.7839 84.7376 19.7232 84.4478C19.8099 83.3979 19.9181 82.3512 20.0461 81.3077C20.0428 81.4674 20.0934 81.6273 20.1623 81.8006C20.9368 83.7485 23.0293 85.6181 25.8817 86.5881C26.4138 86.769 26.8702 86.8831 27.2634 86.9528C27.0904 87.2546 26.9579 87.5488 26.8701 87.8209C25.8976 87.0385 24.6459 86.4696 23.2257 87.0732C22.8392 87.2375 22.6098 87.8383 22.4105 88.5569C21.0985 88.5795 20.0021 88.8537 19.4799 89.3175C19.4827 89.124 19.4817 88.931 19.4869 88.7372C19.5163 87.6329 19.5707 86.5321 19.6473 85.4347C19.6682 85.3855 19.687 85.3351 19.7028 85.2827H19.7028ZM19.4836 90.9631C19.5402 91.0791 19.6021 91.1945 19.6664 91.3095C19.6081 91.2664 19.5483 91.2201 19.487 91.17C19.4853 91.1011 19.4849 91.0321 19.4836 90.9631ZM21.7238 105.098C21.571 105.078 21.4169 105.063 21.2612 105.054C20.9021 103.269 20.5705 101.484 20.2929 99.6965C21.0228 100.857 22.2142 101.919 23.7318 102.724C23.0584 103.514 22.3906 104.305 21.7238 105.098H21.7238ZM33.4814 91.668C32.5314 91.3624 31.4166 91.2161 29.8737 91.0367C29.4828 90.4925 29.0797 90.0915 28.7818 89.8031C28.6204 89.6468 28.3727 89.3369 28.0518 88.9743C28.8834 88.707 30.1246 88.2307 31.8784 88.2768C33.4724 88.3188 34.7952 88.7753 35.7566 89.1862C34.9951 90.0102 34.2373 90.8379 33.4814 91.668ZM38.8654 85.8566C37.9319 85.2917 36.9195 84.808 35.8537 84.468C35.9572 84.4671 36.0586 84.464 36.1661 84.4669C37.4878 84.5017 38.6229 84.8217 39.5207 85.1643C39.3022 85.395 39.0834 85.6254 38.8654 85.8566Z" fill="#CCCCCC"/>
</g>
<defs>
<clipPath id="clip0_41_4695">
<rect width="213" height="170" fill="white"/>
</clipPath>
</defs>
</svg>
